; NON-PLATED HOLES START AT T1
; THROUGH (PLATED) HOLES START AT T100
M48
INCH
T1C0.086614
T100C0.043307
T101C0.030000
T102C0.015748
T103C0.040000
T104C0.036000
%
T1
X015500Y000750
X015500Y024250
X000749Y000750
X000749Y024250
T100
X014995Y005751
X014995Y016751
X014995Y004373
X014995Y011251
X014995Y009873
X014995Y015373
T101
X003251Y004250
X002250Y004250
X013250Y016750
X013250Y005750
X013250Y004748
X013250Y010248
X002250Y002250
X013250Y011250
X002250Y006250
X013250Y015748
X003251Y006250
X003251Y002250
T102
X003249Y012000
X006499Y011500
X003999Y013500
X010250Y001750
X002249Y016000
X003999Y012000
X006499Y010000
X006499Y019250
X002249Y018500
X008749Y002750
X008749Y017750
T103
X009125Y020900
X005125Y020900
X008125Y020900
X011125Y020900
X003125Y021900
X007125Y020900
X002125Y020900
X004125Y021900
X007125Y021900
X005125Y021900
X014125Y020900
X011125Y021900
X013125Y021900
X009125Y021900
X010125Y021900
X008125Y021900
X012125Y021900
X004125Y020900
X014125Y021900
X006125Y020900
X002125Y021900
X013125Y020900
X010125Y020900
X003125Y020900
X012125Y020900
X006125Y021900
T104
X005125Y011756
X005125Y004756
X005125Y007756
X005125Y009756
X005125Y013756
X005125Y012756
X005125Y015756
X011125Y002756
X005125Y003756
X011125Y008756
X005125Y008756
X005125Y014756
X005125Y010756
X005125Y016756
X005125Y006756
X011125Y005756
X005125Y005756
X005125Y002756
X011125Y004756
X011125Y011756
X011125Y006756
X011125Y015756
X011125Y010756
X011125Y003756
X011125Y014756
X011125Y012756
X011125Y009756
X011125Y013756
X011125Y016756
X011125Y007756
T00
M30
