G04 MADE WITH FRITZING*
G04 WWW.FRITZING.ORG*
G04 DOUBLE SIDED*
G04 HOLES PLATED*
G04 CONTOUR ON CENTER OF CONTOUR VECTOR*
%ASAXBY*%
%FSLAX23Y23*%
%MOIN*%
%OFA0B0*%
%SFA1.0B1.0*%
%ADD10C,0.075000*%
%ADD11C,0.039370*%
%ADD12C,0.070000*%
%ADD13C,0.074000*%
%ADD14C,0.083307*%
%ADD15R,0.069972X0.070000*%
%ADD16R,0.074000X0.074000*%
%ADD17R,0.083307X0.083307*%
%ADD18C,0.024000*%
%LNCOPPER1*%
G90*
G70*
G54D10*
X721Y948D03*
X207Y1981D03*
X122Y2290D03*
X911Y1960D03*
G54D11*
X875Y1775D03*
X875Y275D03*
X1025Y175D03*
X650Y1000D03*
X650Y1150D03*
X400Y1350D03*
X400Y1200D03*
X650Y1925D03*
X225Y1850D03*
X225Y1600D03*
X325Y1200D03*
G54D12*
X513Y1676D03*
X513Y1576D03*
X513Y1476D03*
X513Y1376D03*
X513Y1276D03*
X513Y1176D03*
X513Y1076D03*
X513Y976D03*
X513Y876D03*
X513Y776D03*
X513Y676D03*
X513Y576D03*
X513Y476D03*
X513Y376D03*
X513Y276D03*
X1113Y1676D03*
X1113Y1576D03*
X1113Y1476D03*
X1113Y1376D03*
X1113Y1276D03*
X1113Y1176D03*
X1113Y1076D03*
X1113Y976D03*
X1113Y876D03*
X1113Y776D03*
X1113Y676D03*
X1113Y576D03*
X1113Y476D03*
X1113Y376D03*
X1113Y276D03*
G54D13*
X213Y2190D03*
X313Y2190D03*
X413Y2190D03*
X513Y2190D03*
X613Y2190D03*
X713Y2190D03*
X813Y2190D03*
X913Y2190D03*
X1013Y2190D03*
X1113Y2190D03*
X1213Y2190D03*
X1313Y2190D03*
X1413Y2190D03*
X213Y2090D03*
X313Y2090D03*
X413Y2090D03*
X513Y2090D03*
X613Y2090D03*
X713Y2090D03*
X813Y2090D03*
X913Y2090D03*
X1013Y2090D03*
X1113Y2090D03*
X1213Y2090D03*
X1313Y2090D03*
X1413Y2090D03*
G54D12*
X1325Y575D03*
X1325Y475D03*
X1325Y1125D03*
X1325Y1025D03*
X1325Y1675D03*
X1325Y1575D03*
X225Y425D03*
X325Y425D03*
X225Y625D03*
X325Y625D03*
X225Y225D03*
X325Y225D03*
G54D14*
X1500Y1675D03*
X1500Y1537D03*
X1500Y1125D03*
X1500Y987D03*
X1500Y575D03*
X1500Y437D03*
G54D15*
X512Y1676D03*
G54D16*
X213Y2090D03*
G54D17*
X1500Y1675D03*
X1500Y1125D03*
X1500Y575D03*
G54D18*
X875Y294D02*
X875Y1756D01*
D02*
X1026Y849D02*
X1025Y194D01*
D02*
X1049Y875D02*
X1026Y849D01*
D02*
X1083Y875D02*
X1049Y875D01*
D02*
X1351Y1125D02*
X1467Y1125D01*
D02*
X1351Y575D02*
X1467Y575D01*
D02*
X1351Y1675D02*
X1467Y1675D01*
D02*
X476Y575D02*
X483Y575D01*
D02*
X375Y625D02*
X476Y575D01*
D02*
X375Y276D02*
X483Y276D01*
D02*
X351Y625D02*
X375Y625D01*
D02*
X344Y244D02*
X375Y276D01*
D02*
X1275Y1875D02*
X1313Y1900D01*
D02*
X1313Y1900D02*
X1313Y2059D01*
D02*
X1000Y1875D02*
X1275Y1875D01*
D02*
X950Y200D02*
X950Y1824D01*
D02*
X950Y1824D02*
X1000Y1875D01*
D02*
X925Y175D02*
X950Y200D01*
D02*
X375Y175D02*
X925Y175D01*
D02*
X344Y207D02*
X375Y175D01*
D02*
X1199Y1650D02*
X1200Y1151D01*
D02*
X1224Y1675D02*
X1199Y1650D01*
D02*
X1200Y1151D02*
X1200Y799D01*
D02*
X1200Y799D02*
X1175Y776D01*
D02*
X1175Y776D02*
X1142Y776D01*
D02*
X1299Y1675D02*
X1224Y1675D01*
D02*
X1250Y1101D02*
X1250Y701D01*
D02*
X1276Y1126D02*
X1250Y1101D01*
D02*
X1250Y701D02*
X1225Y675D01*
D02*
X1225Y675D02*
X1142Y676D01*
D02*
X1299Y1125D02*
X1276Y1126D01*
D02*
X1299Y575D02*
X1142Y576D01*
D02*
X1026Y1774D02*
X1050Y1799D01*
D02*
X1026Y1100D02*
X1026Y1774D01*
D02*
X1051Y1074D02*
X1026Y1100D01*
D02*
X1050Y1799D02*
X1375Y1799D01*
D02*
X1375Y1799D02*
X1413Y1826D01*
D02*
X1413Y1826D02*
X1413Y2059D01*
D02*
X349Y1275D02*
X483Y1276D01*
D02*
X313Y1300D02*
X349Y1275D01*
D02*
X313Y2059D02*
X313Y1300D01*
D02*
X1083Y1075D02*
X1051Y1074D01*
D02*
X600Y1200D02*
X600Y1751D01*
D02*
X600Y1751D02*
X575Y1775D01*
D02*
X575Y1775D02*
X513Y1775D01*
D02*
X513Y1775D02*
X513Y2059D01*
D02*
X542Y1176D02*
X575Y1176D01*
D02*
X575Y1176D02*
X600Y1200D01*
D02*
X674Y1076D02*
X713Y1100D01*
D02*
X542Y1076D02*
X674Y1076D01*
D02*
X713Y1100D02*
X713Y2059D01*
D02*
X813Y800D02*
X813Y2059D01*
D02*
X775Y775D02*
X813Y800D01*
D02*
X542Y776D02*
X775Y775D01*
D02*
X125Y2150D02*
X125Y351D01*
D02*
X150Y2190D02*
X125Y2150D01*
D02*
X125Y351D02*
X150Y324D01*
D02*
X476Y475D02*
X483Y475D01*
D02*
X375Y425D02*
X476Y475D01*
D02*
X351Y425D02*
X375Y425D01*
D02*
X399Y1000D02*
X425Y974D01*
D02*
X425Y974D02*
X483Y975D01*
D02*
X400Y1181D02*
X399Y1000D01*
D02*
X575Y1850D02*
X575Y2000D01*
D02*
X650Y1775D02*
X575Y1850D01*
D02*
X575Y2000D02*
X600Y2061D01*
D02*
X650Y1169D02*
X650Y1775D01*
D02*
X651Y900D02*
X624Y875D01*
D02*
X624Y875D02*
X542Y876D01*
D02*
X650Y981D02*
X651Y900D01*
D02*
X399Y375D02*
X483Y375D01*
D02*
X150Y324D02*
X324Y325D01*
D02*
X324Y325D02*
X399Y375D01*
D02*
X181Y2190D02*
X150Y2190D01*
D02*
X225Y1831D02*
X225Y1619D01*
D02*
X650Y2025D02*
X628Y2063D01*
D02*
X650Y1944D02*
X650Y2025D01*
D02*
X399Y1800D02*
X412Y1824D01*
D02*
X413Y1824D02*
X413Y2059D01*
D02*
X400Y1369D02*
X399Y1800D01*
D02*
X225Y1176D02*
X250Y1199D01*
D02*
X250Y1199D02*
X306Y1200D01*
D02*
X225Y651D02*
X225Y1176D01*
D02*
X225Y451D02*
X225Y599D01*
G36*
X352Y2166D02*
X352Y2164D01*
X350Y2164D01*
X350Y2160D01*
X348Y2160D01*
X348Y2158D01*
X346Y2158D01*
X346Y2156D01*
X344Y2156D01*
X344Y2154D01*
X342Y2154D01*
X342Y2152D01*
X338Y2152D01*
X338Y2150D01*
X334Y2150D01*
X334Y2130D01*
X338Y2130D01*
X338Y2128D01*
X342Y2128D01*
X342Y2126D01*
X344Y2126D01*
X344Y2124D01*
X346Y2124D01*
X346Y2122D01*
X348Y2122D01*
X348Y2120D01*
X350Y2120D01*
X350Y2116D01*
X352Y2116D01*
X352Y2114D01*
X372Y2114D01*
X372Y2116D01*
X374Y2116D01*
X374Y2118D01*
X376Y2118D01*
X376Y2120D01*
X378Y2120D01*
X378Y2122D01*
X380Y2122D01*
X380Y2124D01*
X382Y2124D01*
X382Y2126D01*
X384Y2126D01*
X384Y2128D01*
X386Y2128D01*
X386Y2130D01*
X390Y2130D01*
X390Y2150D01*
X386Y2150D01*
X386Y2152D01*
X384Y2152D01*
X384Y2154D01*
X382Y2154D01*
X382Y2156D01*
X380Y2156D01*
X380Y2158D01*
X378Y2158D01*
X378Y2160D01*
X376Y2160D01*
X376Y2162D01*
X374Y2162D01*
X374Y2164D01*
X372Y2164D01*
X372Y2166D01*
X352Y2166D01*
G37*
D02*
G36*
X452Y2166D02*
X452Y2164D01*
X450Y2164D01*
X450Y2160D01*
X448Y2160D01*
X448Y2158D01*
X446Y2158D01*
X446Y2156D01*
X444Y2156D01*
X444Y2154D01*
X442Y2154D01*
X442Y2152D01*
X438Y2152D01*
X438Y2150D01*
X434Y2150D01*
X434Y2130D01*
X438Y2130D01*
X438Y2128D01*
X442Y2128D01*
X442Y2126D01*
X444Y2126D01*
X444Y2124D01*
X446Y2124D01*
X446Y2122D01*
X448Y2122D01*
X448Y2120D01*
X450Y2120D01*
X450Y2116D01*
X452Y2116D01*
X452Y2114D01*
X472Y2114D01*
X472Y2116D01*
X474Y2116D01*
X474Y2118D01*
X476Y2118D01*
X476Y2120D01*
X478Y2120D01*
X478Y2122D01*
X480Y2122D01*
X480Y2124D01*
X482Y2124D01*
X482Y2126D01*
X484Y2126D01*
X484Y2128D01*
X486Y2128D01*
X486Y2130D01*
X490Y2130D01*
X490Y2150D01*
X486Y2150D01*
X486Y2152D01*
X484Y2152D01*
X484Y2154D01*
X482Y2154D01*
X482Y2156D01*
X480Y2156D01*
X480Y2158D01*
X478Y2158D01*
X478Y2160D01*
X476Y2160D01*
X476Y2162D01*
X474Y2162D01*
X474Y2164D01*
X472Y2164D01*
X472Y2166D01*
X452Y2166D01*
G37*
D02*
G36*
X552Y2166D02*
X552Y2164D01*
X550Y2164D01*
X550Y2160D01*
X548Y2160D01*
X548Y2158D01*
X546Y2158D01*
X546Y2156D01*
X544Y2156D01*
X544Y2154D01*
X542Y2154D01*
X542Y2152D01*
X538Y2152D01*
X538Y2150D01*
X534Y2150D01*
X534Y2130D01*
X538Y2130D01*
X538Y2128D01*
X542Y2128D01*
X542Y2126D01*
X544Y2126D01*
X544Y2124D01*
X546Y2124D01*
X546Y2122D01*
X548Y2122D01*
X548Y2120D01*
X550Y2120D01*
X550Y2116D01*
X552Y2116D01*
X552Y2114D01*
X572Y2114D01*
X572Y2116D01*
X574Y2116D01*
X574Y2118D01*
X576Y2118D01*
X576Y2120D01*
X578Y2120D01*
X578Y2122D01*
X580Y2122D01*
X580Y2124D01*
X582Y2124D01*
X582Y2126D01*
X584Y2126D01*
X584Y2128D01*
X586Y2128D01*
X586Y2130D01*
X590Y2130D01*
X590Y2150D01*
X586Y2150D01*
X586Y2152D01*
X584Y2152D01*
X584Y2154D01*
X582Y2154D01*
X582Y2156D01*
X580Y2156D01*
X580Y2158D01*
X578Y2158D01*
X578Y2160D01*
X576Y2160D01*
X576Y2162D01*
X574Y2162D01*
X574Y2164D01*
X572Y2164D01*
X572Y2166D01*
X552Y2166D01*
G37*
D02*
G36*
X652Y2166D02*
X652Y2164D01*
X650Y2164D01*
X650Y2160D01*
X648Y2160D01*
X648Y2158D01*
X646Y2158D01*
X646Y2156D01*
X644Y2156D01*
X644Y2154D01*
X642Y2154D01*
X642Y2152D01*
X638Y2152D01*
X638Y2150D01*
X634Y2150D01*
X634Y2130D01*
X638Y2130D01*
X638Y2128D01*
X642Y2128D01*
X642Y2126D01*
X644Y2126D01*
X644Y2124D01*
X646Y2124D01*
X646Y2122D01*
X648Y2122D01*
X648Y2120D01*
X650Y2120D01*
X650Y2116D01*
X652Y2116D01*
X652Y2114D01*
X672Y2114D01*
X672Y2116D01*
X674Y2116D01*
X674Y2118D01*
X676Y2118D01*
X676Y2120D01*
X678Y2120D01*
X678Y2122D01*
X680Y2122D01*
X680Y2124D01*
X682Y2124D01*
X682Y2126D01*
X684Y2126D01*
X684Y2128D01*
X686Y2128D01*
X686Y2130D01*
X690Y2130D01*
X690Y2150D01*
X686Y2150D01*
X686Y2152D01*
X684Y2152D01*
X684Y2154D01*
X682Y2154D01*
X682Y2156D01*
X680Y2156D01*
X680Y2158D01*
X678Y2158D01*
X678Y2160D01*
X676Y2160D01*
X676Y2162D01*
X674Y2162D01*
X674Y2164D01*
X672Y2164D01*
X672Y2166D01*
X652Y2166D01*
G37*
D02*
G36*
X752Y2166D02*
X752Y2164D01*
X750Y2164D01*
X750Y2160D01*
X748Y2160D01*
X748Y2158D01*
X746Y2158D01*
X746Y2156D01*
X744Y2156D01*
X744Y2154D01*
X742Y2154D01*
X742Y2152D01*
X738Y2152D01*
X738Y2150D01*
X734Y2150D01*
X734Y2130D01*
X738Y2130D01*
X738Y2128D01*
X742Y2128D01*
X742Y2126D01*
X744Y2126D01*
X744Y2124D01*
X746Y2124D01*
X746Y2122D01*
X748Y2122D01*
X748Y2120D01*
X750Y2120D01*
X750Y2116D01*
X752Y2116D01*
X752Y2114D01*
X772Y2114D01*
X772Y2116D01*
X774Y2116D01*
X774Y2118D01*
X776Y2118D01*
X776Y2120D01*
X778Y2120D01*
X778Y2122D01*
X780Y2122D01*
X780Y2124D01*
X782Y2124D01*
X782Y2126D01*
X784Y2126D01*
X784Y2128D01*
X786Y2128D01*
X786Y2130D01*
X790Y2130D01*
X790Y2150D01*
X786Y2150D01*
X786Y2152D01*
X784Y2152D01*
X784Y2154D01*
X782Y2154D01*
X782Y2156D01*
X780Y2156D01*
X780Y2158D01*
X778Y2158D01*
X778Y2160D01*
X776Y2160D01*
X776Y2162D01*
X774Y2162D01*
X774Y2164D01*
X772Y2164D01*
X772Y2166D01*
X752Y2166D01*
G37*
D02*
G36*
X852Y2166D02*
X852Y2164D01*
X850Y2164D01*
X850Y2160D01*
X848Y2160D01*
X848Y2158D01*
X846Y2158D01*
X846Y2156D01*
X844Y2156D01*
X844Y2154D01*
X842Y2154D01*
X842Y2152D01*
X838Y2152D01*
X838Y2150D01*
X834Y2150D01*
X834Y2130D01*
X838Y2130D01*
X838Y2128D01*
X842Y2128D01*
X842Y2126D01*
X844Y2126D01*
X844Y2124D01*
X846Y2124D01*
X846Y2122D01*
X848Y2122D01*
X848Y2120D01*
X850Y2120D01*
X850Y2116D01*
X852Y2116D01*
X852Y2114D01*
X872Y2114D01*
X872Y2116D01*
X874Y2116D01*
X874Y2118D01*
X876Y2118D01*
X876Y2120D01*
X878Y2120D01*
X878Y2122D01*
X880Y2122D01*
X880Y2124D01*
X882Y2124D01*
X882Y2126D01*
X884Y2126D01*
X884Y2128D01*
X886Y2128D01*
X886Y2130D01*
X890Y2130D01*
X890Y2150D01*
X886Y2150D01*
X886Y2152D01*
X884Y2152D01*
X884Y2154D01*
X882Y2154D01*
X882Y2156D01*
X880Y2156D01*
X880Y2158D01*
X878Y2158D01*
X878Y2160D01*
X876Y2160D01*
X876Y2162D01*
X874Y2162D01*
X874Y2164D01*
X872Y2164D01*
X872Y2166D01*
X852Y2166D01*
G37*
D02*
G36*
X952Y2166D02*
X952Y2164D01*
X950Y2164D01*
X950Y2160D01*
X948Y2160D01*
X948Y2158D01*
X946Y2158D01*
X946Y2156D01*
X944Y2156D01*
X944Y2154D01*
X942Y2154D01*
X942Y2152D01*
X938Y2152D01*
X938Y2150D01*
X934Y2150D01*
X934Y2130D01*
X938Y2130D01*
X938Y2128D01*
X942Y2128D01*
X942Y2126D01*
X944Y2126D01*
X944Y2124D01*
X946Y2124D01*
X946Y2122D01*
X948Y2122D01*
X948Y2120D01*
X950Y2120D01*
X950Y2116D01*
X952Y2116D01*
X952Y2114D01*
X972Y2114D01*
X972Y2116D01*
X974Y2116D01*
X974Y2118D01*
X976Y2118D01*
X976Y2120D01*
X978Y2120D01*
X978Y2122D01*
X980Y2122D01*
X980Y2124D01*
X982Y2124D01*
X982Y2126D01*
X984Y2126D01*
X984Y2128D01*
X986Y2128D01*
X986Y2130D01*
X990Y2130D01*
X990Y2150D01*
X986Y2150D01*
X986Y2152D01*
X984Y2152D01*
X984Y2154D01*
X982Y2154D01*
X982Y2156D01*
X980Y2156D01*
X980Y2158D01*
X978Y2158D01*
X978Y2160D01*
X976Y2160D01*
X976Y2162D01*
X974Y2162D01*
X974Y2164D01*
X972Y2164D01*
X972Y2166D01*
X952Y2166D01*
G37*
D02*
G36*
X1052Y2166D02*
X1052Y2164D01*
X1050Y2164D01*
X1050Y2160D01*
X1048Y2160D01*
X1048Y2158D01*
X1046Y2158D01*
X1046Y2156D01*
X1044Y2156D01*
X1044Y2154D01*
X1042Y2154D01*
X1042Y2152D01*
X1038Y2152D01*
X1038Y2150D01*
X1034Y2150D01*
X1034Y2130D01*
X1038Y2130D01*
X1038Y2128D01*
X1042Y2128D01*
X1042Y2126D01*
X1044Y2126D01*
X1044Y2124D01*
X1046Y2124D01*
X1046Y2122D01*
X1048Y2122D01*
X1048Y2120D01*
X1050Y2120D01*
X1050Y2116D01*
X1052Y2116D01*
X1052Y2114D01*
X1072Y2114D01*
X1072Y2116D01*
X1074Y2116D01*
X1074Y2118D01*
X1076Y2118D01*
X1076Y2120D01*
X1078Y2120D01*
X1078Y2122D01*
X1080Y2122D01*
X1080Y2124D01*
X1082Y2124D01*
X1082Y2126D01*
X1084Y2126D01*
X1084Y2128D01*
X1086Y2128D01*
X1086Y2130D01*
X1090Y2130D01*
X1090Y2150D01*
X1086Y2150D01*
X1086Y2152D01*
X1084Y2152D01*
X1084Y2154D01*
X1082Y2154D01*
X1082Y2156D01*
X1080Y2156D01*
X1080Y2158D01*
X1078Y2158D01*
X1078Y2160D01*
X1076Y2160D01*
X1076Y2162D01*
X1074Y2162D01*
X1074Y2164D01*
X1072Y2164D01*
X1072Y2166D01*
X1052Y2166D01*
G37*
D02*
G36*
X1152Y2166D02*
X1152Y2164D01*
X1150Y2164D01*
X1150Y2160D01*
X1148Y2160D01*
X1148Y2158D01*
X1146Y2158D01*
X1146Y2156D01*
X1144Y2156D01*
X1144Y2154D01*
X1142Y2154D01*
X1142Y2152D01*
X1138Y2152D01*
X1138Y2150D01*
X1134Y2150D01*
X1134Y2130D01*
X1138Y2130D01*
X1138Y2128D01*
X1142Y2128D01*
X1142Y2126D01*
X1144Y2126D01*
X1144Y2124D01*
X1146Y2124D01*
X1146Y2122D01*
X1148Y2122D01*
X1148Y2120D01*
X1150Y2120D01*
X1150Y2116D01*
X1152Y2116D01*
X1152Y2114D01*
X1172Y2114D01*
X1172Y2116D01*
X1174Y2116D01*
X1174Y2118D01*
X1176Y2118D01*
X1176Y2120D01*
X1178Y2120D01*
X1178Y2122D01*
X1180Y2122D01*
X1180Y2124D01*
X1182Y2124D01*
X1182Y2126D01*
X1184Y2126D01*
X1184Y2128D01*
X1186Y2128D01*
X1186Y2130D01*
X1190Y2130D01*
X1190Y2150D01*
X1186Y2150D01*
X1186Y2152D01*
X1184Y2152D01*
X1184Y2154D01*
X1182Y2154D01*
X1182Y2156D01*
X1180Y2156D01*
X1180Y2158D01*
X1178Y2158D01*
X1178Y2160D01*
X1176Y2160D01*
X1176Y2162D01*
X1174Y2162D01*
X1174Y2164D01*
X1172Y2164D01*
X1172Y2166D01*
X1152Y2166D01*
G37*
D02*
G36*
X1252Y2166D02*
X1252Y2164D01*
X1250Y2164D01*
X1250Y2160D01*
X1248Y2160D01*
X1248Y2158D01*
X1246Y2158D01*
X1246Y2156D01*
X1244Y2156D01*
X1244Y2154D01*
X1242Y2154D01*
X1242Y2152D01*
X1238Y2152D01*
X1238Y2150D01*
X1234Y2150D01*
X1234Y2130D01*
X1238Y2130D01*
X1238Y2128D01*
X1242Y2128D01*
X1242Y2126D01*
X1244Y2126D01*
X1244Y2124D01*
X1246Y2124D01*
X1246Y2122D01*
X1248Y2122D01*
X1248Y2120D01*
X1250Y2120D01*
X1250Y2116D01*
X1252Y2116D01*
X1252Y2114D01*
X1272Y2114D01*
X1272Y2116D01*
X1274Y2116D01*
X1274Y2118D01*
X1276Y2118D01*
X1276Y2120D01*
X1278Y2120D01*
X1278Y2122D01*
X1280Y2122D01*
X1280Y2124D01*
X1282Y2124D01*
X1282Y2126D01*
X1284Y2126D01*
X1284Y2128D01*
X1286Y2128D01*
X1286Y2130D01*
X1290Y2130D01*
X1290Y2150D01*
X1286Y2150D01*
X1286Y2152D01*
X1284Y2152D01*
X1284Y2154D01*
X1282Y2154D01*
X1282Y2156D01*
X1280Y2156D01*
X1280Y2158D01*
X1278Y2158D01*
X1278Y2160D01*
X1276Y2160D01*
X1276Y2162D01*
X1274Y2162D01*
X1274Y2164D01*
X1272Y2164D01*
X1272Y2166D01*
X1252Y2166D01*
G37*
D02*
G36*
X1352Y2166D02*
X1352Y2164D01*
X1350Y2164D01*
X1350Y2160D01*
X1348Y2160D01*
X1348Y2158D01*
X1346Y2158D01*
X1346Y2156D01*
X1344Y2156D01*
X1344Y2154D01*
X1342Y2154D01*
X1342Y2152D01*
X1338Y2152D01*
X1338Y2150D01*
X1334Y2150D01*
X1334Y2130D01*
X1338Y2130D01*
X1338Y2128D01*
X1342Y2128D01*
X1342Y2126D01*
X1344Y2126D01*
X1344Y2124D01*
X1346Y2124D01*
X1346Y2122D01*
X1348Y2122D01*
X1348Y2120D01*
X1350Y2120D01*
X1350Y2116D01*
X1352Y2116D01*
X1352Y2114D01*
X1372Y2114D01*
X1372Y2116D01*
X1374Y2116D01*
X1374Y2118D01*
X1376Y2118D01*
X1376Y2120D01*
X1378Y2120D01*
X1378Y2122D01*
X1380Y2122D01*
X1380Y2124D01*
X1382Y2124D01*
X1382Y2126D01*
X1384Y2126D01*
X1384Y2128D01*
X1386Y2128D01*
X1386Y2130D01*
X1390Y2130D01*
X1390Y2150D01*
X1386Y2150D01*
X1386Y2152D01*
X1384Y2152D01*
X1384Y2154D01*
X1382Y2154D01*
X1382Y2156D01*
X1380Y2156D01*
X1380Y2158D01*
X1378Y2158D01*
X1378Y2160D01*
X1376Y2160D01*
X1376Y2162D01*
X1374Y2162D01*
X1374Y2164D01*
X1372Y2164D01*
X1372Y2166D01*
X1352Y2166D01*
G37*
D02*
G36*
X352Y2066D02*
X352Y2064D01*
X350Y2064D01*
X350Y2060D01*
X348Y2060D01*
X348Y2058D01*
X346Y2058D01*
X346Y2056D01*
X344Y2056D01*
X344Y2054D01*
X342Y2054D01*
X342Y2052D01*
X338Y2052D01*
X338Y2050D01*
X334Y2050D01*
X334Y1320D01*
X394Y1320D01*
X394Y1322D01*
X388Y1322D01*
X388Y1324D01*
X384Y1324D01*
X384Y1326D01*
X382Y1326D01*
X382Y1328D01*
X380Y1328D01*
X380Y1330D01*
X378Y1330D01*
X378Y1332D01*
X376Y1332D01*
X376Y1334D01*
X374Y1334D01*
X374Y1338D01*
X372Y1338D01*
X372Y1344D01*
X370Y1344D01*
X370Y1356D01*
X372Y1356D01*
X372Y1362D01*
X374Y1362D01*
X374Y1366D01*
X376Y1366D01*
X376Y1368D01*
X378Y1368D01*
X378Y1808D01*
X380Y1808D01*
X380Y1812D01*
X382Y1812D01*
X382Y1816D01*
X384Y1816D01*
X384Y1820D01*
X386Y1820D01*
X386Y1824D01*
X388Y1824D01*
X388Y1828D01*
X390Y1828D01*
X390Y2050D01*
X386Y2050D01*
X386Y2052D01*
X384Y2052D01*
X384Y2054D01*
X382Y2054D01*
X382Y2056D01*
X380Y2056D01*
X380Y2058D01*
X378Y2058D01*
X378Y2060D01*
X376Y2060D01*
X376Y2062D01*
X374Y2062D01*
X374Y2064D01*
X372Y2064D01*
X372Y2066D01*
X352Y2066D01*
G37*
D02*
G36*
X452Y2066D02*
X452Y2064D01*
X450Y2064D01*
X450Y2060D01*
X448Y2060D01*
X448Y2058D01*
X446Y2058D01*
X446Y2056D01*
X444Y2056D01*
X444Y2054D01*
X442Y2054D01*
X442Y2052D01*
X438Y2052D01*
X438Y2050D01*
X434Y2050D01*
X434Y1816D01*
X432Y1816D01*
X432Y1812D01*
X430Y1812D01*
X430Y1808D01*
X428Y1808D01*
X428Y1804D01*
X426Y1804D01*
X426Y1800D01*
X424Y1800D01*
X424Y1798D01*
X422Y1798D01*
X422Y1720D01*
X558Y1720D01*
X558Y1632D01*
X556Y1632D01*
X556Y1630D01*
X540Y1630D01*
X540Y1610D01*
X542Y1610D01*
X542Y1608D01*
X544Y1608D01*
X544Y1606D01*
X546Y1606D01*
X546Y1604D01*
X548Y1604D01*
X548Y1602D01*
X550Y1602D01*
X550Y1598D01*
X552Y1598D01*
X552Y1594D01*
X554Y1594D01*
X554Y1590D01*
X556Y1590D01*
X556Y1582D01*
X558Y1582D01*
X558Y1570D01*
X556Y1570D01*
X556Y1562D01*
X554Y1562D01*
X554Y1556D01*
X552Y1556D01*
X552Y1552D01*
X550Y1552D01*
X550Y1550D01*
X548Y1550D01*
X548Y1548D01*
X546Y1548D01*
X546Y1544D01*
X544Y1544D01*
X544Y1542D01*
X540Y1542D01*
X540Y1540D01*
X538Y1540D01*
X538Y1538D01*
X536Y1538D01*
X536Y1536D01*
X532Y1536D01*
X532Y1516D01*
X534Y1516D01*
X534Y1514D01*
X538Y1514D01*
X538Y1512D01*
X540Y1512D01*
X540Y1510D01*
X542Y1510D01*
X542Y1508D01*
X544Y1508D01*
X544Y1506D01*
X546Y1506D01*
X546Y1504D01*
X548Y1504D01*
X548Y1502D01*
X550Y1502D01*
X550Y1498D01*
X552Y1498D01*
X552Y1494D01*
X554Y1494D01*
X554Y1490D01*
X556Y1490D01*
X556Y1482D01*
X558Y1482D01*
X558Y1470D01*
X556Y1470D01*
X556Y1462D01*
X554Y1462D01*
X554Y1456D01*
X552Y1456D01*
X552Y1452D01*
X550Y1452D01*
X550Y1450D01*
X548Y1450D01*
X548Y1448D01*
X546Y1448D01*
X546Y1444D01*
X544Y1444D01*
X544Y1442D01*
X540Y1442D01*
X540Y1440D01*
X538Y1440D01*
X538Y1438D01*
X536Y1438D01*
X536Y1436D01*
X532Y1436D01*
X532Y1416D01*
X534Y1416D01*
X534Y1414D01*
X538Y1414D01*
X538Y1412D01*
X540Y1412D01*
X540Y1410D01*
X542Y1410D01*
X542Y1408D01*
X544Y1408D01*
X544Y1406D01*
X546Y1406D01*
X546Y1404D01*
X548Y1404D01*
X548Y1402D01*
X550Y1402D01*
X550Y1398D01*
X552Y1398D01*
X552Y1394D01*
X554Y1394D01*
X554Y1390D01*
X556Y1390D01*
X556Y1382D01*
X558Y1382D01*
X558Y1370D01*
X556Y1370D01*
X556Y1362D01*
X554Y1362D01*
X554Y1356D01*
X552Y1356D01*
X552Y1352D01*
X550Y1352D01*
X550Y1350D01*
X548Y1350D01*
X548Y1348D01*
X546Y1348D01*
X546Y1344D01*
X544Y1344D01*
X544Y1342D01*
X540Y1342D01*
X540Y1340D01*
X538Y1340D01*
X538Y1338D01*
X536Y1338D01*
X536Y1336D01*
X532Y1336D01*
X532Y1316D01*
X534Y1316D01*
X534Y1314D01*
X538Y1314D01*
X538Y1312D01*
X540Y1312D01*
X540Y1310D01*
X542Y1310D01*
X542Y1308D01*
X544Y1308D01*
X544Y1306D01*
X546Y1306D01*
X546Y1304D01*
X548Y1304D01*
X548Y1302D01*
X550Y1302D01*
X550Y1298D01*
X552Y1298D01*
X552Y1294D01*
X554Y1294D01*
X554Y1290D01*
X556Y1290D01*
X556Y1282D01*
X558Y1282D01*
X558Y1270D01*
X556Y1270D01*
X556Y1262D01*
X554Y1262D01*
X554Y1256D01*
X552Y1256D01*
X552Y1252D01*
X550Y1252D01*
X550Y1250D01*
X548Y1250D01*
X548Y1248D01*
X546Y1248D01*
X546Y1244D01*
X544Y1244D01*
X544Y1242D01*
X540Y1242D01*
X540Y1240D01*
X538Y1240D01*
X538Y1238D01*
X536Y1238D01*
X536Y1236D01*
X532Y1236D01*
X532Y1216D01*
X534Y1216D01*
X534Y1214D01*
X538Y1214D01*
X538Y1212D01*
X540Y1212D01*
X540Y1210D01*
X542Y1210D01*
X542Y1208D01*
X544Y1208D01*
X544Y1206D01*
X546Y1206D01*
X546Y1204D01*
X548Y1204D01*
X548Y1202D01*
X550Y1202D01*
X550Y1200D01*
X570Y1200D01*
X570Y1202D01*
X572Y1202D01*
X572Y1204D01*
X574Y1204D01*
X574Y1206D01*
X576Y1206D01*
X576Y1208D01*
X578Y1208D01*
X578Y1742D01*
X576Y1742D01*
X576Y1744D01*
X574Y1744D01*
X574Y1746D01*
X572Y1746D01*
X572Y1748D01*
X570Y1748D01*
X570Y1750D01*
X568Y1750D01*
X568Y1752D01*
X566Y1752D01*
X566Y1754D01*
X504Y1754D01*
X504Y1756D01*
X500Y1756D01*
X500Y1758D01*
X498Y1758D01*
X498Y1760D01*
X496Y1760D01*
X496Y1762D01*
X494Y1762D01*
X494Y1766D01*
X492Y1766D01*
X492Y1770D01*
X490Y1770D01*
X490Y2050D01*
X486Y2050D01*
X486Y2052D01*
X484Y2052D01*
X484Y2054D01*
X482Y2054D01*
X482Y2056D01*
X480Y2056D01*
X480Y2058D01*
X478Y2058D01*
X478Y2060D01*
X476Y2060D01*
X476Y2062D01*
X474Y2062D01*
X474Y2064D01*
X472Y2064D01*
X472Y2066D01*
X452Y2066D01*
G37*
D02*
G36*
X422Y1720D02*
X422Y1368D01*
X424Y1368D01*
X424Y1366D01*
X426Y1366D01*
X426Y1362D01*
X428Y1362D01*
X428Y1356D01*
X430Y1356D01*
X430Y1344D01*
X428Y1344D01*
X428Y1338D01*
X426Y1338D01*
X426Y1334D01*
X424Y1334D01*
X424Y1332D01*
X422Y1332D01*
X422Y1330D01*
X420Y1330D01*
X420Y1328D01*
X418Y1328D01*
X418Y1326D01*
X416Y1326D01*
X416Y1324D01*
X412Y1324D01*
X412Y1322D01*
X406Y1322D01*
X406Y1320D01*
X494Y1320D01*
X494Y1336D01*
X490Y1336D01*
X490Y1338D01*
X486Y1338D01*
X486Y1340D01*
X484Y1340D01*
X484Y1342D01*
X482Y1342D01*
X482Y1344D01*
X480Y1344D01*
X480Y1346D01*
X478Y1346D01*
X478Y1348D01*
X476Y1348D01*
X476Y1352D01*
X474Y1352D01*
X474Y1354D01*
X472Y1354D01*
X472Y1358D01*
X470Y1358D01*
X470Y1364D01*
X468Y1364D01*
X468Y1386D01*
X470Y1386D01*
X470Y1392D01*
X472Y1392D01*
X472Y1396D01*
X474Y1396D01*
X474Y1400D01*
X476Y1400D01*
X476Y1402D01*
X478Y1402D01*
X478Y1406D01*
X480Y1406D01*
X480Y1408D01*
X482Y1408D01*
X482Y1410D01*
X484Y1410D01*
X484Y1412D01*
X488Y1412D01*
X488Y1414D01*
X492Y1414D01*
X492Y1416D01*
X494Y1416D01*
X494Y1436D01*
X490Y1436D01*
X490Y1438D01*
X486Y1438D01*
X486Y1440D01*
X484Y1440D01*
X484Y1442D01*
X482Y1442D01*
X482Y1444D01*
X480Y1444D01*
X480Y1446D01*
X478Y1446D01*
X478Y1448D01*
X476Y1448D01*
X476Y1452D01*
X474Y1452D01*
X474Y1454D01*
X472Y1454D01*
X472Y1458D01*
X470Y1458D01*
X470Y1464D01*
X468Y1464D01*
X468Y1486D01*
X470Y1486D01*
X470Y1492D01*
X472Y1492D01*
X472Y1496D01*
X474Y1496D01*
X474Y1500D01*
X476Y1500D01*
X476Y1502D01*
X478Y1502D01*
X478Y1506D01*
X480Y1506D01*
X480Y1508D01*
X482Y1508D01*
X482Y1510D01*
X484Y1510D01*
X484Y1512D01*
X488Y1512D01*
X488Y1514D01*
X492Y1514D01*
X492Y1516D01*
X494Y1516D01*
X494Y1536D01*
X490Y1536D01*
X490Y1538D01*
X486Y1538D01*
X486Y1540D01*
X484Y1540D01*
X484Y1542D01*
X482Y1542D01*
X482Y1544D01*
X480Y1544D01*
X480Y1546D01*
X478Y1546D01*
X478Y1548D01*
X476Y1548D01*
X476Y1552D01*
X474Y1552D01*
X474Y1554D01*
X472Y1554D01*
X472Y1558D01*
X470Y1558D01*
X470Y1564D01*
X468Y1564D01*
X468Y1586D01*
X470Y1586D01*
X470Y1592D01*
X472Y1592D01*
X472Y1596D01*
X474Y1596D01*
X474Y1600D01*
X476Y1600D01*
X476Y1602D01*
X478Y1602D01*
X478Y1606D01*
X480Y1606D01*
X480Y1608D01*
X482Y1608D01*
X482Y1610D01*
X484Y1610D01*
X484Y1630D01*
X468Y1630D01*
X468Y1720D01*
X422Y1720D01*
G37*
D02*
G36*
X334Y1320D02*
X334Y1318D01*
X494Y1318D01*
X494Y1320D01*
X334Y1320D01*
G37*
D02*
G36*
X334Y1320D02*
X334Y1318D01*
X494Y1318D01*
X494Y1320D01*
X334Y1320D01*
G37*
D02*
G36*
X334Y1318D02*
X334Y1312D01*
X336Y1312D01*
X336Y1310D01*
X338Y1310D01*
X338Y1308D01*
X342Y1308D01*
X342Y1306D01*
X344Y1306D01*
X344Y1304D01*
X348Y1304D01*
X348Y1302D01*
X350Y1302D01*
X350Y1300D01*
X354Y1300D01*
X354Y1298D01*
X474Y1298D01*
X474Y1300D01*
X476Y1300D01*
X476Y1302D01*
X478Y1302D01*
X478Y1306D01*
X480Y1306D01*
X480Y1308D01*
X482Y1308D01*
X482Y1310D01*
X484Y1310D01*
X484Y1312D01*
X488Y1312D01*
X488Y1314D01*
X492Y1314D01*
X492Y1316D01*
X494Y1316D01*
X494Y1318D01*
X334Y1318D01*
G37*
D02*
G36*
X552Y2066D02*
X552Y2064D01*
X550Y2064D01*
X550Y2060D01*
X548Y2060D01*
X548Y2058D01*
X546Y2058D01*
X546Y2056D01*
X544Y2056D01*
X544Y2054D01*
X542Y2054D01*
X542Y2052D01*
X538Y2052D01*
X538Y2050D01*
X534Y2050D01*
X534Y2002D01*
X554Y2002D01*
X554Y2010D01*
X556Y2010D01*
X556Y2014D01*
X558Y2014D01*
X558Y2020D01*
X560Y2020D01*
X560Y2024D01*
X562Y2024D01*
X562Y2028D01*
X564Y2028D01*
X564Y2034D01*
X566Y2034D01*
X566Y2038D01*
X568Y2038D01*
X568Y2044D01*
X570Y2044D01*
X570Y2048D01*
X572Y2048D01*
X572Y2066D01*
X552Y2066D01*
G37*
D02*
G36*
X752Y2066D02*
X752Y2064D01*
X750Y2064D01*
X750Y2060D01*
X748Y2060D01*
X748Y2058D01*
X746Y2058D01*
X746Y2056D01*
X744Y2056D01*
X744Y2054D01*
X742Y2054D01*
X742Y2052D01*
X738Y2052D01*
X738Y2050D01*
X734Y2050D01*
X734Y1092D01*
X732Y1092D01*
X732Y1088D01*
X730Y1088D01*
X730Y1086D01*
X728Y1086D01*
X728Y1084D01*
X726Y1084D01*
X726Y1082D01*
X724Y1082D01*
X724Y1080D01*
X720Y1080D01*
X720Y1078D01*
X718Y1078D01*
X718Y1076D01*
X714Y1076D01*
X714Y1074D01*
X712Y1074D01*
X712Y1072D01*
X708Y1072D01*
X708Y1070D01*
X706Y1070D01*
X706Y1068D01*
X702Y1068D01*
X702Y1066D01*
X698Y1066D01*
X698Y1064D01*
X696Y1064D01*
X696Y1062D01*
X692Y1062D01*
X692Y1060D01*
X690Y1060D01*
X690Y1058D01*
X686Y1058D01*
X686Y1056D01*
X682Y1056D01*
X682Y1054D01*
X552Y1054D01*
X552Y1052D01*
X550Y1052D01*
X550Y1050D01*
X548Y1050D01*
X548Y1048D01*
X546Y1048D01*
X546Y1044D01*
X544Y1044D01*
X544Y1042D01*
X540Y1042D01*
X540Y1040D01*
X538Y1040D01*
X538Y1038D01*
X536Y1038D01*
X536Y1036D01*
X532Y1036D01*
X532Y1030D01*
X656Y1030D01*
X656Y1028D01*
X662Y1028D01*
X662Y1026D01*
X666Y1026D01*
X666Y1024D01*
X668Y1024D01*
X668Y1022D01*
X670Y1022D01*
X670Y1020D01*
X672Y1020D01*
X672Y1018D01*
X674Y1018D01*
X674Y1016D01*
X676Y1016D01*
X676Y1012D01*
X678Y1012D01*
X678Y1006D01*
X680Y1006D01*
X680Y994D01*
X678Y994D01*
X678Y988D01*
X676Y988D01*
X676Y984D01*
X674Y984D01*
X674Y982D01*
X672Y982D01*
X672Y892D01*
X670Y892D01*
X670Y888D01*
X668Y888D01*
X668Y886D01*
X666Y886D01*
X666Y882D01*
X662Y882D01*
X662Y880D01*
X660Y880D01*
X660Y878D01*
X658Y878D01*
X658Y876D01*
X656Y876D01*
X656Y874D01*
X654Y874D01*
X654Y872D01*
X652Y872D01*
X652Y870D01*
X650Y870D01*
X650Y868D01*
X648Y868D01*
X648Y866D01*
X646Y866D01*
X646Y864D01*
X644Y864D01*
X644Y862D01*
X642Y862D01*
X642Y860D01*
X640Y860D01*
X640Y858D01*
X636Y858D01*
X636Y856D01*
X634Y856D01*
X634Y854D01*
X552Y854D01*
X552Y852D01*
X550Y852D01*
X550Y850D01*
X548Y850D01*
X548Y848D01*
X546Y848D01*
X546Y844D01*
X544Y844D01*
X544Y842D01*
X540Y842D01*
X540Y840D01*
X538Y840D01*
X538Y838D01*
X536Y838D01*
X536Y836D01*
X532Y836D01*
X532Y816D01*
X534Y816D01*
X534Y814D01*
X538Y814D01*
X538Y812D01*
X540Y812D01*
X540Y810D01*
X542Y810D01*
X542Y808D01*
X544Y808D01*
X544Y806D01*
X546Y806D01*
X546Y804D01*
X548Y804D01*
X548Y802D01*
X550Y802D01*
X550Y798D01*
X772Y798D01*
X772Y800D01*
X774Y800D01*
X774Y802D01*
X776Y802D01*
X776Y804D01*
X780Y804D01*
X780Y806D01*
X782Y806D01*
X782Y808D01*
X786Y808D01*
X786Y810D01*
X788Y810D01*
X788Y812D01*
X790Y812D01*
X790Y2050D01*
X786Y2050D01*
X786Y2052D01*
X784Y2052D01*
X784Y2054D01*
X782Y2054D01*
X782Y2056D01*
X780Y2056D01*
X780Y2058D01*
X778Y2058D01*
X778Y2060D01*
X776Y2060D01*
X776Y2062D01*
X774Y2062D01*
X774Y2064D01*
X772Y2064D01*
X772Y2066D01*
X752Y2066D01*
G37*
D02*
G36*
X532Y1030D02*
X532Y1016D01*
X534Y1016D01*
X534Y1014D01*
X538Y1014D01*
X538Y1012D01*
X540Y1012D01*
X540Y1010D01*
X542Y1010D01*
X542Y1008D01*
X544Y1008D01*
X544Y1006D01*
X546Y1006D01*
X546Y1004D01*
X548Y1004D01*
X548Y1002D01*
X550Y1002D01*
X550Y998D01*
X552Y998D01*
X552Y994D01*
X554Y994D01*
X554Y990D01*
X556Y990D01*
X556Y982D01*
X558Y982D01*
X558Y970D01*
X556Y970D01*
X556Y962D01*
X554Y962D01*
X554Y956D01*
X552Y956D01*
X552Y952D01*
X550Y952D01*
X550Y950D01*
X548Y950D01*
X548Y948D01*
X546Y948D01*
X546Y944D01*
X544Y944D01*
X544Y942D01*
X540Y942D01*
X540Y940D01*
X538Y940D01*
X538Y938D01*
X536Y938D01*
X536Y936D01*
X532Y936D01*
X532Y916D01*
X534Y916D01*
X534Y914D01*
X538Y914D01*
X538Y912D01*
X540Y912D01*
X540Y910D01*
X542Y910D01*
X542Y908D01*
X544Y908D01*
X544Y906D01*
X546Y906D01*
X546Y904D01*
X548Y904D01*
X548Y902D01*
X550Y902D01*
X550Y898D01*
X618Y898D01*
X618Y900D01*
X620Y900D01*
X620Y902D01*
X622Y902D01*
X622Y904D01*
X624Y904D01*
X624Y906D01*
X626Y906D01*
X626Y908D01*
X628Y908D01*
X628Y982D01*
X626Y982D01*
X626Y984D01*
X624Y984D01*
X624Y988D01*
X622Y988D01*
X622Y994D01*
X620Y994D01*
X620Y1006D01*
X622Y1006D01*
X622Y1012D01*
X624Y1012D01*
X624Y1016D01*
X626Y1016D01*
X626Y1018D01*
X628Y1018D01*
X628Y1020D01*
X630Y1020D01*
X630Y1022D01*
X632Y1022D01*
X632Y1024D01*
X634Y1024D01*
X634Y1026D01*
X638Y1026D01*
X638Y1028D01*
X644Y1028D01*
X644Y1030D01*
X532Y1030D01*
G37*
D02*
G36*
X260Y2058D02*
X260Y2044D01*
X258Y2044D01*
X258Y2042D01*
X148Y2042D01*
X148Y1880D01*
X230Y1880D01*
X230Y1878D01*
X238Y1878D01*
X238Y1876D01*
X240Y1876D01*
X240Y1874D01*
X244Y1874D01*
X244Y1872D01*
X246Y1872D01*
X246Y1870D01*
X248Y1870D01*
X248Y1868D01*
X250Y1868D01*
X250Y1864D01*
X252Y1864D01*
X252Y1860D01*
X254Y1860D01*
X254Y1840D01*
X252Y1840D01*
X252Y1836D01*
X250Y1836D01*
X250Y1832D01*
X248Y1832D01*
X248Y1618D01*
X250Y1618D01*
X250Y1614D01*
X252Y1614D01*
X252Y1610D01*
X254Y1610D01*
X254Y1590D01*
X252Y1590D01*
X252Y1586D01*
X250Y1586D01*
X250Y1582D01*
X248Y1582D01*
X248Y1580D01*
X246Y1580D01*
X246Y1578D01*
X244Y1578D01*
X244Y1576D01*
X240Y1576D01*
X240Y1574D01*
X238Y1574D01*
X238Y1572D01*
X230Y1572D01*
X230Y1570D01*
X290Y1570D01*
X290Y2050D01*
X286Y2050D01*
X286Y2052D01*
X284Y2052D01*
X284Y2054D01*
X282Y2054D01*
X282Y2056D01*
X280Y2056D01*
X280Y2058D01*
X260Y2058D01*
G37*
D02*
G36*
X148Y1880D02*
X148Y1570D01*
X220Y1570D01*
X220Y1572D01*
X212Y1572D01*
X212Y1574D01*
X210Y1574D01*
X210Y1576D01*
X206Y1576D01*
X206Y1578D01*
X204Y1578D01*
X204Y1580D01*
X202Y1580D01*
X202Y1582D01*
X200Y1582D01*
X200Y1586D01*
X198Y1586D01*
X198Y1590D01*
X196Y1590D01*
X196Y1610D01*
X198Y1610D01*
X198Y1614D01*
X200Y1614D01*
X200Y1618D01*
X202Y1618D01*
X202Y1832D01*
X200Y1832D01*
X200Y1836D01*
X198Y1836D01*
X198Y1840D01*
X196Y1840D01*
X196Y1860D01*
X198Y1860D01*
X198Y1864D01*
X200Y1864D01*
X200Y1868D01*
X202Y1868D01*
X202Y1870D01*
X204Y1870D01*
X204Y1872D01*
X206Y1872D01*
X206Y1874D01*
X210Y1874D01*
X210Y1876D01*
X212Y1876D01*
X212Y1878D01*
X220Y1878D01*
X220Y1880D01*
X148Y1880D01*
G37*
D02*
G36*
X148Y1570D02*
X148Y1568D01*
X290Y1568D01*
X290Y1570D01*
X148Y1570D01*
G37*
D02*
G36*
X148Y1570D02*
X148Y1568D01*
X290Y1568D01*
X290Y1570D01*
X148Y1570D01*
G37*
D02*
G36*
X148Y1568D02*
X148Y1230D01*
X406Y1230D01*
X406Y1228D01*
X412Y1228D01*
X412Y1226D01*
X416Y1226D01*
X416Y1224D01*
X418Y1224D01*
X418Y1222D01*
X420Y1222D01*
X420Y1220D01*
X422Y1220D01*
X422Y1218D01*
X424Y1218D01*
X424Y1216D01*
X426Y1216D01*
X426Y1212D01*
X428Y1212D01*
X428Y1206D01*
X430Y1206D01*
X430Y1194D01*
X428Y1194D01*
X428Y1188D01*
X426Y1188D01*
X426Y1184D01*
X424Y1184D01*
X424Y1182D01*
X422Y1182D01*
X422Y1008D01*
X424Y1008D01*
X424Y1006D01*
X426Y1006D01*
X426Y1004D01*
X428Y1004D01*
X428Y1002D01*
X430Y1002D01*
X430Y1000D01*
X432Y1000D01*
X432Y998D01*
X434Y998D01*
X434Y996D01*
X474Y996D01*
X474Y1000D01*
X476Y1000D01*
X476Y1002D01*
X478Y1002D01*
X478Y1006D01*
X480Y1006D01*
X480Y1008D01*
X482Y1008D01*
X482Y1010D01*
X484Y1010D01*
X484Y1012D01*
X488Y1012D01*
X488Y1014D01*
X492Y1014D01*
X492Y1016D01*
X494Y1016D01*
X494Y1036D01*
X490Y1036D01*
X490Y1038D01*
X486Y1038D01*
X486Y1040D01*
X484Y1040D01*
X484Y1042D01*
X482Y1042D01*
X482Y1044D01*
X480Y1044D01*
X480Y1046D01*
X478Y1046D01*
X478Y1048D01*
X476Y1048D01*
X476Y1052D01*
X474Y1052D01*
X474Y1054D01*
X472Y1054D01*
X472Y1058D01*
X470Y1058D01*
X470Y1064D01*
X468Y1064D01*
X468Y1086D01*
X470Y1086D01*
X470Y1092D01*
X472Y1092D01*
X472Y1096D01*
X474Y1096D01*
X474Y1100D01*
X476Y1100D01*
X476Y1102D01*
X478Y1102D01*
X478Y1106D01*
X480Y1106D01*
X480Y1108D01*
X482Y1108D01*
X482Y1110D01*
X484Y1110D01*
X484Y1112D01*
X488Y1112D01*
X488Y1114D01*
X492Y1114D01*
X492Y1116D01*
X494Y1116D01*
X494Y1136D01*
X490Y1136D01*
X490Y1138D01*
X486Y1138D01*
X486Y1140D01*
X484Y1140D01*
X484Y1142D01*
X482Y1142D01*
X482Y1144D01*
X480Y1144D01*
X480Y1146D01*
X478Y1146D01*
X478Y1148D01*
X476Y1148D01*
X476Y1152D01*
X474Y1152D01*
X474Y1154D01*
X472Y1154D01*
X472Y1158D01*
X470Y1158D01*
X470Y1164D01*
X468Y1164D01*
X468Y1186D01*
X470Y1186D01*
X470Y1192D01*
X472Y1192D01*
X472Y1196D01*
X474Y1196D01*
X474Y1200D01*
X476Y1200D01*
X476Y1202D01*
X478Y1202D01*
X478Y1206D01*
X480Y1206D01*
X480Y1208D01*
X482Y1208D01*
X482Y1210D01*
X484Y1210D01*
X484Y1212D01*
X488Y1212D01*
X488Y1214D01*
X492Y1214D01*
X492Y1216D01*
X494Y1216D01*
X494Y1236D01*
X490Y1236D01*
X490Y1238D01*
X486Y1238D01*
X486Y1240D01*
X484Y1240D01*
X484Y1242D01*
X482Y1242D01*
X482Y1244D01*
X480Y1244D01*
X480Y1246D01*
X478Y1246D01*
X478Y1248D01*
X476Y1248D01*
X476Y1252D01*
X474Y1252D01*
X474Y1254D01*
X340Y1254D01*
X340Y1256D01*
X336Y1256D01*
X336Y1258D01*
X334Y1258D01*
X334Y1260D01*
X330Y1260D01*
X330Y1262D01*
X328Y1262D01*
X328Y1264D01*
X324Y1264D01*
X324Y1266D01*
X322Y1266D01*
X322Y1268D01*
X318Y1268D01*
X318Y1270D01*
X316Y1270D01*
X316Y1272D01*
X312Y1272D01*
X312Y1274D01*
X310Y1274D01*
X310Y1276D01*
X306Y1276D01*
X306Y1278D01*
X304Y1278D01*
X304Y1280D01*
X300Y1280D01*
X300Y1282D01*
X298Y1282D01*
X298Y1284D01*
X296Y1284D01*
X296Y1286D01*
X294Y1286D01*
X294Y1290D01*
X292Y1290D01*
X292Y1296D01*
X290Y1296D01*
X290Y1568D01*
X148Y1568D01*
G37*
D02*
G36*
X148Y1230D02*
X148Y1170D01*
X320Y1170D01*
X320Y1172D01*
X312Y1172D01*
X312Y1174D01*
X310Y1174D01*
X310Y1176D01*
X306Y1176D01*
X306Y1178D01*
X304Y1178D01*
X304Y1180D01*
X302Y1180D01*
X302Y1182D01*
X300Y1182D01*
X300Y1186D01*
X298Y1186D01*
X298Y1190D01*
X296Y1190D01*
X296Y1210D01*
X298Y1210D01*
X298Y1214D01*
X300Y1214D01*
X300Y1218D01*
X302Y1218D01*
X302Y1220D01*
X304Y1220D01*
X304Y1222D01*
X306Y1222D01*
X306Y1224D01*
X310Y1224D01*
X310Y1226D01*
X312Y1226D01*
X312Y1228D01*
X320Y1228D01*
X320Y1230D01*
X148Y1230D01*
G37*
D02*
G36*
X330Y1230D02*
X330Y1228D01*
X338Y1228D01*
X338Y1226D01*
X340Y1226D01*
X340Y1224D01*
X344Y1224D01*
X344Y1222D01*
X346Y1222D01*
X346Y1220D01*
X348Y1220D01*
X348Y1218D01*
X350Y1218D01*
X350Y1214D01*
X352Y1214D01*
X352Y1210D01*
X372Y1210D01*
X372Y1212D01*
X374Y1212D01*
X374Y1216D01*
X376Y1216D01*
X376Y1218D01*
X378Y1218D01*
X378Y1220D01*
X380Y1220D01*
X380Y1222D01*
X382Y1222D01*
X382Y1224D01*
X384Y1224D01*
X384Y1226D01*
X388Y1226D01*
X388Y1228D01*
X394Y1228D01*
X394Y1230D01*
X330Y1230D01*
G37*
D02*
G36*
X352Y1190D02*
X352Y1186D01*
X350Y1186D01*
X350Y1182D01*
X348Y1182D01*
X348Y1180D01*
X346Y1180D01*
X346Y1178D01*
X344Y1178D01*
X344Y1176D01*
X340Y1176D01*
X340Y1174D01*
X338Y1174D01*
X338Y1172D01*
X330Y1172D01*
X330Y1170D01*
X378Y1170D01*
X378Y1182D01*
X376Y1182D01*
X376Y1184D01*
X374Y1184D01*
X374Y1188D01*
X372Y1188D01*
X372Y1190D01*
X352Y1190D01*
G37*
D02*
G36*
X148Y1170D02*
X148Y1168D01*
X378Y1168D01*
X378Y1170D01*
X148Y1170D01*
G37*
D02*
G36*
X148Y1170D02*
X148Y1168D01*
X378Y1168D01*
X378Y1170D01*
X148Y1170D01*
G37*
D02*
G36*
X148Y1168D02*
X148Y670D01*
X334Y670D01*
X334Y668D01*
X340Y668D01*
X340Y666D01*
X346Y666D01*
X346Y664D01*
X348Y664D01*
X348Y662D01*
X352Y662D01*
X352Y660D01*
X354Y660D01*
X354Y658D01*
X356Y658D01*
X356Y656D01*
X358Y656D01*
X358Y654D01*
X360Y654D01*
X360Y652D01*
X362Y652D01*
X362Y650D01*
X364Y650D01*
X364Y646D01*
X384Y646D01*
X384Y644D01*
X388Y644D01*
X388Y642D01*
X392Y642D01*
X392Y640D01*
X396Y640D01*
X396Y638D01*
X400Y638D01*
X400Y636D01*
X404Y636D01*
X404Y634D01*
X408Y634D01*
X408Y632D01*
X412Y632D01*
X412Y630D01*
X416Y630D01*
X416Y628D01*
X420Y628D01*
X420Y626D01*
X424Y626D01*
X424Y624D01*
X428Y624D01*
X428Y622D01*
X432Y622D01*
X432Y620D01*
X436Y620D01*
X436Y618D01*
X440Y618D01*
X440Y616D01*
X444Y616D01*
X444Y614D01*
X450Y614D01*
X450Y612D01*
X454Y612D01*
X454Y610D01*
X458Y610D01*
X458Y608D01*
X482Y608D01*
X482Y610D01*
X484Y610D01*
X484Y612D01*
X488Y612D01*
X488Y614D01*
X492Y614D01*
X492Y616D01*
X494Y616D01*
X494Y636D01*
X490Y636D01*
X490Y638D01*
X486Y638D01*
X486Y640D01*
X484Y640D01*
X484Y642D01*
X482Y642D01*
X482Y644D01*
X480Y644D01*
X480Y646D01*
X478Y646D01*
X478Y648D01*
X476Y648D01*
X476Y652D01*
X474Y652D01*
X474Y654D01*
X472Y654D01*
X472Y658D01*
X470Y658D01*
X470Y664D01*
X468Y664D01*
X468Y686D01*
X470Y686D01*
X470Y692D01*
X472Y692D01*
X472Y696D01*
X474Y696D01*
X474Y700D01*
X476Y700D01*
X476Y702D01*
X478Y702D01*
X478Y706D01*
X480Y706D01*
X480Y708D01*
X482Y708D01*
X482Y710D01*
X484Y710D01*
X484Y712D01*
X488Y712D01*
X488Y714D01*
X492Y714D01*
X492Y716D01*
X494Y716D01*
X494Y736D01*
X490Y736D01*
X490Y738D01*
X486Y738D01*
X486Y740D01*
X484Y740D01*
X484Y742D01*
X482Y742D01*
X482Y744D01*
X480Y744D01*
X480Y746D01*
X478Y746D01*
X478Y748D01*
X476Y748D01*
X476Y752D01*
X474Y752D01*
X474Y754D01*
X472Y754D01*
X472Y758D01*
X470Y758D01*
X470Y764D01*
X468Y764D01*
X468Y786D01*
X470Y786D01*
X470Y792D01*
X472Y792D01*
X472Y796D01*
X474Y796D01*
X474Y800D01*
X476Y800D01*
X476Y802D01*
X478Y802D01*
X478Y806D01*
X480Y806D01*
X480Y808D01*
X482Y808D01*
X482Y810D01*
X484Y810D01*
X484Y812D01*
X488Y812D01*
X488Y814D01*
X492Y814D01*
X492Y816D01*
X494Y816D01*
X494Y836D01*
X490Y836D01*
X490Y838D01*
X486Y838D01*
X486Y840D01*
X484Y840D01*
X484Y842D01*
X482Y842D01*
X482Y844D01*
X480Y844D01*
X480Y846D01*
X478Y846D01*
X478Y848D01*
X476Y848D01*
X476Y852D01*
X474Y852D01*
X474Y854D01*
X472Y854D01*
X472Y858D01*
X470Y858D01*
X470Y864D01*
X468Y864D01*
X468Y886D01*
X470Y886D01*
X470Y892D01*
X472Y892D01*
X472Y896D01*
X474Y896D01*
X474Y900D01*
X476Y900D01*
X476Y902D01*
X478Y902D01*
X478Y906D01*
X480Y906D01*
X480Y908D01*
X482Y908D01*
X482Y910D01*
X484Y910D01*
X484Y912D01*
X488Y912D01*
X488Y914D01*
X492Y914D01*
X492Y916D01*
X494Y916D01*
X494Y936D01*
X490Y936D01*
X490Y938D01*
X486Y938D01*
X486Y940D01*
X484Y940D01*
X484Y942D01*
X482Y942D01*
X482Y944D01*
X480Y944D01*
X480Y946D01*
X478Y946D01*
X478Y948D01*
X476Y948D01*
X476Y952D01*
X420Y952D01*
X420Y954D01*
X414Y954D01*
X414Y956D01*
X412Y956D01*
X412Y958D01*
X410Y958D01*
X410Y960D01*
X408Y960D01*
X408Y962D01*
X406Y962D01*
X406Y964D01*
X404Y964D01*
X404Y966D01*
X402Y966D01*
X402Y968D01*
X400Y968D01*
X400Y970D01*
X398Y970D01*
X398Y972D01*
X396Y972D01*
X396Y974D01*
X394Y974D01*
X394Y976D01*
X392Y976D01*
X392Y978D01*
X390Y978D01*
X390Y980D01*
X388Y980D01*
X388Y982D01*
X386Y982D01*
X386Y984D01*
X384Y984D01*
X384Y986D01*
X382Y986D01*
X382Y988D01*
X380Y988D01*
X380Y992D01*
X378Y992D01*
X378Y1000D01*
X376Y1000D01*
X376Y1002D01*
X378Y1002D01*
X378Y1168D01*
X148Y1168D01*
G37*
D02*
G36*
X148Y670D02*
X148Y580D01*
X216Y580D01*
X216Y582D01*
X210Y582D01*
X210Y584D01*
X204Y584D01*
X204Y586D01*
X202Y586D01*
X202Y588D01*
X198Y588D01*
X198Y590D01*
X196Y590D01*
X196Y592D01*
X194Y592D01*
X194Y594D01*
X192Y594D01*
X192Y596D01*
X190Y596D01*
X190Y598D01*
X188Y598D01*
X188Y602D01*
X186Y602D01*
X186Y604D01*
X184Y604D01*
X184Y610D01*
X182Y610D01*
X182Y616D01*
X180Y616D01*
X180Y634D01*
X182Y634D01*
X182Y640D01*
X184Y640D01*
X184Y646D01*
X186Y646D01*
X186Y648D01*
X188Y648D01*
X188Y652D01*
X190Y652D01*
X190Y654D01*
X192Y654D01*
X192Y656D01*
X194Y656D01*
X194Y658D01*
X196Y658D01*
X196Y660D01*
X198Y660D01*
X198Y662D01*
X202Y662D01*
X202Y664D01*
X204Y664D01*
X204Y666D01*
X210Y666D01*
X210Y668D01*
X216Y668D01*
X216Y670D01*
X148Y670D01*
G37*
D02*
G36*
X234Y670D02*
X234Y668D01*
X240Y668D01*
X240Y666D01*
X246Y666D01*
X246Y664D01*
X248Y664D01*
X248Y662D01*
X252Y662D01*
X252Y660D01*
X254Y660D01*
X254Y658D01*
X256Y658D01*
X256Y656D01*
X258Y656D01*
X258Y654D01*
X260Y654D01*
X260Y652D01*
X262Y652D01*
X262Y648D01*
X264Y648D01*
X264Y646D01*
X266Y646D01*
X266Y644D01*
X286Y644D01*
X286Y648D01*
X288Y648D01*
X288Y652D01*
X290Y652D01*
X290Y654D01*
X292Y654D01*
X292Y656D01*
X294Y656D01*
X294Y658D01*
X296Y658D01*
X296Y660D01*
X298Y660D01*
X298Y662D01*
X302Y662D01*
X302Y664D01*
X306Y664D01*
X306Y666D01*
X310Y666D01*
X310Y668D01*
X316Y668D01*
X316Y670D01*
X234Y670D01*
G37*
D02*
G36*
X266Y606D02*
X266Y604D01*
X264Y604D01*
X264Y602D01*
X262Y602D01*
X262Y598D01*
X260Y598D01*
X260Y596D01*
X258Y596D01*
X258Y594D01*
X256Y594D01*
X256Y592D01*
X254Y592D01*
X254Y590D01*
X252Y590D01*
X252Y588D01*
X248Y588D01*
X248Y586D01*
X246Y586D01*
X246Y584D01*
X240Y584D01*
X240Y582D01*
X234Y582D01*
X234Y580D01*
X316Y580D01*
X316Y582D01*
X310Y582D01*
X310Y584D01*
X306Y584D01*
X306Y586D01*
X302Y586D01*
X302Y588D01*
X298Y588D01*
X298Y590D01*
X296Y590D01*
X296Y592D01*
X294Y592D01*
X294Y594D01*
X292Y594D01*
X292Y596D01*
X290Y596D01*
X290Y598D01*
X288Y598D01*
X288Y602D01*
X286Y602D01*
X286Y606D01*
X266Y606D01*
G37*
D02*
G36*
X360Y598D02*
X360Y596D01*
X358Y596D01*
X358Y594D01*
X356Y594D01*
X356Y592D01*
X354Y592D01*
X354Y590D01*
X352Y590D01*
X352Y588D01*
X348Y588D01*
X348Y586D01*
X346Y586D01*
X346Y584D01*
X340Y584D01*
X340Y582D01*
X334Y582D01*
X334Y580D01*
X414Y580D01*
X414Y582D01*
X410Y582D01*
X410Y584D01*
X406Y584D01*
X406Y586D01*
X402Y586D01*
X402Y588D01*
X398Y588D01*
X398Y590D01*
X394Y590D01*
X394Y592D01*
X390Y592D01*
X390Y594D01*
X386Y594D01*
X386Y596D01*
X382Y596D01*
X382Y598D01*
X360Y598D01*
G37*
D02*
G36*
X148Y580D02*
X148Y578D01*
X418Y578D01*
X418Y580D01*
X148Y580D01*
G37*
D02*
G36*
X148Y580D02*
X148Y578D01*
X418Y578D01*
X418Y580D01*
X148Y580D01*
G37*
D02*
G36*
X148Y580D02*
X148Y578D01*
X418Y578D01*
X418Y580D01*
X148Y580D01*
G37*
D02*
G36*
X148Y578D02*
X148Y470D01*
X334Y470D01*
X334Y468D01*
X340Y468D01*
X340Y466D01*
X346Y466D01*
X346Y464D01*
X348Y464D01*
X348Y462D01*
X352Y462D01*
X352Y460D01*
X354Y460D01*
X354Y458D01*
X356Y458D01*
X356Y456D01*
X358Y456D01*
X358Y454D01*
X360Y454D01*
X360Y452D01*
X382Y452D01*
X382Y454D01*
X386Y454D01*
X386Y456D01*
X390Y456D01*
X390Y458D01*
X394Y458D01*
X394Y460D01*
X398Y460D01*
X398Y462D01*
X402Y462D01*
X402Y464D01*
X406Y464D01*
X406Y466D01*
X410Y466D01*
X410Y468D01*
X414Y468D01*
X414Y470D01*
X418Y470D01*
X418Y472D01*
X422Y472D01*
X422Y474D01*
X426Y474D01*
X426Y476D01*
X430Y476D01*
X430Y478D01*
X434Y478D01*
X434Y480D01*
X438Y480D01*
X438Y482D01*
X442Y482D01*
X442Y484D01*
X446Y484D01*
X446Y486D01*
X450Y486D01*
X450Y488D01*
X454Y488D01*
X454Y490D01*
X458Y490D01*
X458Y492D01*
X462Y492D01*
X462Y494D01*
X466Y494D01*
X466Y496D01*
X474Y496D01*
X474Y500D01*
X476Y500D01*
X476Y502D01*
X478Y502D01*
X478Y506D01*
X480Y506D01*
X480Y508D01*
X482Y508D01*
X482Y510D01*
X484Y510D01*
X484Y512D01*
X488Y512D01*
X488Y514D01*
X492Y514D01*
X492Y516D01*
X494Y516D01*
X494Y536D01*
X490Y536D01*
X490Y538D01*
X486Y538D01*
X486Y540D01*
X484Y540D01*
X484Y542D01*
X482Y542D01*
X482Y544D01*
X480Y544D01*
X480Y546D01*
X478Y546D01*
X478Y548D01*
X476Y548D01*
X476Y552D01*
X474Y552D01*
X474Y554D01*
X468Y554D01*
X468Y556D01*
X464Y556D01*
X464Y558D01*
X460Y558D01*
X460Y560D01*
X456Y560D01*
X456Y562D01*
X450Y562D01*
X450Y564D01*
X446Y564D01*
X446Y566D01*
X442Y566D01*
X442Y568D01*
X438Y568D01*
X438Y570D01*
X434Y570D01*
X434Y572D01*
X430Y572D01*
X430Y574D01*
X426Y574D01*
X426Y576D01*
X422Y576D01*
X422Y578D01*
X148Y578D01*
G37*
D02*
G36*
X148Y470D02*
X148Y380D01*
X216Y380D01*
X216Y382D01*
X210Y382D01*
X210Y384D01*
X204Y384D01*
X204Y386D01*
X202Y386D01*
X202Y388D01*
X198Y388D01*
X198Y390D01*
X196Y390D01*
X196Y392D01*
X194Y392D01*
X194Y394D01*
X192Y394D01*
X192Y396D01*
X190Y396D01*
X190Y398D01*
X188Y398D01*
X188Y402D01*
X186Y402D01*
X186Y404D01*
X184Y404D01*
X184Y410D01*
X182Y410D01*
X182Y416D01*
X180Y416D01*
X180Y434D01*
X182Y434D01*
X182Y440D01*
X184Y440D01*
X184Y446D01*
X186Y446D01*
X186Y448D01*
X188Y448D01*
X188Y452D01*
X190Y452D01*
X190Y454D01*
X192Y454D01*
X192Y456D01*
X194Y456D01*
X194Y458D01*
X196Y458D01*
X196Y460D01*
X198Y460D01*
X198Y462D01*
X202Y462D01*
X202Y464D01*
X204Y464D01*
X204Y466D01*
X210Y466D01*
X210Y468D01*
X216Y468D01*
X216Y470D01*
X148Y470D01*
G37*
D02*
G36*
X234Y470D02*
X234Y468D01*
X240Y468D01*
X240Y466D01*
X246Y466D01*
X246Y464D01*
X248Y464D01*
X248Y462D01*
X252Y462D01*
X252Y460D01*
X254Y460D01*
X254Y458D01*
X256Y458D01*
X256Y456D01*
X258Y456D01*
X258Y454D01*
X260Y454D01*
X260Y452D01*
X262Y452D01*
X262Y448D01*
X264Y448D01*
X264Y446D01*
X266Y446D01*
X266Y444D01*
X286Y444D01*
X286Y448D01*
X288Y448D01*
X288Y452D01*
X290Y452D01*
X290Y454D01*
X292Y454D01*
X292Y456D01*
X294Y456D01*
X294Y458D01*
X296Y458D01*
X296Y460D01*
X298Y460D01*
X298Y462D01*
X302Y462D01*
X302Y464D01*
X306Y464D01*
X306Y466D01*
X310Y466D01*
X310Y468D01*
X316Y468D01*
X316Y470D01*
X234Y470D01*
G37*
D02*
G36*
X266Y406D02*
X266Y404D01*
X264Y404D01*
X264Y402D01*
X262Y402D01*
X262Y398D01*
X260Y398D01*
X260Y396D01*
X258Y396D01*
X258Y394D01*
X256Y394D01*
X256Y392D01*
X254Y392D01*
X254Y390D01*
X252Y390D01*
X252Y388D01*
X248Y388D01*
X248Y386D01*
X246Y386D01*
X246Y384D01*
X240Y384D01*
X240Y382D01*
X234Y382D01*
X234Y380D01*
X316Y380D01*
X316Y382D01*
X310Y382D01*
X310Y384D01*
X306Y384D01*
X306Y386D01*
X302Y386D01*
X302Y388D01*
X298Y388D01*
X298Y390D01*
X296Y390D01*
X296Y392D01*
X294Y392D01*
X294Y394D01*
X292Y394D01*
X292Y396D01*
X290Y396D01*
X290Y398D01*
X288Y398D01*
X288Y402D01*
X286Y402D01*
X286Y406D01*
X266Y406D01*
G37*
D02*
G36*
X148Y380D02*
X148Y378D01*
X344Y378D01*
X344Y380D01*
X148Y380D01*
G37*
D02*
G36*
X148Y380D02*
X148Y378D01*
X344Y378D01*
X344Y380D01*
X148Y380D01*
G37*
D02*
G36*
X148Y378D02*
X148Y358D01*
X150Y358D01*
X150Y356D01*
X152Y356D01*
X152Y354D01*
X154Y354D01*
X154Y352D01*
X156Y352D01*
X156Y350D01*
X158Y350D01*
X158Y346D01*
X278Y346D01*
X278Y348D01*
X320Y348D01*
X320Y350D01*
X324Y350D01*
X324Y352D01*
X326Y352D01*
X326Y354D01*
X330Y354D01*
X330Y356D01*
X332Y356D01*
X332Y358D01*
X336Y358D01*
X336Y360D01*
X338Y360D01*
X338Y362D01*
X342Y362D01*
X342Y364D01*
X344Y364D01*
X344Y378D01*
X148Y378D01*
G37*
D02*
G36*
X606Y2020D02*
X606Y2016D01*
X604Y2016D01*
X604Y2010D01*
X602Y2010D01*
X602Y2006D01*
X600Y2006D01*
X600Y2000D01*
X598Y2000D01*
X598Y1996D01*
X596Y1996D01*
X596Y1896D01*
X640Y1896D01*
X640Y1898D01*
X636Y1898D01*
X636Y1900D01*
X632Y1900D01*
X632Y1902D01*
X630Y1902D01*
X630Y1904D01*
X628Y1904D01*
X628Y1906D01*
X626Y1906D01*
X626Y1910D01*
X624Y1910D01*
X624Y1912D01*
X622Y1912D01*
X622Y1920D01*
X620Y1920D01*
X620Y1930D01*
X622Y1930D01*
X622Y1938D01*
X624Y1938D01*
X624Y1940D01*
X626Y1940D01*
X626Y1944D01*
X628Y1944D01*
X628Y2020D01*
X606Y2020D01*
G37*
D02*
G36*
X670Y1904D02*
X670Y1902D01*
X668Y1902D01*
X668Y1900D01*
X664Y1900D01*
X664Y1898D01*
X660Y1898D01*
X660Y1896D01*
X690Y1896D01*
X690Y1904D01*
X670Y1904D01*
G37*
D02*
G36*
X596Y1896D02*
X596Y1894D01*
X690Y1894D01*
X690Y1896D01*
X596Y1896D01*
G37*
D02*
G36*
X596Y1896D02*
X596Y1894D01*
X690Y1894D01*
X690Y1896D01*
X596Y1896D01*
G37*
D02*
G36*
X596Y1894D02*
X596Y1860D01*
X598Y1860D01*
X598Y1858D01*
X600Y1858D01*
X600Y1856D01*
X602Y1856D01*
X602Y1854D01*
X604Y1854D01*
X604Y1852D01*
X606Y1852D01*
X606Y1850D01*
X608Y1850D01*
X608Y1848D01*
X610Y1848D01*
X610Y1846D01*
X612Y1846D01*
X612Y1844D01*
X614Y1844D01*
X614Y1842D01*
X616Y1842D01*
X616Y1840D01*
X618Y1840D01*
X618Y1838D01*
X620Y1838D01*
X620Y1836D01*
X622Y1836D01*
X622Y1834D01*
X624Y1834D01*
X624Y1832D01*
X626Y1832D01*
X626Y1830D01*
X628Y1830D01*
X628Y1828D01*
X630Y1828D01*
X630Y1826D01*
X632Y1826D01*
X632Y1824D01*
X634Y1824D01*
X634Y1822D01*
X636Y1822D01*
X636Y1820D01*
X638Y1820D01*
X638Y1818D01*
X640Y1818D01*
X640Y1816D01*
X642Y1816D01*
X642Y1814D01*
X644Y1814D01*
X644Y1812D01*
X646Y1812D01*
X646Y1810D01*
X648Y1810D01*
X648Y1808D01*
X650Y1808D01*
X650Y1806D01*
X652Y1806D01*
X652Y1804D01*
X654Y1804D01*
X654Y1802D01*
X656Y1802D01*
X656Y1800D01*
X658Y1800D01*
X658Y1798D01*
X660Y1798D01*
X660Y1796D01*
X662Y1796D01*
X662Y1794D01*
X664Y1794D01*
X664Y1792D01*
X666Y1792D01*
X666Y1788D01*
X668Y1788D01*
X668Y1786D01*
X670Y1786D01*
X670Y1780D01*
X690Y1780D01*
X690Y1894D01*
X596Y1894D01*
G37*
D02*
G36*
X534Y1848D02*
X534Y1798D01*
X576Y1798D01*
X576Y1818D01*
X574Y1818D01*
X574Y1820D01*
X572Y1820D01*
X572Y1822D01*
X570Y1822D01*
X570Y1824D01*
X568Y1824D01*
X568Y1826D01*
X566Y1826D01*
X566Y1828D01*
X564Y1828D01*
X564Y1830D01*
X562Y1830D01*
X562Y1832D01*
X560Y1832D01*
X560Y1834D01*
X558Y1834D01*
X558Y1838D01*
X556Y1838D01*
X556Y1840D01*
X554Y1840D01*
X554Y1848D01*
X534Y1848D01*
G37*
D02*
G36*
X608Y1178D02*
X608Y1176D01*
X606Y1176D01*
X606Y1174D01*
X604Y1174D01*
X604Y1172D01*
X602Y1172D01*
X602Y1170D01*
X600Y1170D01*
X600Y1168D01*
X598Y1168D01*
X598Y1166D01*
X596Y1166D01*
X596Y1164D01*
X594Y1164D01*
X594Y1162D01*
X592Y1162D01*
X592Y1160D01*
X590Y1160D01*
X590Y1158D01*
X586Y1158D01*
X586Y1156D01*
X582Y1156D01*
X582Y1154D01*
X552Y1154D01*
X552Y1152D01*
X550Y1152D01*
X550Y1150D01*
X548Y1150D01*
X548Y1148D01*
X546Y1148D01*
X546Y1144D01*
X544Y1144D01*
X544Y1142D01*
X540Y1142D01*
X540Y1140D01*
X538Y1140D01*
X538Y1138D01*
X536Y1138D01*
X536Y1136D01*
X532Y1136D01*
X532Y1120D01*
X644Y1120D01*
X644Y1122D01*
X638Y1122D01*
X638Y1124D01*
X634Y1124D01*
X634Y1126D01*
X632Y1126D01*
X632Y1128D01*
X630Y1128D01*
X630Y1130D01*
X628Y1130D01*
X628Y1132D01*
X626Y1132D01*
X626Y1134D01*
X624Y1134D01*
X624Y1138D01*
X622Y1138D01*
X622Y1144D01*
X620Y1144D01*
X620Y1156D01*
X622Y1156D01*
X622Y1162D01*
X624Y1162D01*
X624Y1166D01*
X626Y1166D01*
X626Y1168D01*
X628Y1168D01*
X628Y1178D01*
X608Y1178D01*
G37*
D02*
G36*
X670Y1130D02*
X670Y1128D01*
X668Y1128D01*
X668Y1126D01*
X666Y1126D01*
X666Y1124D01*
X662Y1124D01*
X662Y1122D01*
X656Y1122D01*
X656Y1120D01*
X690Y1120D01*
X690Y1130D01*
X670Y1130D01*
G37*
D02*
G36*
X532Y1120D02*
X532Y1118D01*
X690Y1118D01*
X690Y1120D01*
X532Y1120D01*
G37*
D02*
G36*
X532Y1120D02*
X532Y1118D01*
X690Y1118D01*
X690Y1120D01*
X532Y1120D01*
G37*
D02*
G36*
X532Y1118D02*
X532Y1116D01*
X534Y1116D01*
X534Y1114D01*
X538Y1114D01*
X538Y1112D01*
X540Y1112D01*
X540Y1110D01*
X542Y1110D01*
X542Y1108D01*
X544Y1108D01*
X544Y1106D01*
X546Y1106D01*
X546Y1104D01*
X548Y1104D01*
X548Y1102D01*
X550Y1102D01*
X550Y1098D01*
X670Y1098D01*
X670Y1100D01*
X674Y1100D01*
X674Y1102D01*
X676Y1102D01*
X676Y1104D01*
X680Y1104D01*
X680Y1106D01*
X682Y1106D01*
X682Y1108D01*
X686Y1108D01*
X686Y1110D01*
X690Y1110D01*
X690Y1118D01*
X532Y1118D01*
G37*
D02*
G36*
X126Y2460D02*
X126Y2436D01*
X128Y2436D01*
X128Y2414D01*
X126Y2414D01*
X126Y2408D01*
X124Y2408D01*
X124Y2402D01*
X122Y2402D01*
X122Y2398D01*
X120Y2398D01*
X120Y2396D01*
X118Y2396D01*
X118Y2392D01*
X116Y2392D01*
X116Y2390D01*
X114Y2390D01*
X114Y2388D01*
X112Y2388D01*
X112Y2386D01*
X110Y2386D01*
X110Y2384D01*
X108Y2384D01*
X108Y2382D01*
X104Y2382D01*
X104Y2380D01*
X102Y2380D01*
X102Y2378D01*
X98Y2378D01*
X98Y2376D01*
X92Y2376D01*
X92Y2374D01*
X86Y2374D01*
X86Y2372D01*
X1538Y2372D01*
X1538Y2374D01*
X1532Y2374D01*
X1532Y2376D01*
X1528Y2376D01*
X1528Y2378D01*
X1524Y2378D01*
X1524Y2380D01*
X1520Y2380D01*
X1520Y2382D01*
X1518Y2382D01*
X1518Y2384D01*
X1516Y2384D01*
X1516Y2386D01*
X1512Y2386D01*
X1512Y2388D01*
X1510Y2388D01*
X1510Y2392D01*
X1508Y2392D01*
X1508Y2394D01*
X1506Y2394D01*
X1506Y2396D01*
X1504Y2396D01*
X1504Y2400D01*
X1502Y2400D01*
X1502Y2404D01*
X1500Y2404D01*
X1500Y2410D01*
X1498Y2410D01*
X1498Y2420D01*
X1496Y2420D01*
X1496Y2430D01*
X1498Y2430D01*
X1498Y2440D01*
X1500Y2440D01*
X1500Y2460D01*
X126Y2460D01*
G37*
D02*
G36*
X40Y2374D02*
X40Y2372D01*
X64Y2372D01*
X64Y2374D01*
X40Y2374D01*
G37*
D02*
G36*
X1562Y2374D02*
X1562Y2372D01*
X1584Y2372D01*
X1584Y2374D01*
X1562Y2374D01*
G37*
D02*
G36*
X40Y2372D02*
X40Y2370D01*
X1584Y2370D01*
X1584Y2372D01*
X40Y2372D01*
G37*
D02*
G36*
X40Y2372D02*
X40Y2370D01*
X1584Y2370D01*
X1584Y2372D01*
X40Y2372D01*
G37*
D02*
G36*
X40Y2372D02*
X40Y2370D01*
X1584Y2370D01*
X1584Y2372D01*
X40Y2372D01*
G37*
D02*
G36*
X40Y2370D02*
X40Y2236D01*
X1426Y2236D01*
X1426Y2234D01*
X1432Y2234D01*
X1432Y2232D01*
X1434Y2232D01*
X1434Y2230D01*
X1438Y2230D01*
X1438Y2228D01*
X1442Y2228D01*
X1442Y2226D01*
X1444Y2226D01*
X1444Y2224D01*
X1446Y2224D01*
X1446Y2222D01*
X1448Y2222D01*
X1448Y2220D01*
X1450Y2220D01*
X1450Y2216D01*
X1452Y2216D01*
X1452Y2214D01*
X1454Y2214D01*
X1454Y2210D01*
X1456Y2210D01*
X1456Y2204D01*
X1458Y2204D01*
X1458Y2196D01*
X1460Y2196D01*
X1460Y2184D01*
X1458Y2184D01*
X1458Y2176D01*
X1456Y2176D01*
X1456Y2170D01*
X1454Y2170D01*
X1454Y2166D01*
X1452Y2166D01*
X1452Y2164D01*
X1450Y2164D01*
X1450Y2160D01*
X1448Y2160D01*
X1448Y2158D01*
X1446Y2158D01*
X1446Y2156D01*
X1444Y2156D01*
X1444Y2154D01*
X1442Y2154D01*
X1442Y2152D01*
X1438Y2152D01*
X1438Y2150D01*
X1434Y2150D01*
X1434Y2130D01*
X1438Y2130D01*
X1438Y2128D01*
X1442Y2128D01*
X1442Y2126D01*
X1444Y2126D01*
X1444Y2124D01*
X1446Y2124D01*
X1446Y2122D01*
X1448Y2122D01*
X1448Y2120D01*
X1450Y2120D01*
X1450Y2116D01*
X1452Y2116D01*
X1452Y2114D01*
X1454Y2114D01*
X1454Y2110D01*
X1456Y2110D01*
X1456Y2104D01*
X1458Y2104D01*
X1458Y2096D01*
X1460Y2096D01*
X1460Y2084D01*
X1458Y2084D01*
X1458Y2076D01*
X1456Y2076D01*
X1456Y2070D01*
X1454Y2070D01*
X1454Y2066D01*
X1452Y2066D01*
X1452Y2064D01*
X1450Y2064D01*
X1450Y2060D01*
X1448Y2060D01*
X1448Y2058D01*
X1446Y2058D01*
X1446Y2056D01*
X1444Y2056D01*
X1444Y2054D01*
X1442Y2054D01*
X1442Y2052D01*
X1438Y2052D01*
X1438Y2050D01*
X1434Y2050D01*
X1434Y1818D01*
X1432Y1818D01*
X1432Y1814D01*
X1430Y1814D01*
X1430Y1812D01*
X1428Y1812D01*
X1428Y1810D01*
X1426Y1810D01*
X1426Y1808D01*
X1424Y1808D01*
X1424Y1806D01*
X1422Y1806D01*
X1422Y1804D01*
X1418Y1804D01*
X1418Y1802D01*
X1416Y1802D01*
X1416Y1800D01*
X1412Y1800D01*
X1412Y1798D01*
X1410Y1798D01*
X1410Y1796D01*
X1408Y1796D01*
X1408Y1794D01*
X1404Y1794D01*
X1404Y1792D01*
X1402Y1792D01*
X1402Y1790D01*
X1398Y1790D01*
X1398Y1788D01*
X1396Y1788D01*
X1396Y1786D01*
X1394Y1786D01*
X1394Y1784D01*
X1390Y1784D01*
X1390Y1782D01*
X1388Y1782D01*
X1388Y1780D01*
X1384Y1780D01*
X1384Y1778D01*
X1060Y1778D01*
X1060Y1776D01*
X1058Y1776D01*
X1058Y1774D01*
X1056Y1774D01*
X1056Y1772D01*
X1054Y1772D01*
X1054Y1770D01*
X1052Y1770D01*
X1052Y1768D01*
X1050Y1768D01*
X1050Y1766D01*
X1048Y1766D01*
X1048Y1726D01*
X1552Y1726D01*
X1552Y1624D01*
X1584Y1624D01*
X1584Y2370D01*
X40Y2370D01*
G37*
D02*
G36*
X40Y2236D02*
X40Y302D01*
X146Y302D01*
X146Y304D01*
X140Y304D01*
X140Y306D01*
X136Y306D01*
X136Y308D01*
X134Y308D01*
X134Y310D01*
X132Y310D01*
X132Y312D01*
X130Y312D01*
X130Y314D01*
X128Y314D01*
X128Y316D01*
X126Y316D01*
X126Y318D01*
X124Y318D01*
X124Y320D01*
X122Y320D01*
X122Y324D01*
X120Y324D01*
X120Y326D01*
X118Y326D01*
X118Y328D01*
X116Y328D01*
X116Y330D01*
X114Y330D01*
X114Y332D01*
X112Y332D01*
X112Y334D01*
X110Y334D01*
X110Y336D01*
X108Y336D01*
X108Y338D01*
X106Y338D01*
X106Y342D01*
X104Y342D01*
X104Y2158D01*
X106Y2158D01*
X106Y2162D01*
X108Y2162D01*
X108Y2164D01*
X110Y2164D01*
X110Y2168D01*
X112Y2168D01*
X112Y2172D01*
X114Y2172D01*
X114Y2174D01*
X116Y2174D01*
X116Y2178D01*
X118Y2178D01*
X118Y2182D01*
X120Y2182D01*
X120Y2184D01*
X122Y2184D01*
X122Y2188D01*
X124Y2188D01*
X124Y2192D01*
X126Y2192D01*
X126Y2194D01*
X128Y2194D01*
X128Y2198D01*
X130Y2198D01*
X130Y2202D01*
X132Y2202D01*
X132Y2204D01*
X134Y2204D01*
X134Y2206D01*
X136Y2206D01*
X136Y2208D01*
X138Y2208D01*
X138Y2210D01*
X144Y2210D01*
X144Y2212D01*
X172Y2212D01*
X172Y2216D01*
X174Y2216D01*
X174Y2218D01*
X176Y2218D01*
X176Y2220D01*
X178Y2220D01*
X178Y2222D01*
X180Y2222D01*
X180Y2224D01*
X182Y2224D01*
X182Y2226D01*
X184Y2226D01*
X184Y2228D01*
X186Y2228D01*
X186Y2230D01*
X190Y2230D01*
X190Y2232D01*
X194Y2232D01*
X194Y2234D01*
X200Y2234D01*
X200Y2236D01*
X40Y2236D01*
G37*
D02*
G36*
X226Y2236D02*
X226Y2234D01*
X232Y2234D01*
X232Y2232D01*
X234Y2232D01*
X234Y2230D01*
X238Y2230D01*
X238Y2228D01*
X242Y2228D01*
X242Y2226D01*
X244Y2226D01*
X244Y2224D01*
X246Y2224D01*
X246Y2222D01*
X248Y2222D01*
X248Y2220D01*
X250Y2220D01*
X250Y2216D01*
X252Y2216D01*
X252Y2214D01*
X272Y2214D01*
X272Y2216D01*
X274Y2216D01*
X274Y2218D01*
X276Y2218D01*
X276Y2220D01*
X278Y2220D01*
X278Y2222D01*
X280Y2222D01*
X280Y2224D01*
X282Y2224D01*
X282Y2226D01*
X284Y2226D01*
X284Y2228D01*
X286Y2228D01*
X286Y2230D01*
X290Y2230D01*
X290Y2232D01*
X294Y2232D01*
X294Y2234D01*
X300Y2234D01*
X300Y2236D01*
X226Y2236D01*
G37*
D02*
G36*
X326Y2236D02*
X326Y2234D01*
X332Y2234D01*
X332Y2232D01*
X334Y2232D01*
X334Y2230D01*
X338Y2230D01*
X338Y2228D01*
X342Y2228D01*
X342Y2226D01*
X344Y2226D01*
X344Y2224D01*
X346Y2224D01*
X346Y2222D01*
X348Y2222D01*
X348Y2220D01*
X350Y2220D01*
X350Y2216D01*
X352Y2216D01*
X352Y2214D01*
X372Y2214D01*
X372Y2216D01*
X374Y2216D01*
X374Y2218D01*
X376Y2218D01*
X376Y2220D01*
X378Y2220D01*
X378Y2222D01*
X380Y2222D01*
X380Y2224D01*
X382Y2224D01*
X382Y2226D01*
X384Y2226D01*
X384Y2228D01*
X386Y2228D01*
X386Y2230D01*
X390Y2230D01*
X390Y2232D01*
X394Y2232D01*
X394Y2234D01*
X400Y2234D01*
X400Y2236D01*
X326Y2236D01*
G37*
D02*
G36*
X426Y2236D02*
X426Y2234D01*
X432Y2234D01*
X432Y2232D01*
X434Y2232D01*
X434Y2230D01*
X438Y2230D01*
X438Y2228D01*
X442Y2228D01*
X442Y2226D01*
X444Y2226D01*
X444Y2224D01*
X446Y2224D01*
X446Y2222D01*
X448Y2222D01*
X448Y2220D01*
X450Y2220D01*
X450Y2216D01*
X452Y2216D01*
X452Y2214D01*
X472Y2214D01*
X472Y2216D01*
X474Y2216D01*
X474Y2218D01*
X476Y2218D01*
X476Y2220D01*
X478Y2220D01*
X478Y2222D01*
X480Y2222D01*
X480Y2224D01*
X482Y2224D01*
X482Y2226D01*
X484Y2226D01*
X484Y2228D01*
X486Y2228D01*
X486Y2230D01*
X490Y2230D01*
X490Y2232D01*
X494Y2232D01*
X494Y2234D01*
X500Y2234D01*
X500Y2236D01*
X426Y2236D01*
G37*
D02*
G36*
X526Y2236D02*
X526Y2234D01*
X532Y2234D01*
X532Y2232D01*
X534Y2232D01*
X534Y2230D01*
X538Y2230D01*
X538Y2228D01*
X542Y2228D01*
X542Y2226D01*
X544Y2226D01*
X544Y2224D01*
X546Y2224D01*
X546Y2222D01*
X548Y2222D01*
X548Y2220D01*
X550Y2220D01*
X550Y2216D01*
X552Y2216D01*
X552Y2214D01*
X572Y2214D01*
X572Y2216D01*
X574Y2216D01*
X574Y2218D01*
X576Y2218D01*
X576Y2220D01*
X578Y2220D01*
X578Y2222D01*
X580Y2222D01*
X580Y2224D01*
X582Y2224D01*
X582Y2226D01*
X584Y2226D01*
X584Y2228D01*
X586Y2228D01*
X586Y2230D01*
X590Y2230D01*
X590Y2232D01*
X594Y2232D01*
X594Y2234D01*
X600Y2234D01*
X600Y2236D01*
X526Y2236D01*
G37*
D02*
G36*
X626Y2236D02*
X626Y2234D01*
X632Y2234D01*
X632Y2232D01*
X634Y2232D01*
X634Y2230D01*
X638Y2230D01*
X638Y2228D01*
X642Y2228D01*
X642Y2226D01*
X644Y2226D01*
X644Y2224D01*
X646Y2224D01*
X646Y2222D01*
X648Y2222D01*
X648Y2220D01*
X650Y2220D01*
X650Y2216D01*
X652Y2216D01*
X652Y2214D01*
X672Y2214D01*
X672Y2216D01*
X674Y2216D01*
X674Y2218D01*
X676Y2218D01*
X676Y2220D01*
X678Y2220D01*
X678Y2222D01*
X680Y2222D01*
X680Y2224D01*
X682Y2224D01*
X682Y2226D01*
X684Y2226D01*
X684Y2228D01*
X686Y2228D01*
X686Y2230D01*
X690Y2230D01*
X690Y2232D01*
X694Y2232D01*
X694Y2234D01*
X700Y2234D01*
X700Y2236D01*
X626Y2236D01*
G37*
D02*
G36*
X726Y2236D02*
X726Y2234D01*
X732Y2234D01*
X732Y2232D01*
X734Y2232D01*
X734Y2230D01*
X738Y2230D01*
X738Y2228D01*
X742Y2228D01*
X742Y2226D01*
X744Y2226D01*
X744Y2224D01*
X746Y2224D01*
X746Y2222D01*
X748Y2222D01*
X748Y2220D01*
X750Y2220D01*
X750Y2216D01*
X752Y2216D01*
X752Y2214D01*
X772Y2214D01*
X772Y2216D01*
X774Y2216D01*
X774Y2218D01*
X776Y2218D01*
X776Y2220D01*
X778Y2220D01*
X778Y2222D01*
X780Y2222D01*
X780Y2224D01*
X782Y2224D01*
X782Y2226D01*
X784Y2226D01*
X784Y2228D01*
X786Y2228D01*
X786Y2230D01*
X790Y2230D01*
X790Y2232D01*
X794Y2232D01*
X794Y2234D01*
X800Y2234D01*
X800Y2236D01*
X726Y2236D01*
G37*
D02*
G36*
X826Y2236D02*
X826Y2234D01*
X832Y2234D01*
X832Y2232D01*
X834Y2232D01*
X834Y2230D01*
X838Y2230D01*
X838Y2228D01*
X842Y2228D01*
X842Y2226D01*
X844Y2226D01*
X844Y2224D01*
X846Y2224D01*
X846Y2222D01*
X848Y2222D01*
X848Y2220D01*
X850Y2220D01*
X850Y2216D01*
X852Y2216D01*
X852Y2214D01*
X872Y2214D01*
X872Y2216D01*
X874Y2216D01*
X874Y2218D01*
X876Y2218D01*
X876Y2220D01*
X878Y2220D01*
X878Y2222D01*
X880Y2222D01*
X880Y2224D01*
X882Y2224D01*
X882Y2226D01*
X884Y2226D01*
X884Y2228D01*
X886Y2228D01*
X886Y2230D01*
X890Y2230D01*
X890Y2232D01*
X894Y2232D01*
X894Y2234D01*
X900Y2234D01*
X900Y2236D01*
X826Y2236D01*
G37*
D02*
G36*
X926Y2236D02*
X926Y2234D01*
X932Y2234D01*
X932Y2232D01*
X934Y2232D01*
X934Y2230D01*
X938Y2230D01*
X938Y2228D01*
X942Y2228D01*
X942Y2226D01*
X944Y2226D01*
X944Y2224D01*
X946Y2224D01*
X946Y2222D01*
X948Y2222D01*
X948Y2220D01*
X950Y2220D01*
X950Y2216D01*
X952Y2216D01*
X952Y2214D01*
X972Y2214D01*
X972Y2216D01*
X974Y2216D01*
X974Y2218D01*
X976Y2218D01*
X976Y2220D01*
X978Y2220D01*
X978Y2222D01*
X980Y2222D01*
X980Y2224D01*
X982Y2224D01*
X982Y2226D01*
X984Y2226D01*
X984Y2228D01*
X986Y2228D01*
X986Y2230D01*
X990Y2230D01*
X990Y2232D01*
X994Y2232D01*
X994Y2234D01*
X1000Y2234D01*
X1000Y2236D01*
X926Y2236D01*
G37*
D02*
G36*
X1026Y2236D02*
X1026Y2234D01*
X1032Y2234D01*
X1032Y2232D01*
X1034Y2232D01*
X1034Y2230D01*
X1038Y2230D01*
X1038Y2228D01*
X1042Y2228D01*
X1042Y2226D01*
X1044Y2226D01*
X1044Y2224D01*
X1046Y2224D01*
X1046Y2222D01*
X1048Y2222D01*
X1048Y2220D01*
X1050Y2220D01*
X1050Y2216D01*
X1052Y2216D01*
X1052Y2214D01*
X1072Y2214D01*
X1072Y2216D01*
X1074Y2216D01*
X1074Y2218D01*
X1076Y2218D01*
X1076Y2220D01*
X1078Y2220D01*
X1078Y2222D01*
X1080Y2222D01*
X1080Y2224D01*
X1082Y2224D01*
X1082Y2226D01*
X1084Y2226D01*
X1084Y2228D01*
X1086Y2228D01*
X1086Y2230D01*
X1090Y2230D01*
X1090Y2232D01*
X1094Y2232D01*
X1094Y2234D01*
X1100Y2234D01*
X1100Y2236D01*
X1026Y2236D01*
G37*
D02*
G36*
X1126Y2236D02*
X1126Y2234D01*
X1132Y2234D01*
X1132Y2232D01*
X1134Y2232D01*
X1134Y2230D01*
X1138Y2230D01*
X1138Y2228D01*
X1142Y2228D01*
X1142Y2226D01*
X1144Y2226D01*
X1144Y2224D01*
X1146Y2224D01*
X1146Y2222D01*
X1148Y2222D01*
X1148Y2220D01*
X1150Y2220D01*
X1150Y2216D01*
X1152Y2216D01*
X1152Y2214D01*
X1172Y2214D01*
X1172Y2216D01*
X1174Y2216D01*
X1174Y2218D01*
X1176Y2218D01*
X1176Y2220D01*
X1178Y2220D01*
X1178Y2222D01*
X1180Y2222D01*
X1180Y2224D01*
X1182Y2224D01*
X1182Y2226D01*
X1184Y2226D01*
X1184Y2228D01*
X1186Y2228D01*
X1186Y2230D01*
X1190Y2230D01*
X1190Y2232D01*
X1194Y2232D01*
X1194Y2234D01*
X1200Y2234D01*
X1200Y2236D01*
X1126Y2236D01*
G37*
D02*
G36*
X1226Y2236D02*
X1226Y2234D01*
X1232Y2234D01*
X1232Y2232D01*
X1234Y2232D01*
X1234Y2230D01*
X1238Y2230D01*
X1238Y2228D01*
X1242Y2228D01*
X1242Y2226D01*
X1244Y2226D01*
X1244Y2224D01*
X1246Y2224D01*
X1246Y2222D01*
X1248Y2222D01*
X1248Y2220D01*
X1250Y2220D01*
X1250Y2216D01*
X1252Y2216D01*
X1252Y2214D01*
X1272Y2214D01*
X1272Y2216D01*
X1274Y2216D01*
X1274Y2218D01*
X1276Y2218D01*
X1276Y2220D01*
X1278Y2220D01*
X1278Y2222D01*
X1280Y2222D01*
X1280Y2224D01*
X1282Y2224D01*
X1282Y2226D01*
X1284Y2226D01*
X1284Y2228D01*
X1286Y2228D01*
X1286Y2230D01*
X1290Y2230D01*
X1290Y2232D01*
X1294Y2232D01*
X1294Y2234D01*
X1300Y2234D01*
X1300Y2236D01*
X1226Y2236D01*
G37*
D02*
G36*
X1326Y2236D02*
X1326Y2234D01*
X1332Y2234D01*
X1332Y2232D01*
X1334Y2232D01*
X1334Y2230D01*
X1338Y2230D01*
X1338Y2228D01*
X1342Y2228D01*
X1342Y2226D01*
X1344Y2226D01*
X1344Y2224D01*
X1346Y2224D01*
X1346Y2222D01*
X1348Y2222D01*
X1348Y2220D01*
X1350Y2220D01*
X1350Y2216D01*
X1352Y2216D01*
X1352Y2214D01*
X1372Y2214D01*
X1372Y2216D01*
X1374Y2216D01*
X1374Y2218D01*
X1376Y2218D01*
X1376Y2220D01*
X1378Y2220D01*
X1378Y2222D01*
X1380Y2222D01*
X1380Y2224D01*
X1382Y2224D01*
X1382Y2226D01*
X1384Y2226D01*
X1384Y2228D01*
X1386Y2228D01*
X1386Y2230D01*
X1390Y2230D01*
X1390Y2232D01*
X1394Y2232D01*
X1394Y2234D01*
X1400Y2234D01*
X1400Y2236D01*
X1326Y2236D01*
G37*
D02*
G36*
X1352Y2066D02*
X1352Y2064D01*
X1350Y2064D01*
X1350Y2060D01*
X1348Y2060D01*
X1348Y2058D01*
X1346Y2058D01*
X1346Y2056D01*
X1344Y2056D01*
X1344Y2054D01*
X1342Y2054D01*
X1342Y2052D01*
X1338Y2052D01*
X1338Y2050D01*
X1334Y2050D01*
X1334Y1892D01*
X1332Y1892D01*
X1332Y1888D01*
X1330Y1888D01*
X1330Y1886D01*
X1328Y1886D01*
X1328Y1884D01*
X1326Y1884D01*
X1326Y1882D01*
X1324Y1882D01*
X1324Y1880D01*
X1320Y1880D01*
X1320Y1878D01*
X1318Y1878D01*
X1318Y1876D01*
X1314Y1876D01*
X1314Y1874D01*
X1312Y1874D01*
X1312Y1872D01*
X1308Y1872D01*
X1308Y1870D01*
X1306Y1870D01*
X1306Y1868D01*
X1302Y1868D01*
X1302Y1866D01*
X1300Y1866D01*
X1300Y1864D01*
X1296Y1864D01*
X1296Y1862D01*
X1294Y1862D01*
X1294Y1860D01*
X1290Y1860D01*
X1290Y1858D01*
X1286Y1858D01*
X1286Y1856D01*
X1284Y1856D01*
X1284Y1854D01*
X1010Y1854D01*
X1010Y1852D01*
X1008Y1852D01*
X1008Y1850D01*
X1006Y1850D01*
X1006Y1848D01*
X1004Y1848D01*
X1004Y1846D01*
X1002Y1846D01*
X1002Y1844D01*
X1000Y1844D01*
X1000Y1842D01*
X998Y1842D01*
X998Y1840D01*
X996Y1840D01*
X996Y1838D01*
X994Y1838D01*
X994Y1836D01*
X992Y1836D01*
X992Y1834D01*
X990Y1834D01*
X990Y1832D01*
X988Y1832D01*
X988Y1830D01*
X986Y1830D01*
X986Y1828D01*
X984Y1828D01*
X984Y1826D01*
X982Y1826D01*
X982Y1824D01*
X980Y1824D01*
X980Y1822D01*
X978Y1822D01*
X978Y1820D01*
X976Y1820D01*
X976Y1818D01*
X974Y1818D01*
X974Y1816D01*
X972Y1816D01*
X972Y194D01*
X970Y194D01*
X970Y190D01*
X968Y190D01*
X968Y186D01*
X966Y186D01*
X966Y184D01*
X964Y184D01*
X964Y182D01*
X962Y182D01*
X962Y180D01*
X960Y180D01*
X960Y178D01*
X958Y178D01*
X958Y176D01*
X956Y176D01*
X956Y174D01*
X954Y174D01*
X954Y172D01*
X952Y172D01*
X952Y170D01*
X950Y170D01*
X950Y168D01*
X948Y168D01*
X948Y166D01*
X946Y166D01*
X946Y164D01*
X944Y164D01*
X944Y162D01*
X942Y162D01*
X942Y160D01*
X940Y160D01*
X940Y158D01*
X938Y158D01*
X938Y156D01*
X934Y156D01*
X934Y154D01*
X1004Y154D01*
X1004Y156D01*
X1002Y156D01*
X1002Y158D01*
X1000Y158D01*
X1000Y162D01*
X998Y162D01*
X998Y166D01*
X996Y166D01*
X996Y184D01*
X998Y184D01*
X998Y188D01*
X1000Y188D01*
X1000Y192D01*
X1002Y192D01*
X1002Y194D01*
X1004Y194D01*
X1004Y856D01*
X1006Y856D01*
X1006Y860D01*
X1008Y860D01*
X1008Y864D01*
X1010Y864D01*
X1010Y866D01*
X1012Y866D01*
X1012Y868D01*
X1014Y868D01*
X1014Y870D01*
X1016Y870D01*
X1016Y872D01*
X1018Y872D01*
X1018Y874D01*
X1020Y874D01*
X1020Y876D01*
X1022Y876D01*
X1022Y878D01*
X1024Y878D01*
X1024Y880D01*
X1026Y880D01*
X1026Y884D01*
X1028Y884D01*
X1028Y886D01*
X1030Y886D01*
X1030Y888D01*
X1032Y888D01*
X1032Y890D01*
X1034Y890D01*
X1034Y892D01*
X1038Y892D01*
X1038Y894D01*
X1040Y894D01*
X1040Y896D01*
X1056Y896D01*
X1056Y898D01*
X1074Y898D01*
X1074Y900D01*
X1076Y900D01*
X1076Y902D01*
X1078Y902D01*
X1078Y906D01*
X1080Y906D01*
X1080Y908D01*
X1082Y908D01*
X1082Y910D01*
X1084Y910D01*
X1084Y912D01*
X1088Y912D01*
X1088Y914D01*
X1092Y914D01*
X1092Y916D01*
X1094Y916D01*
X1094Y936D01*
X1090Y936D01*
X1090Y938D01*
X1086Y938D01*
X1086Y940D01*
X1084Y940D01*
X1084Y942D01*
X1082Y942D01*
X1082Y944D01*
X1080Y944D01*
X1080Y946D01*
X1078Y946D01*
X1078Y948D01*
X1076Y948D01*
X1076Y952D01*
X1074Y952D01*
X1074Y954D01*
X1072Y954D01*
X1072Y958D01*
X1070Y958D01*
X1070Y964D01*
X1068Y964D01*
X1068Y986D01*
X1070Y986D01*
X1070Y992D01*
X1072Y992D01*
X1072Y996D01*
X1074Y996D01*
X1074Y1000D01*
X1076Y1000D01*
X1076Y1002D01*
X1078Y1002D01*
X1078Y1006D01*
X1080Y1006D01*
X1080Y1008D01*
X1082Y1008D01*
X1082Y1010D01*
X1084Y1010D01*
X1084Y1012D01*
X1088Y1012D01*
X1088Y1014D01*
X1092Y1014D01*
X1092Y1016D01*
X1094Y1016D01*
X1094Y1036D01*
X1090Y1036D01*
X1090Y1038D01*
X1086Y1038D01*
X1086Y1040D01*
X1084Y1040D01*
X1084Y1042D01*
X1082Y1042D01*
X1082Y1044D01*
X1080Y1044D01*
X1080Y1046D01*
X1078Y1046D01*
X1078Y1048D01*
X1076Y1048D01*
X1076Y1052D01*
X1046Y1052D01*
X1046Y1054D01*
X1040Y1054D01*
X1040Y1056D01*
X1038Y1056D01*
X1038Y1058D01*
X1036Y1058D01*
X1036Y1060D01*
X1034Y1060D01*
X1034Y1062D01*
X1032Y1062D01*
X1032Y1064D01*
X1030Y1064D01*
X1030Y1066D01*
X1028Y1066D01*
X1028Y1068D01*
X1026Y1068D01*
X1026Y1070D01*
X1024Y1070D01*
X1024Y1072D01*
X1022Y1072D01*
X1022Y1074D01*
X1020Y1074D01*
X1020Y1076D01*
X1018Y1076D01*
X1018Y1078D01*
X1016Y1078D01*
X1016Y1080D01*
X1014Y1080D01*
X1014Y1082D01*
X1012Y1082D01*
X1012Y1084D01*
X1010Y1084D01*
X1010Y1086D01*
X1008Y1086D01*
X1008Y1088D01*
X1006Y1088D01*
X1006Y1092D01*
X1004Y1092D01*
X1004Y1782D01*
X1006Y1782D01*
X1006Y1786D01*
X1008Y1786D01*
X1008Y1788D01*
X1010Y1788D01*
X1010Y1790D01*
X1012Y1790D01*
X1012Y1792D01*
X1014Y1792D01*
X1014Y1794D01*
X1016Y1794D01*
X1016Y1796D01*
X1018Y1796D01*
X1018Y1798D01*
X1020Y1798D01*
X1020Y1800D01*
X1022Y1800D01*
X1022Y1802D01*
X1024Y1802D01*
X1024Y1804D01*
X1026Y1804D01*
X1026Y1806D01*
X1028Y1806D01*
X1028Y1808D01*
X1030Y1808D01*
X1030Y1810D01*
X1032Y1810D01*
X1032Y1812D01*
X1034Y1812D01*
X1034Y1814D01*
X1036Y1814D01*
X1036Y1816D01*
X1038Y1816D01*
X1038Y1818D01*
X1042Y1818D01*
X1042Y1820D01*
X1048Y1820D01*
X1048Y1822D01*
X1370Y1822D01*
X1370Y1824D01*
X1374Y1824D01*
X1374Y1826D01*
X1376Y1826D01*
X1376Y1828D01*
X1378Y1828D01*
X1378Y1830D01*
X1382Y1830D01*
X1382Y1832D01*
X1384Y1832D01*
X1384Y1834D01*
X1388Y1834D01*
X1388Y1836D01*
X1390Y1836D01*
X1390Y2050D01*
X1386Y2050D01*
X1386Y2052D01*
X1384Y2052D01*
X1384Y2054D01*
X1382Y2054D01*
X1382Y2056D01*
X1380Y2056D01*
X1380Y2058D01*
X1378Y2058D01*
X1378Y2060D01*
X1376Y2060D01*
X1376Y2062D01*
X1374Y2062D01*
X1374Y2064D01*
X1372Y2064D01*
X1372Y2066D01*
X1352Y2066D01*
G37*
D02*
G36*
X1048Y1726D02*
X1048Y1720D01*
X1334Y1720D01*
X1334Y1718D01*
X1340Y1718D01*
X1340Y1716D01*
X1346Y1716D01*
X1346Y1714D01*
X1348Y1714D01*
X1348Y1712D01*
X1352Y1712D01*
X1352Y1710D01*
X1354Y1710D01*
X1354Y1708D01*
X1356Y1708D01*
X1356Y1706D01*
X1358Y1706D01*
X1358Y1704D01*
X1360Y1704D01*
X1360Y1702D01*
X1362Y1702D01*
X1362Y1698D01*
X1448Y1698D01*
X1448Y1726D01*
X1048Y1726D01*
G37*
D02*
G36*
X1048Y1720D02*
X1048Y1108D01*
X1050Y1108D01*
X1050Y1106D01*
X1052Y1106D01*
X1052Y1104D01*
X1054Y1104D01*
X1054Y1102D01*
X1056Y1102D01*
X1056Y1100D01*
X1076Y1100D01*
X1076Y1102D01*
X1078Y1102D01*
X1078Y1106D01*
X1080Y1106D01*
X1080Y1108D01*
X1082Y1108D01*
X1082Y1110D01*
X1084Y1110D01*
X1084Y1112D01*
X1088Y1112D01*
X1088Y1114D01*
X1092Y1114D01*
X1092Y1116D01*
X1094Y1116D01*
X1094Y1136D01*
X1090Y1136D01*
X1090Y1138D01*
X1086Y1138D01*
X1086Y1140D01*
X1084Y1140D01*
X1084Y1142D01*
X1082Y1142D01*
X1082Y1144D01*
X1080Y1144D01*
X1080Y1146D01*
X1078Y1146D01*
X1078Y1148D01*
X1076Y1148D01*
X1076Y1152D01*
X1074Y1152D01*
X1074Y1154D01*
X1072Y1154D01*
X1072Y1158D01*
X1070Y1158D01*
X1070Y1164D01*
X1068Y1164D01*
X1068Y1186D01*
X1070Y1186D01*
X1070Y1192D01*
X1072Y1192D01*
X1072Y1196D01*
X1074Y1196D01*
X1074Y1200D01*
X1076Y1200D01*
X1076Y1202D01*
X1078Y1202D01*
X1078Y1206D01*
X1080Y1206D01*
X1080Y1208D01*
X1082Y1208D01*
X1082Y1210D01*
X1084Y1210D01*
X1084Y1212D01*
X1088Y1212D01*
X1088Y1214D01*
X1092Y1214D01*
X1092Y1216D01*
X1094Y1216D01*
X1094Y1236D01*
X1090Y1236D01*
X1090Y1238D01*
X1086Y1238D01*
X1086Y1240D01*
X1084Y1240D01*
X1084Y1242D01*
X1082Y1242D01*
X1082Y1244D01*
X1080Y1244D01*
X1080Y1246D01*
X1078Y1246D01*
X1078Y1248D01*
X1076Y1248D01*
X1076Y1252D01*
X1074Y1252D01*
X1074Y1254D01*
X1072Y1254D01*
X1072Y1258D01*
X1070Y1258D01*
X1070Y1264D01*
X1068Y1264D01*
X1068Y1286D01*
X1070Y1286D01*
X1070Y1292D01*
X1072Y1292D01*
X1072Y1296D01*
X1074Y1296D01*
X1074Y1300D01*
X1076Y1300D01*
X1076Y1302D01*
X1078Y1302D01*
X1078Y1306D01*
X1080Y1306D01*
X1080Y1308D01*
X1082Y1308D01*
X1082Y1310D01*
X1084Y1310D01*
X1084Y1312D01*
X1088Y1312D01*
X1088Y1314D01*
X1092Y1314D01*
X1092Y1316D01*
X1094Y1316D01*
X1094Y1336D01*
X1090Y1336D01*
X1090Y1338D01*
X1086Y1338D01*
X1086Y1340D01*
X1084Y1340D01*
X1084Y1342D01*
X1082Y1342D01*
X1082Y1344D01*
X1080Y1344D01*
X1080Y1346D01*
X1078Y1346D01*
X1078Y1348D01*
X1076Y1348D01*
X1076Y1352D01*
X1074Y1352D01*
X1074Y1354D01*
X1072Y1354D01*
X1072Y1358D01*
X1070Y1358D01*
X1070Y1364D01*
X1068Y1364D01*
X1068Y1386D01*
X1070Y1386D01*
X1070Y1392D01*
X1072Y1392D01*
X1072Y1396D01*
X1074Y1396D01*
X1074Y1400D01*
X1076Y1400D01*
X1076Y1402D01*
X1078Y1402D01*
X1078Y1406D01*
X1080Y1406D01*
X1080Y1408D01*
X1082Y1408D01*
X1082Y1410D01*
X1084Y1410D01*
X1084Y1412D01*
X1088Y1412D01*
X1088Y1414D01*
X1092Y1414D01*
X1092Y1416D01*
X1094Y1416D01*
X1094Y1436D01*
X1090Y1436D01*
X1090Y1438D01*
X1086Y1438D01*
X1086Y1440D01*
X1084Y1440D01*
X1084Y1442D01*
X1082Y1442D01*
X1082Y1444D01*
X1080Y1444D01*
X1080Y1446D01*
X1078Y1446D01*
X1078Y1448D01*
X1076Y1448D01*
X1076Y1452D01*
X1074Y1452D01*
X1074Y1454D01*
X1072Y1454D01*
X1072Y1458D01*
X1070Y1458D01*
X1070Y1464D01*
X1068Y1464D01*
X1068Y1486D01*
X1070Y1486D01*
X1070Y1492D01*
X1072Y1492D01*
X1072Y1496D01*
X1074Y1496D01*
X1074Y1500D01*
X1076Y1500D01*
X1076Y1502D01*
X1078Y1502D01*
X1078Y1506D01*
X1080Y1506D01*
X1080Y1508D01*
X1082Y1508D01*
X1082Y1510D01*
X1084Y1510D01*
X1084Y1512D01*
X1088Y1512D01*
X1088Y1514D01*
X1092Y1514D01*
X1092Y1516D01*
X1094Y1516D01*
X1094Y1536D01*
X1090Y1536D01*
X1090Y1538D01*
X1086Y1538D01*
X1086Y1540D01*
X1084Y1540D01*
X1084Y1542D01*
X1082Y1542D01*
X1082Y1544D01*
X1080Y1544D01*
X1080Y1546D01*
X1078Y1546D01*
X1078Y1548D01*
X1076Y1548D01*
X1076Y1552D01*
X1074Y1552D01*
X1074Y1554D01*
X1072Y1554D01*
X1072Y1558D01*
X1070Y1558D01*
X1070Y1564D01*
X1068Y1564D01*
X1068Y1586D01*
X1070Y1586D01*
X1070Y1592D01*
X1072Y1592D01*
X1072Y1596D01*
X1074Y1596D01*
X1074Y1600D01*
X1076Y1600D01*
X1076Y1602D01*
X1078Y1602D01*
X1078Y1606D01*
X1080Y1606D01*
X1080Y1608D01*
X1082Y1608D01*
X1082Y1610D01*
X1084Y1610D01*
X1084Y1612D01*
X1088Y1612D01*
X1088Y1614D01*
X1092Y1614D01*
X1092Y1616D01*
X1094Y1616D01*
X1094Y1636D01*
X1090Y1636D01*
X1090Y1638D01*
X1086Y1638D01*
X1086Y1640D01*
X1084Y1640D01*
X1084Y1642D01*
X1082Y1642D01*
X1082Y1644D01*
X1080Y1644D01*
X1080Y1646D01*
X1078Y1646D01*
X1078Y1648D01*
X1076Y1648D01*
X1076Y1652D01*
X1074Y1652D01*
X1074Y1654D01*
X1072Y1654D01*
X1072Y1658D01*
X1070Y1658D01*
X1070Y1664D01*
X1068Y1664D01*
X1068Y1686D01*
X1070Y1686D01*
X1070Y1692D01*
X1072Y1692D01*
X1072Y1696D01*
X1074Y1696D01*
X1074Y1700D01*
X1076Y1700D01*
X1076Y1702D01*
X1078Y1702D01*
X1078Y1706D01*
X1080Y1706D01*
X1080Y1708D01*
X1082Y1708D01*
X1082Y1710D01*
X1084Y1710D01*
X1084Y1712D01*
X1088Y1712D01*
X1088Y1714D01*
X1092Y1714D01*
X1092Y1716D01*
X1094Y1716D01*
X1094Y1718D01*
X1102Y1718D01*
X1102Y1720D01*
X1048Y1720D01*
G37*
D02*
G36*
X1124Y1720D02*
X1124Y1718D01*
X1130Y1718D01*
X1130Y1716D01*
X1134Y1716D01*
X1134Y1714D01*
X1138Y1714D01*
X1138Y1712D01*
X1140Y1712D01*
X1140Y1710D01*
X1142Y1710D01*
X1142Y1708D01*
X1144Y1708D01*
X1144Y1706D01*
X1146Y1706D01*
X1146Y1704D01*
X1148Y1704D01*
X1148Y1702D01*
X1150Y1702D01*
X1150Y1698D01*
X1152Y1698D01*
X1152Y1694D01*
X1154Y1694D01*
X1154Y1690D01*
X1156Y1690D01*
X1156Y1682D01*
X1158Y1682D01*
X1158Y1670D01*
X1156Y1670D01*
X1156Y1662D01*
X1154Y1662D01*
X1154Y1656D01*
X1152Y1656D01*
X1152Y1652D01*
X1150Y1652D01*
X1150Y1650D01*
X1148Y1650D01*
X1148Y1648D01*
X1146Y1648D01*
X1146Y1644D01*
X1144Y1644D01*
X1144Y1642D01*
X1140Y1642D01*
X1140Y1640D01*
X1138Y1640D01*
X1138Y1638D01*
X1136Y1638D01*
X1136Y1636D01*
X1132Y1636D01*
X1132Y1616D01*
X1134Y1616D01*
X1134Y1614D01*
X1138Y1614D01*
X1138Y1612D01*
X1140Y1612D01*
X1140Y1610D01*
X1142Y1610D01*
X1142Y1608D01*
X1144Y1608D01*
X1144Y1606D01*
X1146Y1606D01*
X1146Y1604D01*
X1148Y1604D01*
X1148Y1602D01*
X1150Y1602D01*
X1150Y1598D01*
X1152Y1598D01*
X1152Y1594D01*
X1154Y1594D01*
X1154Y1590D01*
X1156Y1590D01*
X1156Y1582D01*
X1158Y1582D01*
X1158Y1570D01*
X1156Y1570D01*
X1156Y1562D01*
X1154Y1562D01*
X1154Y1556D01*
X1152Y1556D01*
X1152Y1552D01*
X1150Y1552D01*
X1150Y1550D01*
X1148Y1550D01*
X1148Y1548D01*
X1146Y1548D01*
X1146Y1544D01*
X1144Y1544D01*
X1144Y1542D01*
X1140Y1542D01*
X1140Y1540D01*
X1138Y1540D01*
X1138Y1538D01*
X1136Y1538D01*
X1136Y1536D01*
X1132Y1536D01*
X1132Y1516D01*
X1134Y1516D01*
X1134Y1514D01*
X1138Y1514D01*
X1138Y1512D01*
X1140Y1512D01*
X1140Y1510D01*
X1142Y1510D01*
X1142Y1508D01*
X1144Y1508D01*
X1144Y1506D01*
X1146Y1506D01*
X1146Y1504D01*
X1148Y1504D01*
X1148Y1502D01*
X1150Y1502D01*
X1150Y1498D01*
X1152Y1498D01*
X1152Y1494D01*
X1154Y1494D01*
X1154Y1490D01*
X1156Y1490D01*
X1156Y1482D01*
X1158Y1482D01*
X1158Y1470D01*
X1156Y1470D01*
X1156Y1462D01*
X1154Y1462D01*
X1154Y1456D01*
X1152Y1456D01*
X1152Y1452D01*
X1150Y1452D01*
X1150Y1450D01*
X1148Y1450D01*
X1148Y1448D01*
X1146Y1448D01*
X1146Y1444D01*
X1144Y1444D01*
X1144Y1442D01*
X1140Y1442D01*
X1140Y1440D01*
X1138Y1440D01*
X1138Y1438D01*
X1136Y1438D01*
X1136Y1436D01*
X1132Y1436D01*
X1132Y1416D01*
X1134Y1416D01*
X1134Y1414D01*
X1138Y1414D01*
X1138Y1412D01*
X1140Y1412D01*
X1140Y1410D01*
X1142Y1410D01*
X1142Y1408D01*
X1144Y1408D01*
X1144Y1406D01*
X1146Y1406D01*
X1146Y1404D01*
X1148Y1404D01*
X1148Y1402D01*
X1150Y1402D01*
X1150Y1398D01*
X1152Y1398D01*
X1152Y1394D01*
X1154Y1394D01*
X1154Y1390D01*
X1156Y1390D01*
X1156Y1382D01*
X1158Y1382D01*
X1158Y1370D01*
X1156Y1370D01*
X1156Y1362D01*
X1154Y1362D01*
X1154Y1356D01*
X1152Y1356D01*
X1152Y1352D01*
X1150Y1352D01*
X1150Y1350D01*
X1148Y1350D01*
X1148Y1348D01*
X1146Y1348D01*
X1146Y1344D01*
X1144Y1344D01*
X1144Y1342D01*
X1140Y1342D01*
X1140Y1340D01*
X1138Y1340D01*
X1138Y1338D01*
X1136Y1338D01*
X1136Y1336D01*
X1132Y1336D01*
X1132Y1316D01*
X1134Y1316D01*
X1134Y1314D01*
X1138Y1314D01*
X1138Y1312D01*
X1140Y1312D01*
X1140Y1310D01*
X1142Y1310D01*
X1142Y1308D01*
X1144Y1308D01*
X1144Y1306D01*
X1146Y1306D01*
X1146Y1304D01*
X1148Y1304D01*
X1148Y1302D01*
X1150Y1302D01*
X1150Y1298D01*
X1152Y1298D01*
X1152Y1294D01*
X1154Y1294D01*
X1154Y1290D01*
X1156Y1290D01*
X1156Y1282D01*
X1158Y1282D01*
X1158Y1270D01*
X1156Y1270D01*
X1156Y1262D01*
X1154Y1262D01*
X1154Y1256D01*
X1152Y1256D01*
X1152Y1252D01*
X1150Y1252D01*
X1150Y1250D01*
X1148Y1250D01*
X1148Y1248D01*
X1146Y1248D01*
X1146Y1244D01*
X1144Y1244D01*
X1144Y1242D01*
X1140Y1242D01*
X1140Y1240D01*
X1138Y1240D01*
X1138Y1238D01*
X1136Y1238D01*
X1136Y1236D01*
X1132Y1236D01*
X1132Y1216D01*
X1134Y1216D01*
X1134Y1214D01*
X1138Y1214D01*
X1138Y1212D01*
X1140Y1212D01*
X1140Y1210D01*
X1142Y1210D01*
X1142Y1208D01*
X1144Y1208D01*
X1144Y1206D01*
X1146Y1206D01*
X1146Y1204D01*
X1148Y1204D01*
X1148Y1202D01*
X1150Y1202D01*
X1150Y1198D01*
X1152Y1198D01*
X1152Y1194D01*
X1154Y1194D01*
X1154Y1190D01*
X1156Y1190D01*
X1156Y1182D01*
X1158Y1182D01*
X1158Y1170D01*
X1156Y1170D01*
X1156Y1162D01*
X1154Y1162D01*
X1154Y1156D01*
X1152Y1156D01*
X1152Y1152D01*
X1150Y1152D01*
X1150Y1150D01*
X1148Y1150D01*
X1148Y1148D01*
X1146Y1148D01*
X1146Y1144D01*
X1144Y1144D01*
X1144Y1142D01*
X1140Y1142D01*
X1140Y1140D01*
X1138Y1140D01*
X1138Y1138D01*
X1136Y1138D01*
X1136Y1136D01*
X1132Y1136D01*
X1132Y1116D01*
X1134Y1116D01*
X1134Y1114D01*
X1138Y1114D01*
X1138Y1112D01*
X1140Y1112D01*
X1140Y1110D01*
X1142Y1110D01*
X1142Y1108D01*
X1144Y1108D01*
X1144Y1106D01*
X1146Y1106D01*
X1146Y1104D01*
X1148Y1104D01*
X1148Y1102D01*
X1150Y1102D01*
X1150Y1098D01*
X1152Y1098D01*
X1152Y1094D01*
X1154Y1094D01*
X1154Y1090D01*
X1156Y1090D01*
X1156Y1082D01*
X1158Y1082D01*
X1158Y1070D01*
X1156Y1070D01*
X1156Y1062D01*
X1154Y1062D01*
X1154Y1056D01*
X1152Y1056D01*
X1152Y1052D01*
X1150Y1052D01*
X1150Y1050D01*
X1148Y1050D01*
X1148Y1048D01*
X1146Y1048D01*
X1146Y1044D01*
X1144Y1044D01*
X1144Y1042D01*
X1140Y1042D01*
X1140Y1040D01*
X1138Y1040D01*
X1138Y1038D01*
X1136Y1038D01*
X1136Y1036D01*
X1132Y1036D01*
X1132Y1016D01*
X1134Y1016D01*
X1134Y1014D01*
X1138Y1014D01*
X1138Y1012D01*
X1140Y1012D01*
X1140Y1010D01*
X1142Y1010D01*
X1142Y1008D01*
X1144Y1008D01*
X1144Y1006D01*
X1146Y1006D01*
X1146Y1004D01*
X1148Y1004D01*
X1148Y1002D01*
X1150Y1002D01*
X1150Y998D01*
X1152Y998D01*
X1152Y994D01*
X1154Y994D01*
X1154Y990D01*
X1156Y990D01*
X1156Y982D01*
X1158Y982D01*
X1158Y970D01*
X1156Y970D01*
X1156Y962D01*
X1154Y962D01*
X1154Y956D01*
X1152Y956D01*
X1152Y952D01*
X1150Y952D01*
X1150Y950D01*
X1148Y950D01*
X1148Y948D01*
X1146Y948D01*
X1146Y944D01*
X1144Y944D01*
X1144Y942D01*
X1140Y942D01*
X1140Y940D01*
X1138Y940D01*
X1138Y938D01*
X1136Y938D01*
X1136Y936D01*
X1132Y936D01*
X1132Y916D01*
X1134Y916D01*
X1134Y914D01*
X1138Y914D01*
X1138Y912D01*
X1140Y912D01*
X1140Y910D01*
X1142Y910D01*
X1142Y908D01*
X1144Y908D01*
X1144Y906D01*
X1146Y906D01*
X1146Y904D01*
X1148Y904D01*
X1148Y902D01*
X1150Y902D01*
X1150Y898D01*
X1152Y898D01*
X1152Y894D01*
X1154Y894D01*
X1154Y890D01*
X1156Y890D01*
X1156Y882D01*
X1158Y882D01*
X1158Y870D01*
X1156Y870D01*
X1156Y862D01*
X1154Y862D01*
X1154Y856D01*
X1152Y856D01*
X1152Y852D01*
X1150Y852D01*
X1150Y850D01*
X1148Y850D01*
X1148Y848D01*
X1146Y848D01*
X1146Y844D01*
X1144Y844D01*
X1144Y842D01*
X1140Y842D01*
X1140Y840D01*
X1138Y840D01*
X1138Y838D01*
X1136Y838D01*
X1136Y836D01*
X1132Y836D01*
X1132Y816D01*
X1134Y816D01*
X1134Y814D01*
X1138Y814D01*
X1138Y812D01*
X1140Y812D01*
X1140Y810D01*
X1142Y810D01*
X1142Y808D01*
X1144Y808D01*
X1144Y806D01*
X1146Y806D01*
X1146Y804D01*
X1148Y804D01*
X1148Y802D01*
X1150Y802D01*
X1150Y800D01*
X1170Y800D01*
X1170Y802D01*
X1172Y802D01*
X1172Y804D01*
X1174Y804D01*
X1174Y806D01*
X1176Y806D01*
X1176Y808D01*
X1178Y808D01*
X1178Y1658D01*
X1180Y1658D01*
X1180Y1662D01*
X1182Y1662D01*
X1182Y1664D01*
X1184Y1664D01*
X1184Y1666D01*
X1186Y1666D01*
X1186Y1668D01*
X1188Y1668D01*
X1188Y1670D01*
X1190Y1670D01*
X1190Y1672D01*
X1192Y1672D01*
X1192Y1674D01*
X1194Y1674D01*
X1194Y1676D01*
X1196Y1676D01*
X1196Y1678D01*
X1198Y1678D01*
X1198Y1680D01*
X1200Y1680D01*
X1200Y1682D01*
X1202Y1682D01*
X1202Y1684D01*
X1204Y1684D01*
X1204Y1686D01*
X1206Y1686D01*
X1206Y1688D01*
X1208Y1688D01*
X1208Y1690D01*
X1210Y1690D01*
X1210Y1692D01*
X1212Y1692D01*
X1212Y1694D01*
X1216Y1694D01*
X1216Y1696D01*
X1224Y1696D01*
X1224Y1698D01*
X1288Y1698D01*
X1288Y1702D01*
X1290Y1702D01*
X1290Y1704D01*
X1292Y1704D01*
X1292Y1706D01*
X1294Y1706D01*
X1294Y1708D01*
X1296Y1708D01*
X1296Y1710D01*
X1298Y1710D01*
X1298Y1712D01*
X1302Y1712D01*
X1302Y1714D01*
X1304Y1714D01*
X1304Y1716D01*
X1310Y1716D01*
X1310Y1718D01*
X1316Y1718D01*
X1316Y1720D01*
X1124Y1720D01*
G37*
D02*
G36*
X1364Y1654D02*
X1364Y1652D01*
X1362Y1652D01*
X1362Y1648D01*
X1360Y1648D01*
X1360Y1646D01*
X1358Y1646D01*
X1358Y1644D01*
X1356Y1644D01*
X1356Y1642D01*
X1354Y1642D01*
X1354Y1640D01*
X1352Y1640D01*
X1352Y1638D01*
X1348Y1638D01*
X1348Y1636D01*
X1346Y1636D01*
X1346Y1634D01*
X1344Y1634D01*
X1344Y1624D01*
X1448Y1624D01*
X1448Y1654D01*
X1364Y1654D01*
G37*
D02*
G36*
X1232Y1652D02*
X1232Y1650D01*
X1230Y1650D01*
X1230Y1648D01*
X1228Y1648D01*
X1228Y1646D01*
X1226Y1646D01*
X1226Y1644D01*
X1224Y1644D01*
X1224Y1642D01*
X1222Y1642D01*
X1222Y1530D01*
X1316Y1530D01*
X1316Y1532D01*
X1308Y1532D01*
X1308Y1534D01*
X1304Y1534D01*
X1304Y1536D01*
X1300Y1536D01*
X1300Y1538D01*
X1298Y1538D01*
X1298Y1540D01*
X1296Y1540D01*
X1296Y1542D01*
X1294Y1542D01*
X1294Y1544D01*
X1292Y1544D01*
X1292Y1546D01*
X1290Y1546D01*
X1290Y1548D01*
X1288Y1548D01*
X1288Y1552D01*
X1286Y1552D01*
X1286Y1554D01*
X1284Y1554D01*
X1284Y1560D01*
X1282Y1560D01*
X1282Y1566D01*
X1280Y1566D01*
X1280Y1584D01*
X1282Y1584D01*
X1282Y1590D01*
X1284Y1590D01*
X1284Y1594D01*
X1286Y1594D01*
X1286Y1598D01*
X1288Y1598D01*
X1288Y1602D01*
X1290Y1602D01*
X1290Y1604D01*
X1292Y1604D01*
X1292Y1606D01*
X1294Y1606D01*
X1294Y1608D01*
X1296Y1608D01*
X1296Y1610D01*
X1298Y1610D01*
X1298Y1612D01*
X1302Y1612D01*
X1302Y1614D01*
X1306Y1614D01*
X1306Y1634D01*
X1304Y1634D01*
X1304Y1636D01*
X1302Y1636D01*
X1302Y1638D01*
X1298Y1638D01*
X1298Y1640D01*
X1296Y1640D01*
X1296Y1642D01*
X1294Y1642D01*
X1294Y1644D01*
X1292Y1644D01*
X1292Y1646D01*
X1290Y1646D01*
X1290Y1648D01*
X1288Y1648D01*
X1288Y1652D01*
X1232Y1652D01*
G37*
D02*
G36*
X1344Y1624D02*
X1344Y1622D01*
X1584Y1622D01*
X1584Y1624D01*
X1344Y1624D01*
G37*
D02*
G36*
X1344Y1624D02*
X1344Y1622D01*
X1584Y1622D01*
X1584Y1624D01*
X1344Y1624D01*
G37*
D02*
G36*
X1344Y1622D02*
X1344Y1614D01*
X1348Y1614D01*
X1348Y1612D01*
X1352Y1612D01*
X1352Y1610D01*
X1354Y1610D01*
X1354Y1608D01*
X1356Y1608D01*
X1356Y1606D01*
X1358Y1606D01*
X1358Y1604D01*
X1360Y1604D01*
X1360Y1602D01*
X1362Y1602D01*
X1362Y1598D01*
X1364Y1598D01*
X1364Y1594D01*
X1366Y1594D01*
X1366Y1590D01*
X1368Y1590D01*
X1368Y1588D01*
X1514Y1588D01*
X1514Y1586D01*
X1520Y1586D01*
X1520Y1584D01*
X1524Y1584D01*
X1524Y1582D01*
X1526Y1582D01*
X1526Y1580D01*
X1530Y1580D01*
X1530Y1578D01*
X1532Y1578D01*
X1532Y1576D01*
X1534Y1576D01*
X1534Y1574D01*
X1536Y1574D01*
X1536Y1572D01*
X1538Y1572D01*
X1538Y1570D01*
X1540Y1570D01*
X1540Y1568D01*
X1542Y1568D01*
X1542Y1564D01*
X1544Y1564D01*
X1544Y1562D01*
X1546Y1562D01*
X1546Y1558D01*
X1548Y1558D01*
X1548Y1552D01*
X1550Y1552D01*
X1550Y1540D01*
X1552Y1540D01*
X1552Y1534D01*
X1550Y1534D01*
X1550Y1522D01*
X1548Y1522D01*
X1548Y1518D01*
X1546Y1518D01*
X1546Y1514D01*
X1544Y1514D01*
X1544Y1510D01*
X1542Y1510D01*
X1542Y1506D01*
X1540Y1506D01*
X1540Y1504D01*
X1538Y1504D01*
X1538Y1502D01*
X1536Y1502D01*
X1536Y1500D01*
X1534Y1500D01*
X1534Y1498D01*
X1532Y1498D01*
X1532Y1496D01*
X1528Y1496D01*
X1528Y1494D01*
X1526Y1494D01*
X1526Y1492D01*
X1522Y1492D01*
X1522Y1490D01*
X1518Y1490D01*
X1518Y1488D01*
X1510Y1488D01*
X1510Y1486D01*
X1584Y1486D01*
X1584Y1622D01*
X1344Y1622D01*
G37*
D02*
G36*
X1368Y1588D02*
X1368Y1584D01*
X1370Y1584D01*
X1370Y1566D01*
X1368Y1566D01*
X1368Y1560D01*
X1366Y1560D01*
X1366Y1554D01*
X1364Y1554D01*
X1364Y1552D01*
X1362Y1552D01*
X1362Y1548D01*
X1360Y1548D01*
X1360Y1546D01*
X1358Y1546D01*
X1358Y1544D01*
X1356Y1544D01*
X1356Y1542D01*
X1354Y1542D01*
X1354Y1540D01*
X1352Y1540D01*
X1352Y1538D01*
X1350Y1538D01*
X1350Y1536D01*
X1346Y1536D01*
X1346Y1534D01*
X1342Y1534D01*
X1342Y1532D01*
X1334Y1532D01*
X1334Y1530D01*
X1448Y1530D01*
X1448Y1548D01*
X1450Y1548D01*
X1450Y1554D01*
X1452Y1554D01*
X1452Y1560D01*
X1454Y1560D01*
X1454Y1562D01*
X1456Y1562D01*
X1456Y1566D01*
X1458Y1566D01*
X1458Y1568D01*
X1460Y1568D01*
X1460Y1572D01*
X1462Y1572D01*
X1462Y1574D01*
X1464Y1574D01*
X1464Y1576D01*
X1466Y1576D01*
X1466Y1578D01*
X1470Y1578D01*
X1470Y1580D01*
X1472Y1580D01*
X1472Y1582D01*
X1476Y1582D01*
X1476Y1584D01*
X1480Y1584D01*
X1480Y1586D01*
X1486Y1586D01*
X1486Y1588D01*
X1368Y1588D01*
G37*
D02*
G36*
X1222Y1530D02*
X1222Y1528D01*
X1448Y1528D01*
X1448Y1530D01*
X1222Y1530D01*
G37*
D02*
G36*
X1222Y1530D02*
X1222Y1528D01*
X1448Y1528D01*
X1448Y1530D01*
X1222Y1530D01*
G37*
D02*
G36*
X1222Y1528D02*
X1222Y1486D01*
X1488Y1486D01*
X1488Y1488D01*
X1482Y1488D01*
X1482Y1490D01*
X1478Y1490D01*
X1478Y1492D01*
X1474Y1492D01*
X1474Y1494D01*
X1470Y1494D01*
X1470Y1496D01*
X1468Y1496D01*
X1468Y1498D01*
X1466Y1498D01*
X1466Y1500D01*
X1462Y1500D01*
X1462Y1504D01*
X1460Y1504D01*
X1460Y1506D01*
X1458Y1506D01*
X1458Y1508D01*
X1456Y1508D01*
X1456Y1512D01*
X1454Y1512D01*
X1454Y1516D01*
X1452Y1516D01*
X1452Y1520D01*
X1450Y1520D01*
X1450Y1528D01*
X1222Y1528D01*
G37*
D02*
G36*
X1222Y1486D02*
X1222Y1484D01*
X1584Y1484D01*
X1584Y1486D01*
X1222Y1486D01*
G37*
D02*
G36*
X1222Y1486D02*
X1222Y1484D01*
X1584Y1484D01*
X1584Y1486D01*
X1222Y1486D01*
G37*
D02*
G36*
X1222Y1484D02*
X1222Y1176D01*
X1552Y1176D01*
X1552Y1074D01*
X1584Y1074D01*
X1584Y1484D01*
X1222Y1484D01*
G37*
D02*
G36*
X1222Y1176D02*
X1222Y1170D01*
X1334Y1170D01*
X1334Y1168D01*
X1340Y1168D01*
X1340Y1166D01*
X1346Y1166D01*
X1346Y1164D01*
X1348Y1164D01*
X1348Y1162D01*
X1352Y1162D01*
X1352Y1160D01*
X1354Y1160D01*
X1354Y1158D01*
X1356Y1158D01*
X1356Y1156D01*
X1358Y1156D01*
X1358Y1154D01*
X1360Y1154D01*
X1360Y1152D01*
X1362Y1152D01*
X1362Y1148D01*
X1448Y1148D01*
X1448Y1176D01*
X1222Y1176D01*
G37*
D02*
G36*
X1222Y1170D02*
X1222Y1122D01*
X1242Y1122D01*
X1242Y1124D01*
X1244Y1124D01*
X1244Y1126D01*
X1246Y1126D01*
X1246Y1128D01*
X1248Y1128D01*
X1248Y1130D01*
X1250Y1130D01*
X1250Y1132D01*
X1252Y1132D01*
X1252Y1134D01*
X1254Y1134D01*
X1254Y1136D01*
X1256Y1136D01*
X1256Y1138D01*
X1258Y1138D01*
X1258Y1140D01*
X1260Y1140D01*
X1260Y1142D01*
X1262Y1142D01*
X1262Y1144D01*
X1266Y1144D01*
X1266Y1146D01*
X1270Y1146D01*
X1270Y1148D01*
X1288Y1148D01*
X1288Y1152D01*
X1290Y1152D01*
X1290Y1154D01*
X1292Y1154D01*
X1292Y1156D01*
X1294Y1156D01*
X1294Y1158D01*
X1296Y1158D01*
X1296Y1160D01*
X1298Y1160D01*
X1298Y1162D01*
X1302Y1162D01*
X1302Y1164D01*
X1304Y1164D01*
X1304Y1166D01*
X1310Y1166D01*
X1310Y1168D01*
X1316Y1168D01*
X1316Y1170D01*
X1222Y1170D01*
G37*
D02*
G36*
X1364Y1104D02*
X1364Y1102D01*
X1362Y1102D01*
X1362Y1098D01*
X1360Y1098D01*
X1360Y1096D01*
X1358Y1096D01*
X1358Y1094D01*
X1356Y1094D01*
X1356Y1092D01*
X1354Y1092D01*
X1354Y1090D01*
X1352Y1090D01*
X1352Y1088D01*
X1348Y1088D01*
X1348Y1086D01*
X1346Y1086D01*
X1346Y1084D01*
X1344Y1084D01*
X1344Y1074D01*
X1448Y1074D01*
X1448Y1104D01*
X1364Y1104D01*
G37*
D02*
G36*
X1344Y1074D02*
X1344Y1072D01*
X1584Y1072D01*
X1584Y1074D01*
X1344Y1074D01*
G37*
D02*
G36*
X1344Y1074D02*
X1344Y1072D01*
X1584Y1072D01*
X1584Y1074D01*
X1344Y1074D01*
G37*
D02*
G36*
X1344Y1072D02*
X1344Y1064D01*
X1348Y1064D01*
X1348Y1062D01*
X1352Y1062D01*
X1352Y1060D01*
X1354Y1060D01*
X1354Y1058D01*
X1356Y1058D01*
X1356Y1056D01*
X1358Y1056D01*
X1358Y1054D01*
X1360Y1054D01*
X1360Y1052D01*
X1362Y1052D01*
X1362Y1048D01*
X1364Y1048D01*
X1364Y1044D01*
X1366Y1044D01*
X1366Y1040D01*
X1500Y1040D01*
X1500Y1038D01*
X1514Y1038D01*
X1514Y1036D01*
X1520Y1036D01*
X1520Y1034D01*
X1524Y1034D01*
X1524Y1032D01*
X1526Y1032D01*
X1526Y1030D01*
X1530Y1030D01*
X1530Y1028D01*
X1532Y1028D01*
X1532Y1026D01*
X1534Y1026D01*
X1534Y1024D01*
X1536Y1024D01*
X1536Y1022D01*
X1538Y1022D01*
X1538Y1020D01*
X1540Y1020D01*
X1540Y1018D01*
X1542Y1018D01*
X1542Y1014D01*
X1544Y1014D01*
X1544Y1012D01*
X1546Y1012D01*
X1546Y1008D01*
X1548Y1008D01*
X1548Y1002D01*
X1550Y1002D01*
X1550Y990D01*
X1552Y990D01*
X1552Y984D01*
X1550Y984D01*
X1550Y972D01*
X1548Y972D01*
X1548Y968D01*
X1546Y968D01*
X1546Y964D01*
X1544Y964D01*
X1544Y960D01*
X1542Y960D01*
X1542Y956D01*
X1540Y956D01*
X1540Y954D01*
X1538Y954D01*
X1538Y952D01*
X1536Y952D01*
X1536Y950D01*
X1534Y950D01*
X1534Y948D01*
X1532Y948D01*
X1532Y946D01*
X1528Y946D01*
X1528Y944D01*
X1526Y944D01*
X1526Y942D01*
X1522Y942D01*
X1522Y940D01*
X1518Y940D01*
X1518Y938D01*
X1510Y938D01*
X1510Y936D01*
X1584Y936D01*
X1584Y1072D01*
X1344Y1072D01*
G37*
D02*
G36*
X1368Y1040D02*
X1368Y1034D01*
X1370Y1034D01*
X1370Y1016D01*
X1368Y1016D01*
X1368Y1010D01*
X1366Y1010D01*
X1366Y1004D01*
X1364Y1004D01*
X1364Y1002D01*
X1362Y1002D01*
X1362Y998D01*
X1360Y998D01*
X1360Y996D01*
X1358Y996D01*
X1358Y994D01*
X1356Y994D01*
X1356Y992D01*
X1354Y992D01*
X1354Y990D01*
X1352Y990D01*
X1352Y988D01*
X1350Y988D01*
X1350Y986D01*
X1346Y986D01*
X1346Y984D01*
X1342Y984D01*
X1342Y982D01*
X1334Y982D01*
X1334Y980D01*
X1448Y980D01*
X1448Y998D01*
X1450Y998D01*
X1450Y1004D01*
X1452Y1004D01*
X1452Y1010D01*
X1454Y1010D01*
X1454Y1012D01*
X1456Y1012D01*
X1456Y1016D01*
X1458Y1016D01*
X1458Y1018D01*
X1460Y1018D01*
X1460Y1022D01*
X1462Y1022D01*
X1462Y1024D01*
X1464Y1024D01*
X1464Y1026D01*
X1466Y1026D01*
X1466Y1028D01*
X1470Y1028D01*
X1470Y1030D01*
X1472Y1030D01*
X1472Y1032D01*
X1476Y1032D01*
X1476Y1034D01*
X1480Y1034D01*
X1480Y1036D01*
X1486Y1036D01*
X1486Y1038D01*
X1498Y1038D01*
X1498Y1040D01*
X1368Y1040D01*
G37*
D02*
G36*
X1272Y996D02*
X1272Y980D01*
X1316Y980D01*
X1316Y982D01*
X1308Y982D01*
X1308Y984D01*
X1304Y984D01*
X1304Y986D01*
X1300Y986D01*
X1300Y988D01*
X1298Y988D01*
X1298Y990D01*
X1296Y990D01*
X1296Y992D01*
X1294Y992D01*
X1294Y994D01*
X1292Y994D01*
X1292Y996D01*
X1272Y996D01*
G37*
D02*
G36*
X1272Y980D02*
X1272Y978D01*
X1448Y978D01*
X1448Y980D01*
X1272Y980D01*
G37*
D02*
G36*
X1272Y980D02*
X1272Y978D01*
X1448Y978D01*
X1448Y980D01*
X1272Y980D01*
G37*
D02*
G36*
X1272Y978D02*
X1272Y936D01*
X1488Y936D01*
X1488Y938D01*
X1482Y938D01*
X1482Y940D01*
X1478Y940D01*
X1478Y942D01*
X1474Y942D01*
X1474Y944D01*
X1470Y944D01*
X1470Y946D01*
X1468Y946D01*
X1468Y948D01*
X1466Y948D01*
X1466Y950D01*
X1462Y950D01*
X1462Y954D01*
X1460Y954D01*
X1460Y956D01*
X1458Y956D01*
X1458Y958D01*
X1456Y958D01*
X1456Y962D01*
X1454Y962D01*
X1454Y966D01*
X1452Y966D01*
X1452Y970D01*
X1450Y970D01*
X1450Y978D01*
X1272Y978D01*
G37*
D02*
G36*
X1272Y936D02*
X1272Y934D01*
X1584Y934D01*
X1584Y936D01*
X1272Y936D01*
G37*
D02*
G36*
X1272Y936D02*
X1272Y934D01*
X1584Y934D01*
X1584Y936D01*
X1272Y936D01*
G37*
D02*
G36*
X1272Y934D02*
X1272Y692D01*
X1270Y692D01*
X1270Y688D01*
X1268Y688D01*
X1268Y686D01*
X1266Y686D01*
X1266Y684D01*
X1264Y684D01*
X1264Y682D01*
X1262Y682D01*
X1262Y680D01*
X1260Y680D01*
X1260Y678D01*
X1258Y678D01*
X1258Y676D01*
X1256Y676D01*
X1256Y674D01*
X1254Y674D01*
X1254Y672D01*
X1252Y672D01*
X1252Y670D01*
X1250Y670D01*
X1250Y668D01*
X1248Y668D01*
X1248Y666D01*
X1246Y666D01*
X1246Y664D01*
X1244Y664D01*
X1244Y662D01*
X1242Y662D01*
X1242Y660D01*
X1240Y660D01*
X1240Y658D01*
X1238Y658D01*
X1238Y656D01*
X1234Y656D01*
X1234Y654D01*
X1152Y654D01*
X1152Y652D01*
X1150Y652D01*
X1150Y650D01*
X1148Y650D01*
X1148Y648D01*
X1146Y648D01*
X1146Y644D01*
X1144Y644D01*
X1144Y642D01*
X1140Y642D01*
X1140Y640D01*
X1138Y640D01*
X1138Y638D01*
X1136Y638D01*
X1136Y636D01*
X1132Y636D01*
X1132Y626D01*
X1552Y626D01*
X1552Y524D01*
X1584Y524D01*
X1584Y934D01*
X1272Y934D01*
G37*
D02*
G36*
X1056Y850D02*
X1056Y848D01*
X1054Y848D01*
X1054Y846D01*
X1052Y846D01*
X1052Y844D01*
X1050Y844D01*
X1050Y842D01*
X1048Y842D01*
X1048Y230D01*
X1108Y230D01*
X1108Y232D01*
X1100Y232D01*
X1100Y234D01*
X1094Y234D01*
X1094Y236D01*
X1090Y236D01*
X1090Y238D01*
X1086Y238D01*
X1086Y240D01*
X1084Y240D01*
X1084Y242D01*
X1082Y242D01*
X1082Y244D01*
X1080Y244D01*
X1080Y246D01*
X1078Y246D01*
X1078Y248D01*
X1076Y248D01*
X1076Y252D01*
X1074Y252D01*
X1074Y254D01*
X1072Y254D01*
X1072Y258D01*
X1070Y258D01*
X1070Y264D01*
X1068Y264D01*
X1068Y286D01*
X1070Y286D01*
X1070Y292D01*
X1072Y292D01*
X1072Y296D01*
X1074Y296D01*
X1074Y300D01*
X1076Y300D01*
X1076Y302D01*
X1078Y302D01*
X1078Y306D01*
X1080Y306D01*
X1080Y308D01*
X1082Y308D01*
X1082Y310D01*
X1084Y310D01*
X1084Y312D01*
X1088Y312D01*
X1088Y314D01*
X1092Y314D01*
X1092Y316D01*
X1094Y316D01*
X1094Y336D01*
X1090Y336D01*
X1090Y338D01*
X1086Y338D01*
X1086Y340D01*
X1084Y340D01*
X1084Y342D01*
X1082Y342D01*
X1082Y344D01*
X1080Y344D01*
X1080Y346D01*
X1078Y346D01*
X1078Y348D01*
X1076Y348D01*
X1076Y352D01*
X1074Y352D01*
X1074Y354D01*
X1072Y354D01*
X1072Y358D01*
X1070Y358D01*
X1070Y364D01*
X1068Y364D01*
X1068Y386D01*
X1070Y386D01*
X1070Y392D01*
X1072Y392D01*
X1072Y396D01*
X1074Y396D01*
X1074Y400D01*
X1076Y400D01*
X1076Y402D01*
X1078Y402D01*
X1078Y406D01*
X1080Y406D01*
X1080Y408D01*
X1082Y408D01*
X1082Y410D01*
X1084Y410D01*
X1084Y412D01*
X1088Y412D01*
X1088Y414D01*
X1092Y414D01*
X1092Y416D01*
X1094Y416D01*
X1094Y436D01*
X1090Y436D01*
X1090Y438D01*
X1086Y438D01*
X1086Y440D01*
X1084Y440D01*
X1084Y442D01*
X1082Y442D01*
X1082Y444D01*
X1080Y444D01*
X1080Y446D01*
X1078Y446D01*
X1078Y448D01*
X1076Y448D01*
X1076Y452D01*
X1074Y452D01*
X1074Y454D01*
X1072Y454D01*
X1072Y458D01*
X1070Y458D01*
X1070Y464D01*
X1068Y464D01*
X1068Y486D01*
X1070Y486D01*
X1070Y492D01*
X1072Y492D01*
X1072Y496D01*
X1074Y496D01*
X1074Y500D01*
X1076Y500D01*
X1076Y502D01*
X1078Y502D01*
X1078Y506D01*
X1080Y506D01*
X1080Y508D01*
X1082Y508D01*
X1082Y510D01*
X1084Y510D01*
X1084Y512D01*
X1088Y512D01*
X1088Y514D01*
X1092Y514D01*
X1092Y516D01*
X1094Y516D01*
X1094Y536D01*
X1090Y536D01*
X1090Y538D01*
X1086Y538D01*
X1086Y540D01*
X1084Y540D01*
X1084Y542D01*
X1082Y542D01*
X1082Y544D01*
X1080Y544D01*
X1080Y546D01*
X1078Y546D01*
X1078Y548D01*
X1076Y548D01*
X1076Y552D01*
X1074Y552D01*
X1074Y554D01*
X1072Y554D01*
X1072Y558D01*
X1070Y558D01*
X1070Y564D01*
X1068Y564D01*
X1068Y586D01*
X1070Y586D01*
X1070Y592D01*
X1072Y592D01*
X1072Y596D01*
X1074Y596D01*
X1074Y600D01*
X1076Y600D01*
X1076Y602D01*
X1078Y602D01*
X1078Y606D01*
X1080Y606D01*
X1080Y608D01*
X1082Y608D01*
X1082Y610D01*
X1084Y610D01*
X1084Y612D01*
X1088Y612D01*
X1088Y614D01*
X1092Y614D01*
X1092Y616D01*
X1094Y616D01*
X1094Y636D01*
X1090Y636D01*
X1090Y638D01*
X1086Y638D01*
X1086Y640D01*
X1084Y640D01*
X1084Y642D01*
X1082Y642D01*
X1082Y644D01*
X1080Y644D01*
X1080Y646D01*
X1078Y646D01*
X1078Y648D01*
X1076Y648D01*
X1076Y652D01*
X1074Y652D01*
X1074Y654D01*
X1072Y654D01*
X1072Y658D01*
X1070Y658D01*
X1070Y664D01*
X1068Y664D01*
X1068Y686D01*
X1070Y686D01*
X1070Y692D01*
X1072Y692D01*
X1072Y696D01*
X1074Y696D01*
X1074Y700D01*
X1076Y700D01*
X1076Y702D01*
X1078Y702D01*
X1078Y706D01*
X1080Y706D01*
X1080Y708D01*
X1082Y708D01*
X1082Y710D01*
X1084Y710D01*
X1084Y712D01*
X1088Y712D01*
X1088Y714D01*
X1092Y714D01*
X1092Y716D01*
X1094Y716D01*
X1094Y736D01*
X1090Y736D01*
X1090Y738D01*
X1086Y738D01*
X1086Y740D01*
X1084Y740D01*
X1084Y742D01*
X1082Y742D01*
X1082Y744D01*
X1080Y744D01*
X1080Y746D01*
X1078Y746D01*
X1078Y748D01*
X1076Y748D01*
X1076Y752D01*
X1074Y752D01*
X1074Y754D01*
X1072Y754D01*
X1072Y758D01*
X1070Y758D01*
X1070Y764D01*
X1068Y764D01*
X1068Y786D01*
X1070Y786D01*
X1070Y792D01*
X1072Y792D01*
X1072Y796D01*
X1074Y796D01*
X1074Y800D01*
X1076Y800D01*
X1076Y802D01*
X1078Y802D01*
X1078Y806D01*
X1080Y806D01*
X1080Y808D01*
X1082Y808D01*
X1082Y810D01*
X1084Y810D01*
X1084Y812D01*
X1088Y812D01*
X1088Y814D01*
X1092Y814D01*
X1092Y816D01*
X1094Y816D01*
X1094Y836D01*
X1090Y836D01*
X1090Y838D01*
X1086Y838D01*
X1086Y840D01*
X1084Y840D01*
X1084Y842D01*
X1082Y842D01*
X1082Y844D01*
X1080Y844D01*
X1080Y846D01*
X1078Y846D01*
X1078Y848D01*
X1076Y848D01*
X1076Y850D01*
X1056Y850D01*
G37*
D02*
G36*
X1132Y626D02*
X1132Y620D01*
X1334Y620D01*
X1334Y618D01*
X1340Y618D01*
X1340Y616D01*
X1346Y616D01*
X1346Y614D01*
X1348Y614D01*
X1348Y612D01*
X1352Y612D01*
X1352Y610D01*
X1354Y610D01*
X1354Y608D01*
X1356Y608D01*
X1356Y606D01*
X1358Y606D01*
X1358Y604D01*
X1360Y604D01*
X1360Y602D01*
X1362Y602D01*
X1362Y598D01*
X1448Y598D01*
X1448Y626D01*
X1132Y626D01*
G37*
D02*
G36*
X1132Y620D02*
X1132Y616D01*
X1134Y616D01*
X1134Y614D01*
X1138Y614D01*
X1138Y612D01*
X1140Y612D01*
X1140Y610D01*
X1142Y610D01*
X1142Y608D01*
X1144Y608D01*
X1144Y606D01*
X1146Y606D01*
X1146Y604D01*
X1148Y604D01*
X1148Y602D01*
X1150Y602D01*
X1150Y598D01*
X1288Y598D01*
X1288Y602D01*
X1290Y602D01*
X1290Y604D01*
X1292Y604D01*
X1292Y606D01*
X1294Y606D01*
X1294Y608D01*
X1296Y608D01*
X1296Y610D01*
X1298Y610D01*
X1298Y612D01*
X1302Y612D01*
X1302Y614D01*
X1304Y614D01*
X1304Y616D01*
X1310Y616D01*
X1310Y618D01*
X1316Y618D01*
X1316Y620D01*
X1132Y620D01*
G37*
D02*
G36*
X1152Y554D02*
X1152Y552D01*
X1150Y552D01*
X1150Y550D01*
X1148Y550D01*
X1148Y548D01*
X1146Y548D01*
X1146Y544D01*
X1144Y544D01*
X1144Y542D01*
X1140Y542D01*
X1140Y540D01*
X1138Y540D01*
X1138Y538D01*
X1136Y538D01*
X1136Y536D01*
X1132Y536D01*
X1132Y516D01*
X1134Y516D01*
X1134Y514D01*
X1138Y514D01*
X1138Y512D01*
X1140Y512D01*
X1140Y510D01*
X1142Y510D01*
X1142Y508D01*
X1144Y508D01*
X1144Y506D01*
X1146Y506D01*
X1146Y504D01*
X1148Y504D01*
X1148Y502D01*
X1150Y502D01*
X1150Y498D01*
X1152Y498D01*
X1152Y494D01*
X1154Y494D01*
X1154Y490D01*
X1156Y490D01*
X1156Y482D01*
X1158Y482D01*
X1158Y470D01*
X1156Y470D01*
X1156Y462D01*
X1154Y462D01*
X1154Y456D01*
X1152Y456D01*
X1152Y452D01*
X1150Y452D01*
X1150Y450D01*
X1148Y450D01*
X1148Y448D01*
X1146Y448D01*
X1146Y444D01*
X1144Y444D01*
X1144Y442D01*
X1140Y442D01*
X1140Y440D01*
X1138Y440D01*
X1138Y438D01*
X1136Y438D01*
X1136Y436D01*
X1132Y436D01*
X1132Y430D01*
X1316Y430D01*
X1316Y432D01*
X1308Y432D01*
X1308Y434D01*
X1304Y434D01*
X1304Y436D01*
X1300Y436D01*
X1300Y438D01*
X1298Y438D01*
X1298Y440D01*
X1296Y440D01*
X1296Y442D01*
X1294Y442D01*
X1294Y444D01*
X1292Y444D01*
X1292Y446D01*
X1290Y446D01*
X1290Y448D01*
X1288Y448D01*
X1288Y452D01*
X1286Y452D01*
X1286Y454D01*
X1284Y454D01*
X1284Y460D01*
X1282Y460D01*
X1282Y466D01*
X1280Y466D01*
X1280Y484D01*
X1282Y484D01*
X1282Y490D01*
X1284Y490D01*
X1284Y494D01*
X1286Y494D01*
X1286Y498D01*
X1288Y498D01*
X1288Y502D01*
X1290Y502D01*
X1290Y504D01*
X1292Y504D01*
X1292Y506D01*
X1294Y506D01*
X1294Y508D01*
X1296Y508D01*
X1296Y510D01*
X1298Y510D01*
X1298Y512D01*
X1302Y512D01*
X1302Y514D01*
X1306Y514D01*
X1306Y534D01*
X1304Y534D01*
X1304Y536D01*
X1302Y536D01*
X1302Y538D01*
X1298Y538D01*
X1298Y540D01*
X1296Y540D01*
X1296Y542D01*
X1294Y542D01*
X1294Y544D01*
X1292Y544D01*
X1292Y546D01*
X1290Y546D01*
X1290Y548D01*
X1288Y548D01*
X1288Y552D01*
X1286Y552D01*
X1286Y554D01*
X1152Y554D01*
G37*
D02*
G36*
X1364Y554D02*
X1364Y552D01*
X1362Y552D01*
X1362Y548D01*
X1360Y548D01*
X1360Y546D01*
X1358Y546D01*
X1358Y544D01*
X1356Y544D01*
X1356Y542D01*
X1354Y542D01*
X1354Y540D01*
X1352Y540D01*
X1352Y538D01*
X1348Y538D01*
X1348Y536D01*
X1346Y536D01*
X1346Y534D01*
X1344Y534D01*
X1344Y524D01*
X1448Y524D01*
X1448Y554D01*
X1364Y554D01*
G37*
D02*
G36*
X1344Y524D02*
X1344Y522D01*
X1584Y522D01*
X1584Y524D01*
X1344Y524D01*
G37*
D02*
G36*
X1344Y524D02*
X1344Y522D01*
X1584Y522D01*
X1584Y524D01*
X1344Y524D01*
G37*
D02*
G36*
X1344Y522D02*
X1344Y514D01*
X1348Y514D01*
X1348Y512D01*
X1352Y512D01*
X1352Y510D01*
X1354Y510D01*
X1354Y508D01*
X1356Y508D01*
X1356Y506D01*
X1358Y506D01*
X1358Y504D01*
X1360Y504D01*
X1360Y502D01*
X1362Y502D01*
X1362Y498D01*
X1364Y498D01*
X1364Y494D01*
X1366Y494D01*
X1366Y490D01*
X1368Y490D01*
X1368Y488D01*
X1514Y488D01*
X1514Y486D01*
X1520Y486D01*
X1520Y484D01*
X1524Y484D01*
X1524Y482D01*
X1526Y482D01*
X1526Y480D01*
X1530Y480D01*
X1530Y478D01*
X1532Y478D01*
X1532Y476D01*
X1534Y476D01*
X1534Y474D01*
X1536Y474D01*
X1536Y472D01*
X1538Y472D01*
X1538Y470D01*
X1540Y470D01*
X1540Y468D01*
X1542Y468D01*
X1542Y464D01*
X1544Y464D01*
X1544Y462D01*
X1546Y462D01*
X1546Y458D01*
X1548Y458D01*
X1548Y452D01*
X1550Y452D01*
X1550Y440D01*
X1552Y440D01*
X1552Y434D01*
X1550Y434D01*
X1550Y422D01*
X1548Y422D01*
X1548Y418D01*
X1546Y418D01*
X1546Y414D01*
X1544Y414D01*
X1544Y410D01*
X1542Y410D01*
X1542Y406D01*
X1540Y406D01*
X1540Y404D01*
X1538Y404D01*
X1538Y402D01*
X1536Y402D01*
X1536Y400D01*
X1534Y400D01*
X1534Y398D01*
X1532Y398D01*
X1532Y396D01*
X1528Y396D01*
X1528Y394D01*
X1526Y394D01*
X1526Y392D01*
X1522Y392D01*
X1522Y390D01*
X1518Y390D01*
X1518Y388D01*
X1510Y388D01*
X1510Y386D01*
X1584Y386D01*
X1584Y522D01*
X1344Y522D01*
G37*
D02*
G36*
X1368Y488D02*
X1368Y484D01*
X1370Y484D01*
X1370Y466D01*
X1368Y466D01*
X1368Y460D01*
X1366Y460D01*
X1366Y454D01*
X1364Y454D01*
X1364Y452D01*
X1362Y452D01*
X1362Y448D01*
X1360Y448D01*
X1360Y446D01*
X1358Y446D01*
X1358Y444D01*
X1356Y444D01*
X1356Y442D01*
X1354Y442D01*
X1354Y440D01*
X1352Y440D01*
X1352Y438D01*
X1350Y438D01*
X1350Y436D01*
X1346Y436D01*
X1346Y434D01*
X1342Y434D01*
X1342Y432D01*
X1334Y432D01*
X1334Y430D01*
X1448Y430D01*
X1448Y448D01*
X1450Y448D01*
X1450Y454D01*
X1452Y454D01*
X1452Y460D01*
X1454Y460D01*
X1454Y462D01*
X1456Y462D01*
X1456Y466D01*
X1458Y466D01*
X1458Y468D01*
X1460Y468D01*
X1460Y472D01*
X1462Y472D01*
X1462Y474D01*
X1464Y474D01*
X1464Y476D01*
X1466Y476D01*
X1466Y478D01*
X1470Y478D01*
X1470Y480D01*
X1472Y480D01*
X1472Y482D01*
X1476Y482D01*
X1476Y484D01*
X1480Y484D01*
X1480Y486D01*
X1486Y486D01*
X1486Y488D01*
X1368Y488D01*
G37*
D02*
G36*
X1132Y430D02*
X1132Y428D01*
X1448Y428D01*
X1448Y430D01*
X1132Y430D01*
G37*
D02*
G36*
X1132Y430D02*
X1132Y428D01*
X1448Y428D01*
X1448Y430D01*
X1132Y430D01*
G37*
D02*
G36*
X1132Y428D02*
X1132Y416D01*
X1134Y416D01*
X1134Y414D01*
X1138Y414D01*
X1138Y412D01*
X1140Y412D01*
X1140Y410D01*
X1142Y410D01*
X1142Y408D01*
X1144Y408D01*
X1144Y406D01*
X1146Y406D01*
X1146Y404D01*
X1148Y404D01*
X1148Y402D01*
X1150Y402D01*
X1150Y398D01*
X1152Y398D01*
X1152Y394D01*
X1154Y394D01*
X1154Y390D01*
X1156Y390D01*
X1156Y386D01*
X1488Y386D01*
X1488Y388D01*
X1482Y388D01*
X1482Y390D01*
X1478Y390D01*
X1478Y392D01*
X1474Y392D01*
X1474Y394D01*
X1470Y394D01*
X1470Y396D01*
X1468Y396D01*
X1468Y398D01*
X1466Y398D01*
X1466Y400D01*
X1462Y400D01*
X1462Y404D01*
X1460Y404D01*
X1460Y406D01*
X1458Y406D01*
X1458Y408D01*
X1456Y408D01*
X1456Y412D01*
X1454Y412D01*
X1454Y416D01*
X1452Y416D01*
X1452Y420D01*
X1450Y420D01*
X1450Y428D01*
X1132Y428D01*
G37*
D02*
G36*
X1156Y386D02*
X1156Y384D01*
X1584Y384D01*
X1584Y386D01*
X1156Y386D01*
G37*
D02*
G36*
X1156Y386D02*
X1156Y384D01*
X1584Y384D01*
X1584Y386D01*
X1156Y386D01*
G37*
D02*
G36*
X1156Y384D02*
X1156Y382D01*
X1158Y382D01*
X1158Y370D01*
X1156Y370D01*
X1156Y362D01*
X1154Y362D01*
X1154Y356D01*
X1152Y356D01*
X1152Y352D01*
X1150Y352D01*
X1150Y350D01*
X1148Y350D01*
X1148Y348D01*
X1146Y348D01*
X1146Y344D01*
X1144Y344D01*
X1144Y342D01*
X1140Y342D01*
X1140Y340D01*
X1138Y340D01*
X1138Y338D01*
X1136Y338D01*
X1136Y336D01*
X1132Y336D01*
X1132Y316D01*
X1134Y316D01*
X1134Y314D01*
X1138Y314D01*
X1138Y312D01*
X1140Y312D01*
X1140Y310D01*
X1142Y310D01*
X1142Y308D01*
X1144Y308D01*
X1144Y306D01*
X1146Y306D01*
X1146Y304D01*
X1148Y304D01*
X1148Y302D01*
X1150Y302D01*
X1150Y298D01*
X1152Y298D01*
X1152Y294D01*
X1154Y294D01*
X1154Y290D01*
X1156Y290D01*
X1156Y282D01*
X1158Y282D01*
X1158Y270D01*
X1156Y270D01*
X1156Y262D01*
X1154Y262D01*
X1154Y256D01*
X1152Y256D01*
X1152Y252D01*
X1150Y252D01*
X1150Y250D01*
X1148Y250D01*
X1148Y248D01*
X1146Y248D01*
X1146Y244D01*
X1144Y244D01*
X1144Y242D01*
X1140Y242D01*
X1140Y240D01*
X1138Y240D01*
X1138Y238D01*
X1136Y238D01*
X1136Y236D01*
X1132Y236D01*
X1132Y234D01*
X1126Y234D01*
X1126Y232D01*
X1118Y232D01*
X1118Y230D01*
X1584Y230D01*
X1584Y384D01*
X1156Y384D01*
G37*
D02*
G36*
X438Y354D02*
X438Y352D01*
X404Y352D01*
X404Y350D01*
X400Y350D01*
X400Y348D01*
X398Y348D01*
X398Y346D01*
X394Y346D01*
X394Y344D01*
X392Y344D01*
X392Y342D01*
X388Y342D01*
X388Y340D01*
X386Y340D01*
X386Y338D01*
X382Y338D01*
X382Y336D01*
X380Y336D01*
X380Y334D01*
X376Y334D01*
X376Y332D01*
X374Y332D01*
X374Y330D01*
X370Y330D01*
X370Y328D01*
X368Y328D01*
X368Y326D01*
X364Y326D01*
X364Y324D01*
X362Y324D01*
X362Y322D01*
X358Y322D01*
X358Y320D01*
X354Y320D01*
X354Y318D01*
X352Y318D01*
X352Y316D01*
X348Y316D01*
X348Y314D01*
X346Y314D01*
X346Y312D01*
X342Y312D01*
X342Y310D01*
X340Y310D01*
X340Y308D01*
X336Y308D01*
X336Y306D01*
X334Y306D01*
X334Y304D01*
X282Y304D01*
X282Y302D01*
X478Y302D01*
X478Y306D01*
X480Y306D01*
X480Y308D01*
X482Y308D01*
X482Y310D01*
X484Y310D01*
X484Y312D01*
X488Y312D01*
X488Y314D01*
X492Y314D01*
X492Y316D01*
X494Y316D01*
X494Y336D01*
X490Y336D01*
X490Y338D01*
X486Y338D01*
X486Y340D01*
X484Y340D01*
X484Y342D01*
X482Y342D01*
X482Y344D01*
X480Y344D01*
X480Y346D01*
X478Y346D01*
X478Y348D01*
X476Y348D01*
X476Y352D01*
X474Y352D01*
X474Y354D01*
X438Y354D01*
G37*
D02*
G36*
X40Y302D02*
X40Y300D01*
X476Y300D01*
X476Y302D01*
X40Y302D01*
G37*
D02*
G36*
X40Y302D02*
X40Y300D01*
X476Y300D01*
X476Y302D01*
X40Y302D01*
G37*
D02*
G36*
X40Y300D02*
X40Y270D01*
X234Y270D01*
X234Y268D01*
X240Y268D01*
X240Y266D01*
X246Y266D01*
X246Y264D01*
X248Y264D01*
X248Y262D01*
X252Y262D01*
X252Y260D01*
X254Y260D01*
X254Y258D01*
X256Y258D01*
X256Y256D01*
X258Y256D01*
X258Y254D01*
X260Y254D01*
X260Y252D01*
X262Y252D01*
X262Y248D01*
X264Y248D01*
X264Y246D01*
X266Y246D01*
X266Y244D01*
X286Y244D01*
X286Y248D01*
X288Y248D01*
X288Y252D01*
X290Y252D01*
X290Y254D01*
X292Y254D01*
X292Y256D01*
X294Y256D01*
X294Y258D01*
X296Y258D01*
X296Y260D01*
X298Y260D01*
X298Y262D01*
X302Y262D01*
X302Y264D01*
X306Y264D01*
X306Y266D01*
X310Y266D01*
X310Y268D01*
X316Y268D01*
X316Y270D01*
X340Y270D01*
X340Y272D01*
X342Y272D01*
X342Y274D01*
X344Y274D01*
X344Y276D01*
X346Y276D01*
X346Y278D01*
X348Y278D01*
X348Y280D01*
X350Y280D01*
X350Y282D01*
X352Y282D01*
X352Y284D01*
X354Y284D01*
X354Y286D01*
X356Y286D01*
X356Y288D01*
X358Y288D01*
X358Y290D01*
X360Y290D01*
X360Y292D01*
X362Y292D01*
X362Y294D01*
X366Y294D01*
X366Y296D01*
X370Y296D01*
X370Y298D01*
X474Y298D01*
X474Y300D01*
X40Y300D01*
G37*
D02*
G36*
X40Y270D02*
X40Y180D01*
X216Y180D01*
X216Y182D01*
X210Y182D01*
X210Y184D01*
X204Y184D01*
X204Y186D01*
X202Y186D01*
X202Y188D01*
X198Y188D01*
X198Y190D01*
X196Y190D01*
X196Y192D01*
X194Y192D01*
X194Y194D01*
X192Y194D01*
X192Y196D01*
X190Y196D01*
X190Y198D01*
X188Y198D01*
X188Y202D01*
X186Y202D01*
X186Y204D01*
X184Y204D01*
X184Y210D01*
X182Y210D01*
X182Y216D01*
X180Y216D01*
X180Y234D01*
X182Y234D01*
X182Y240D01*
X184Y240D01*
X184Y246D01*
X186Y246D01*
X186Y248D01*
X188Y248D01*
X188Y252D01*
X190Y252D01*
X190Y254D01*
X192Y254D01*
X192Y256D01*
X194Y256D01*
X194Y258D01*
X196Y258D01*
X196Y260D01*
X198Y260D01*
X198Y262D01*
X202Y262D01*
X202Y264D01*
X204Y264D01*
X204Y266D01*
X210Y266D01*
X210Y268D01*
X216Y268D01*
X216Y270D01*
X40Y270D01*
G37*
D02*
G36*
X1048Y230D02*
X1048Y228D01*
X1584Y228D01*
X1584Y230D01*
X1048Y230D01*
G37*
D02*
G36*
X1048Y230D02*
X1048Y228D01*
X1584Y228D01*
X1584Y230D01*
X1048Y230D01*
G37*
D02*
G36*
X1048Y228D02*
X1048Y192D01*
X1050Y192D01*
X1050Y188D01*
X1052Y188D01*
X1052Y184D01*
X1054Y184D01*
X1054Y166D01*
X1052Y166D01*
X1052Y162D01*
X1050Y162D01*
X1050Y158D01*
X1048Y158D01*
X1048Y156D01*
X1046Y156D01*
X1046Y154D01*
X1044Y154D01*
X1044Y152D01*
X1042Y152D01*
X1042Y150D01*
X1038Y150D01*
X1038Y148D01*
X1034Y148D01*
X1034Y146D01*
X1584Y146D01*
X1584Y228D01*
X1048Y228D01*
G37*
D02*
G36*
X266Y206D02*
X266Y204D01*
X264Y204D01*
X264Y202D01*
X262Y202D01*
X262Y198D01*
X260Y198D01*
X260Y196D01*
X258Y196D01*
X258Y194D01*
X256Y194D01*
X256Y192D01*
X254Y192D01*
X254Y190D01*
X252Y190D01*
X252Y188D01*
X248Y188D01*
X248Y186D01*
X246Y186D01*
X246Y184D01*
X240Y184D01*
X240Y182D01*
X234Y182D01*
X234Y180D01*
X316Y180D01*
X316Y182D01*
X310Y182D01*
X310Y184D01*
X306Y184D01*
X306Y186D01*
X302Y186D01*
X302Y188D01*
X298Y188D01*
X298Y190D01*
X296Y190D01*
X296Y192D01*
X294Y192D01*
X294Y194D01*
X292Y194D01*
X292Y196D01*
X290Y196D01*
X290Y198D01*
X288Y198D01*
X288Y202D01*
X286Y202D01*
X286Y206D01*
X266Y206D01*
G37*
D02*
G36*
X40Y180D02*
X40Y178D01*
X340Y178D01*
X340Y180D01*
X40Y180D01*
G37*
D02*
G36*
X40Y180D02*
X40Y178D01*
X340Y178D01*
X340Y180D01*
X40Y180D01*
G37*
D02*
G36*
X40Y178D02*
X40Y154D01*
X366Y154D01*
X366Y156D01*
X364Y156D01*
X364Y158D01*
X360Y158D01*
X360Y160D01*
X358Y160D01*
X358Y162D01*
X356Y162D01*
X356Y164D01*
X354Y164D01*
X354Y166D01*
X352Y166D01*
X352Y168D01*
X350Y168D01*
X350Y170D01*
X348Y170D01*
X348Y172D01*
X346Y172D01*
X346Y174D01*
X344Y174D01*
X344Y176D01*
X342Y176D01*
X342Y178D01*
X40Y178D01*
G37*
D02*
G36*
X40Y154D02*
X40Y152D01*
X1006Y152D01*
X1006Y154D01*
X40Y154D01*
G37*
D02*
G36*
X40Y154D02*
X40Y152D01*
X1006Y152D01*
X1006Y154D01*
X40Y154D01*
G37*
D02*
G36*
X40Y152D02*
X40Y146D01*
X1016Y146D01*
X1016Y148D01*
X1012Y148D01*
X1012Y150D01*
X1008Y150D01*
X1008Y152D01*
X40Y152D01*
G37*
D02*
G36*
X40Y146D02*
X40Y144D01*
X1584Y144D01*
X1584Y146D01*
X40Y146D01*
G37*
D02*
G36*
X40Y146D02*
X40Y144D01*
X1584Y144D01*
X1584Y146D01*
X40Y146D01*
G37*
D02*
G36*
X40Y144D02*
X40Y128D01*
X1562Y128D01*
X1562Y126D01*
X1584Y126D01*
X1584Y144D01*
X40Y144D01*
G37*
D02*
G36*
X40Y128D02*
X40Y126D01*
X64Y126D01*
X64Y128D01*
X40Y128D01*
G37*
D02*
G36*
X86Y128D02*
X86Y126D01*
X92Y126D01*
X92Y124D01*
X98Y124D01*
X98Y122D01*
X102Y122D01*
X102Y120D01*
X104Y120D01*
X104Y118D01*
X108Y118D01*
X108Y116D01*
X110Y116D01*
X110Y114D01*
X112Y114D01*
X112Y112D01*
X114Y112D01*
X114Y110D01*
X116Y110D01*
X116Y108D01*
X118Y108D01*
X118Y104D01*
X120Y104D01*
X120Y102D01*
X122Y102D01*
X122Y98D01*
X124Y98D01*
X124Y92D01*
X126Y92D01*
X126Y86D01*
X128Y86D01*
X128Y64D01*
X126Y64D01*
X126Y40D01*
X1500Y40D01*
X1500Y60D01*
X1498Y60D01*
X1498Y70D01*
X1496Y70D01*
X1496Y80D01*
X1498Y80D01*
X1498Y90D01*
X1500Y90D01*
X1500Y96D01*
X1502Y96D01*
X1502Y100D01*
X1504Y100D01*
X1504Y104D01*
X1506Y104D01*
X1506Y106D01*
X1508Y106D01*
X1508Y108D01*
X1510Y108D01*
X1510Y112D01*
X1512Y112D01*
X1512Y114D01*
X1516Y114D01*
X1516Y116D01*
X1518Y116D01*
X1518Y118D01*
X1520Y118D01*
X1520Y120D01*
X1524Y120D01*
X1524Y122D01*
X1528Y122D01*
X1528Y124D01*
X1532Y124D01*
X1532Y126D01*
X1538Y126D01*
X1538Y128D01*
X86Y128D01*
G37*
D02*
G36*
X1208Y778D02*
X1208Y776D01*
X1206Y776D01*
X1206Y774D01*
X1204Y774D01*
X1204Y772D01*
X1202Y772D01*
X1202Y770D01*
X1200Y770D01*
X1200Y768D01*
X1198Y768D01*
X1198Y766D01*
X1196Y766D01*
X1196Y764D01*
X1194Y764D01*
X1194Y762D01*
X1192Y762D01*
X1192Y760D01*
X1190Y760D01*
X1190Y758D01*
X1186Y758D01*
X1186Y756D01*
X1182Y756D01*
X1182Y754D01*
X1152Y754D01*
X1152Y752D01*
X1150Y752D01*
X1150Y750D01*
X1148Y750D01*
X1148Y748D01*
X1146Y748D01*
X1146Y744D01*
X1144Y744D01*
X1144Y742D01*
X1140Y742D01*
X1140Y740D01*
X1138Y740D01*
X1138Y738D01*
X1136Y738D01*
X1136Y736D01*
X1132Y736D01*
X1132Y716D01*
X1134Y716D01*
X1134Y714D01*
X1138Y714D01*
X1138Y712D01*
X1140Y712D01*
X1140Y710D01*
X1142Y710D01*
X1142Y708D01*
X1144Y708D01*
X1144Y706D01*
X1146Y706D01*
X1146Y704D01*
X1148Y704D01*
X1148Y702D01*
X1150Y702D01*
X1150Y698D01*
X1218Y698D01*
X1218Y700D01*
X1220Y700D01*
X1220Y702D01*
X1222Y702D01*
X1222Y704D01*
X1224Y704D01*
X1224Y706D01*
X1226Y706D01*
X1226Y708D01*
X1228Y708D01*
X1228Y778D01*
X1208Y778D01*
G37*
D02*
G36*
X460Y444D02*
X460Y442D01*
X456Y442D01*
X456Y440D01*
X452Y440D01*
X452Y438D01*
X448Y438D01*
X448Y436D01*
X444Y436D01*
X444Y434D01*
X440Y434D01*
X440Y432D01*
X436Y432D01*
X436Y430D01*
X432Y430D01*
X432Y428D01*
X428Y428D01*
X428Y426D01*
X424Y426D01*
X424Y424D01*
X420Y424D01*
X420Y422D01*
X416Y422D01*
X416Y420D01*
X412Y420D01*
X412Y418D01*
X408Y418D01*
X408Y416D01*
X404Y416D01*
X404Y396D01*
X436Y396D01*
X436Y398D01*
X474Y398D01*
X474Y400D01*
X476Y400D01*
X476Y402D01*
X478Y402D01*
X478Y406D01*
X480Y406D01*
X480Y408D01*
X482Y408D01*
X482Y410D01*
X484Y410D01*
X484Y412D01*
X488Y412D01*
X488Y414D01*
X492Y414D01*
X492Y416D01*
X494Y416D01*
X494Y436D01*
X490Y436D01*
X490Y438D01*
X486Y438D01*
X486Y440D01*
X484Y440D01*
X484Y442D01*
X482Y442D01*
X482Y444D01*
X460Y444D01*
G37*
D02*
G36*
X852Y2066D02*
X852Y2064D01*
X850Y2064D01*
X850Y2060D01*
X848Y2060D01*
X848Y2058D01*
X846Y2058D01*
X846Y2056D01*
X844Y2056D01*
X844Y2054D01*
X842Y2054D01*
X842Y2052D01*
X838Y2052D01*
X838Y2050D01*
X834Y2050D01*
X834Y2044D01*
X900Y2044D01*
X900Y2046D01*
X894Y2046D01*
X894Y2048D01*
X890Y2048D01*
X890Y2050D01*
X886Y2050D01*
X886Y2052D01*
X884Y2052D01*
X884Y2054D01*
X882Y2054D01*
X882Y2056D01*
X880Y2056D01*
X880Y2058D01*
X878Y2058D01*
X878Y2060D01*
X876Y2060D01*
X876Y2062D01*
X874Y2062D01*
X874Y2064D01*
X872Y2064D01*
X872Y2066D01*
X852Y2066D01*
G37*
D02*
G36*
X952Y2066D02*
X952Y2064D01*
X950Y2064D01*
X950Y2060D01*
X948Y2060D01*
X948Y2058D01*
X946Y2058D01*
X946Y2056D01*
X944Y2056D01*
X944Y2054D01*
X942Y2054D01*
X942Y2052D01*
X938Y2052D01*
X938Y2050D01*
X934Y2050D01*
X934Y2048D01*
X932Y2048D01*
X932Y2046D01*
X926Y2046D01*
X926Y2044D01*
X1000Y2044D01*
X1000Y2046D01*
X994Y2046D01*
X994Y2048D01*
X990Y2048D01*
X990Y2050D01*
X986Y2050D01*
X986Y2052D01*
X984Y2052D01*
X984Y2054D01*
X982Y2054D01*
X982Y2056D01*
X980Y2056D01*
X980Y2058D01*
X978Y2058D01*
X978Y2060D01*
X976Y2060D01*
X976Y2062D01*
X974Y2062D01*
X974Y2064D01*
X972Y2064D01*
X972Y2066D01*
X952Y2066D01*
G37*
D02*
G36*
X1052Y2066D02*
X1052Y2064D01*
X1050Y2064D01*
X1050Y2060D01*
X1048Y2060D01*
X1048Y2058D01*
X1046Y2058D01*
X1046Y2056D01*
X1044Y2056D01*
X1044Y2054D01*
X1042Y2054D01*
X1042Y2052D01*
X1038Y2052D01*
X1038Y2050D01*
X1034Y2050D01*
X1034Y2048D01*
X1032Y2048D01*
X1032Y2046D01*
X1026Y2046D01*
X1026Y2044D01*
X1100Y2044D01*
X1100Y2046D01*
X1094Y2046D01*
X1094Y2048D01*
X1090Y2048D01*
X1090Y2050D01*
X1086Y2050D01*
X1086Y2052D01*
X1084Y2052D01*
X1084Y2054D01*
X1082Y2054D01*
X1082Y2056D01*
X1080Y2056D01*
X1080Y2058D01*
X1078Y2058D01*
X1078Y2060D01*
X1076Y2060D01*
X1076Y2062D01*
X1074Y2062D01*
X1074Y2064D01*
X1072Y2064D01*
X1072Y2066D01*
X1052Y2066D01*
G37*
D02*
G36*
X1152Y2066D02*
X1152Y2064D01*
X1150Y2064D01*
X1150Y2060D01*
X1148Y2060D01*
X1148Y2058D01*
X1146Y2058D01*
X1146Y2056D01*
X1144Y2056D01*
X1144Y2054D01*
X1142Y2054D01*
X1142Y2052D01*
X1138Y2052D01*
X1138Y2050D01*
X1134Y2050D01*
X1134Y2048D01*
X1132Y2048D01*
X1132Y2046D01*
X1126Y2046D01*
X1126Y2044D01*
X1200Y2044D01*
X1200Y2046D01*
X1194Y2046D01*
X1194Y2048D01*
X1190Y2048D01*
X1190Y2050D01*
X1186Y2050D01*
X1186Y2052D01*
X1184Y2052D01*
X1184Y2054D01*
X1182Y2054D01*
X1182Y2056D01*
X1180Y2056D01*
X1180Y2058D01*
X1178Y2058D01*
X1178Y2060D01*
X1176Y2060D01*
X1176Y2062D01*
X1174Y2062D01*
X1174Y2064D01*
X1172Y2064D01*
X1172Y2066D01*
X1152Y2066D01*
G37*
D02*
G36*
X1252Y2066D02*
X1252Y2064D01*
X1250Y2064D01*
X1250Y2060D01*
X1248Y2060D01*
X1248Y2058D01*
X1246Y2058D01*
X1246Y2056D01*
X1244Y2056D01*
X1244Y2054D01*
X1242Y2054D01*
X1242Y2052D01*
X1238Y2052D01*
X1238Y2050D01*
X1234Y2050D01*
X1234Y2048D01*
X1232Y2048D01*
X1232Y2046D01*
X1226Y2046D01*
X1226Y2044D01*
X1290Y2044D01*
X1290Y2050D01*
X1286Y2050D01*
X1286Y2052D01*
X1284Y2052D01*
X1284Y2054D01*
X1282Y2054D01*
X1282Y2056D01*
X1280Y2056D01*
X1280Y2058D01*
X1278Y2058D01*
X1278Y2060D01*
X1276Y2060D01*
X1276Y2062D01*
X1274Y2062D01*
X1274Y2064D01*
X1272Y2064D01*
X1272Y2066D01*
X1252Y2066D01*
G37*
D02*
G36*
X834Y2044D02*
X834Y2042D01*
X1290Y2042D01*
X1290Y2044D01*
X834Y2044D01*
G37*
D02*
G36*
X834Y2044D02*
X834Y2042D01*
X1290Y2042D01*
X1290Y2044D01*
X834Y2044D01*
G37*
D02*
G36*
X834Y2044D02*
X834Y2042D01*
X1290Y2042D01*
X1290Y2044D01*
X834Y2044D01*
G37*
D02*
G36*
X834Y2044D02*
X834Y2042D01*
X1290Y2042D01*
X1290Y2044D01*
X834Y2044D01*
G37*
D02*
G36*
X834Y2044D02*
X834Y2042D01*
X1290Y2042D01*
X1290Y2044D01*
X834Y2044D01*
G37*
D02*
G36*
X834Y2042D02*
X834Y1804D01*
X884Y1804D01*
X884Y1802D01*
X888Y1802D01*
X888Y1800D01*
X892Y1800D01*
X892Y1798D01*
X894Y1798D01*
X894Y1796D01*
X896Y1796D01*
X896Y1794D01*
X898Y1794D01*
X898Y1792D01*
X900Y1792D01*
X900Y1788D01*
X902Y1788D01*
X902Y1784D01*
X904Y1784D01*
X904Y1766D01*
X902Y1766D01*
X902Y1762D01*
X900Y1762D01*
X900Y1758D01*
X898Y1758D01*
X898Y292D01*
X900Y292D01*
X900Y288D01*
X902Y288D01*
X902Y284D01*
X904Y284D01*
X904Y266D01*
X902Y266D01*
X902Y262D01*
X900Y262D01*
X900Y258D01*
X898Y258D01*
X898Y256D01*
X896Y256D01*
X896Y254D01*
X894Y254D01*
X894Y252D01*
X892Y252D01*
X892Y250D01*
X888Y250D01*
X888Y248D01*
X884Y248D01*
X884Y246D01*
X928Y246D01*
X928Y1832D01*
X930Y1832D01*
X930Y1836D01*
X932Y1836D01*
X932Y1838D01*
X934Y1838D01*
X934Y1840D01*
X936Y1840D01*
X936Y1842D01*
X938Y1842D01*
X938Y1844D01*
X940Y1844D01*
X940Y1846D01*
X942Y1846D01*
X942Y1848D01*
X944Y1848D01*
X944Y1850D01*
X946Y1850D01*
X946Y1852D01*
X948Y1852D01*
X948Y1854D01*
X950Y1854D01*
X950Y1856D01*
X952Y1856D01*
X952Y1858D01*
X954Y1858D01*
X954Y1860D01*
X956Y1860D01*
X956Y1862D01*
X958Y1862D01*
X958Y1864D01*
X960Y1864D01*
X960Y1866D01*
X962Y1866D01*
X962Y1868D01*
X964Y1868D01*
X964Y1870D01*
X966Y1870D01*
X966Y1872D01*
X968Y1872D01*
X968Y1874D01*
X970Y1874D01*
X970Y1876D01*
X972Y1876D01*
X972Y1878D01*
X974Y1878D01*
X974Y1880D01*
X976Y1880D01*
X976Y1882D01*
X978Y1882D01*
X978Y1884D01*
X980Y1884D01*
X980Y1886D01*
X982Y1886D01*
X982Y1888D01*
X984Y1888D01*
X984Y1890D01*
X986Y1890D01*
X986Y1892D01*
X988Y1892D01*
X988Y1894D01*
X992Y1894D01*
X992Y1896D01*
X998Y1896D01*
X998Y1898D01*
X1270Y1898D01*
X1270Y1900D01*
X1274Y1900D01*
X1274Y1902D01*
X1276Y1902D01*
X1276Y1904D01*
X1280Y1904D01*
X1280Y1906D01*
X1284Y1906D01*
X1284Y1908D01*
X1286Y1908D01*
X1286Y1910D01*
X1290Y1910D01*
X1290Y2042D01*
X834Y2042D01*
G37*
D02*
G36*
X834Y1804D02*
X834Y1794D01*
X854Y1794D01*
X854Y1796D01*
X856Y1796D01*
X856Y1798D01*
X858Y1798D01*
X858Y1800D01*
X862Y1800D01*
X862Y1802D01*
X866Y1802D01*
X866Y1804D01*
X834Y1804D01*
G37*
D02*
G36*
X832Y792D02*
X832Y788D01*
X830Y788D01*
X830Y786D01*
X828Y786D01*
X828Y784D01*
X826Y784D01*
X826Y782D01*
X824Y782D01*
X824Y780D01*
X820Y780D01*
X820Y778D01*
X818Y778D01*
X818Y776D01*
X814Y776D01*
X814Y774D01*
X812Y774D01*
X812Y772D01*
X808Y772D01*
X808Y770D01*
X806Y770D01*
X806Y768D01*
X802Y768D01*
X802Y766D01*
X800Y766D01*
X800Y764D01*
X796Y764D01*
X796Y762D01*
X794Y762D01*
X794Y760D01*
X790Y760D01*
X790Y758D01*
X788Y758D01*
X788Y756D01*
X784Y756D01*
X784Y754D01*
X552Y754D01*
X552Y752D01*
X550Y752D01*
X550Y750D01*
X548Y750D01*
X548Y748D01*
X546Y748D01*
X546Y744D01*
X544Y744D01*
X544Y742D01*
X540Y742D01*
X540Y740D01*
X538Y740D01*
X538Y738D01*
X536Y738D01*
X536Y736D01*
X532Y736D01*
X532Y716D01*
X534Y716D01*
X534Y714D01*
X538Y714D01*
X538Y712D01*
X540Y712D01*
X540Y710D01*
X542Y710D01*
X542Y708D01*
X544Y708D01*
X544Y706D01*
X546Y706D01*
X546Y704D01*
X548Y704D01*
X548Y702D01*
X550Y702D01*
X550Y698D01*
X552Y698D01*
X552Y694D01*
X554Y694D01*
X554Y690D01*
X556Y690D01*
X556Y682D01*
X558Y682D01*
X558Y670D01*
X556Y670D01*
X556Y662D01*
X554Y662D01*
X554Y656D01*
X552Y656D01*
X552Y652D01*
X550Y652D01*
X550Y650D01*
X548Y650D01*
X548Y648D01*
X546Y648D01*
X546Y644D01*
X544Y644D01*
X544Y642D01*
X540Y642D01*
X540Y640D01*
X538Y640D01*
X538Y638D01*
X536Y638D01*
X536Y636D01*
X532Y636D01*
X532Y616D01*
X534Y616D01*
X534Y614D01*
X538Y614D01*
X538Y612D01*
X540Y612D01*
X540Y610D01*
X542Y610D01*
X542Y608D01*
X544Y608D01*
X544Y606D01*
X546Y606D01*
X546Y604D01*
X548Y604D01*
X548Y602D01*
X550Y602D01*
X550Y598D01*
X552Y598D01*
X552Y594D01*
X554Y594D01*
X554Y590D01*
X556Y590D01*
X556Y582D01*
X558Y582D01*
X558Y570D01*
X556Y570D01*
X556Y562D01*
X554Y562D01*
X554Y556D01*
X552Y556D01*
X552Y552D01*
X550Y552D01*
X550Y550D01*
X548Y550D01*
X548Y548D01*
X546Y548D01*
X546Y544D01*
X544Y544D01*
X544Y542D01*
X540Y542D01*
X540Y540D01*
X538Y540D01*
X538Y538D01*
X536Y538D01*
X536Y536D01*
X532Y536D01*
X532Y516D01*
X534Y516D01*
X534Y514D01*
X538Y514D01*
X538Y512D01*
X540Y512D01*
X540Y510D01*
X542Y510D01*
X542Y508D01*
X544Y508D01*
X544Y506D01*
X546Y506D01*
X546Y504D01*
X548Y504D01*
X548Y502D01*
X550Y502D01*
X550Y498D01*
X552Y498D01*
X552Y494D01*
X554Y494D01*
X554Y490D01*
X556Y490D01*
X556Y482D01*
X558Y482D01*
X558Y470D01*
X556Y470D01*
X556Y462D01*
X554Y462D01*
X554Y456D01*
X552Y456D01*
X552Y452D01*
X550Y452D01*
X550Y450D01*
X548Y450D01*
X548Y448D01*
X546Y448D01*
X546Y444D01*
X544Y444D01*
X544Y442D01*
X540Y442D01*
X540Y440D01*
X538Y440D01*
X538Y438D01*
X536Y438D01*
X536Y436D01*
X532Y436D01*
X532Y416D01*
X534Y416D01*
X534Y414D01*
X538Y414D01*
X538Y412D01*
X540Y412D01*
X540Y410D01*
X542Y410D01*
X542Y408D01*
X544Y408D01*
X544Y406D01*
X546Y406D01*
X546Y404D01*
X548Y404D01*
X548Y402D01*
X550Y402D01*
X550Y398D01*
X552Y398D01*
X552Y394D01*
X554Y394D01*
X554Y390D01*
X556Y390D01*
X556Y382D01*
X558Y382D01*
X558Y370D01*
X556Y370D01*
X556Y362D01*
X554Y362D01*
X554Y356D01*
X552Y356D01*
X552Y352D01*
X550Y352D01*
X550Y350D01*
X548Y350D01*
X548Y348D01*
X546Y348D01*
X546Y344D01*
X544Y344D01*
X544Y342D01*
X540Y342D01*
X540Y340D01*
X538Y340D01*
X538Y338D01*
X536Y338D01*
X536Y336D01*
X532Y336D01*
X532Y316D01*
X534Y316D01*
X534Y314D01*
X538Y314D01*
X538Y312D01*
X540Y312D01*
X540Y310D01*
X542Y310D01*
X542Y308D01*
X544Y308D01*
X544Y306D01*
X546Y306D01*
X546Y304D01*
X548Y304D01*
X548Y302D01*
X550Y302D01*
X550Y298D01*
X552Y298D01*
X552Y294D01*
X554Y294D01*
X554Y290D01*
X556Y290D01*
X556Y282D01*
X558Y282D01*
X558Y270D01*
X556Y270D01*
X556Y262D01*
X554Y262D01*
X554Y256D01*
X552Y256D01*
X552Y252D01*
X550Y252D01*
X550Y250D01*
X548Y250D01*
X548Y248D01*
X546Y248D01*
X546Y246D01*
X866Y246D01*
X866Y248D01*
X862Y248D01*
X862Y250D01*
X858Y250D01*
X858Y252D01*
X856Y252D01*
X856Y254D01*
X854Y254D01*
X854Y256D01*
X852Y256D01*
X852Y258D01*
X850Y258D01*
X850Y262D01*
X848Y262D01*
X848Y266D01*
X846Y266D01*
X846Y284D01*
X848Y284D01*
X848Y288D01*
X850Y288D01*
X850Y292D01*
X852Y292D01*
X852Y792D01*
X832Y792D01*
G37*
D02*
G36*
X384Y254D02*
X384Y252D01*
X382Y252D01*
X382Y250D01*
X380Y250D01*
X380Y248D01*
X378Y248D01*
X378Y246D01*
X376Y246D01*
X376Y244D01*
X374Y244D01*
X374Y242D01*
X372Y242D01*
X372Y240D01*
X370Y240D01*
X370Y230D01*
X508Y230D01*
X508Y232D01*
X500Y232D01*
X500Y234D01*
X494Y234D01*
X494Y236D01*
X490Y236D01*
X490Y238D01*
X486Y238D01*
X486Y240D01*
X484Y240D01*
X484Y242D01*
X482Y242D01*
X482Y244D01*
X480Y244D01*
X480Y246D01*
X478Y246D01*
X478Y248D01*
X476Y248D01*
X476Y252D01*
X474Y252D01*
X474Y254D01*
X384Y254D01*
G37*
D02*
G36*
X546Y246D02*
X546Y244D01*
X928Y244D01*
X928Y246D01*
X546Y246D01*
G37*
D02*
G36*
X546Y246D02*
X546Y244D01*
X928Y244D01*
X928Y246D01*
X546Y246D01*
G37*
D02*
G36*
X544Y244D02*
X544Y242D01*
X540Y242D01*
X540Y240D01*
X538Y240D01*
X538Y238D01*
X536Y238D01*
X536Y236D01*
X532Y236D01*
X532Y234D01*
X526Y234D01*
X526Y232D01*
X518Y232D01*
X518Y230D01*
X928Y230D01*
X928Y244D01*
X544Y244D01*
G37*
D02*
G36*
X370Y230D02*
X370Y228D01*
X928Y228D01*
X928Y230D01*
X370Y230D01*
G37*
D02*
G36*
X370Y230D02*
X370Y228D01*
X928Y228D01*
X928Y230D01*
X370Y230D01*
G37*
D02*
G36*
X370Y228D02*
X370Y210D01*
X372Y210D01*
X372Y208D01*
X374Y208D01*
X374Y206D01*
X376Y206D01*
X376Y204D01*
X378Y204D01*
X378Y202D01*
X380Y202D01*
X380Y200D01*
X382Y200D01*
X382Y198D01*
X918Y198D01*
X918Y200D01*
X920Y200D01*
X920Y202D01*
X922Y202D01*
X922Y204D01*
X924Y204D01*
X924Y206D01*
X926Y206D01*
X926Y208D01*
X928Y208D01*
X928Y228D01*
X370Y228D01*
G37*
D02*
G36*
X1303Y1562D02*
X1344Y1562D01*
X1344Y1530D01*
X1303Y1530D01*
X1303Y1562D01*
G37*
D02*
G36*
X1338Y1597D02*
X1370Y1597D01*
X1370Y1556D01*
X1338Y1556D01*
X1338Y1597D01*
G37*
D02*
G36*
X203Y212D02*
X244Y212D01*
X244Y180D01*
X203Y180D01*
X203Y212D01*
G37*
D02*
G36*
X176Y247D02*
X208Y247D01*
X208Y206D01*
X176Y206D01*
X176Y247D01*
G37*
D02*
G36*
X1474Y1518D02*
X1521Y1518D01*
X1521Y1486D01*
X1474Y1486D01*
X1474Y1518D01*
G37*
D02*
G36*
X1518Y1562D02*
X1552Y1562D01*
X1552Y1515D01*
X1518Y1515D01*
X1518Y1562D01*
G37*
D02*
G36*
X311Y1196D02*
X336Y1196D01*
X336Y1170D01*
X311Y1170D01*
X311Y1196D01*
G37*
D02*
G36*
X1303Y1012D02*
X1344Y1012D01*
X1344Y980D01*
X1303Y980D01*
X1303Y1012D01*
G37*
D02*
G36*
X1338Y1047D02*
X1370Y1047D01*
X1370Y1006D01*
X1338Y1006D01*
X1338Y1047D01*
G37*
D02*
G36*
X1288Y2240D02*
X1331Y2240D01*
X1331Y2212D01*
X1288Y2212D01*
X1288Y2240D01*
G37*
D02*
G36*
X1303Y462D02*
X1344Y462D01*
X1344Y430D01*
X1303Y430D01*
X1303Y462D01*
G37*
D02*
G36*
X1276Y497D02*
X1308Y497D01*
X1308Y456D01*
X1276Y456D01*
X1276Y497D01*
G37*
D02*
G36*
X1338Y497D02*
X1370Y497D01*
X1370Y456D01*
X1338Y456D01*
X1338Y497D01*
G37*
D02*
G36*
X590Y2240D02*
X633Y2240D01*
X633Y2212D01*
X590Y2212D01*
X590Y2240D01*
G37*
D02*
G36*
X1474Y968D02*
X1521Y968D01*
X1521Y936D01*
X1474Y936D01*
X1474Y968D01*
G37*
D02*
G36*
X1518Y1012D02*
X1552Y1012D01*
X1552Y965D01*
X1518Y965D01*
X1518Y1012D01*
G37*
D02*
G36*
X1188Y2240D02*
X1231Y2240D01*
X1231Y2212D01*
X1188Y2212D01*
X1188Y2240D01*
G37*
D02*
G36*
X1474Y418D02*
X1521Y418D01*
X1521Y386D01*
X1474Y386D01*
X1474Y418D01*
G37*
D02*
G36*
X1518Y462D02*
X1552Y462D01*
X1552Y415D01*
X1518Y415D01*
X1518Y462D01*
G37*
D02*
G36*
X690Y2240D02*
X733Y2240D01*
X733Y2212D01*
X690Y2212D01*
X690Y2240D01*
G37*
D02*
G36*
X1088Y2240D02*
X1131Y2240D01*
X1131Y2212D01*
X1088Y2212D01*
X1088Y2240D01*
G37*
D02*
G36*
X788Y2240D02*
X831Y2240D01*
X831Y2212D01*
X788Y2212D01*
X788Y2240D01*
G37*
D02*
G36*
X988Y2240D02*
X1031Y2240D01*
X1031Y2212D01*
X988Y2212D01*
X988Y2240D01*
G37*
D02*
G36*
X888Y2240D02*
X931Y2240D01*
X931Y2212D01*
X888Y2212D01*
X888Y2240D01*
G37*
D02*
G04 End of Copper1*
M02*