G04 MADE WITH FRITZING*
G04 WWW.FRITZING.ORG*
G04 DOUBLE SIDED*
G04 HOLES PLATED*
G04 CONTOUR ON CENTER OF CONTOUR VECTOR*
%ASAXBY*%
%FSLAX23Y23*%
%MOIN*%
%OFA0B0*%
%SFA1.0B1.0*%
%ADD10C,0.008*%
%LNCONTOUR*%
G90*
G70*
G54D10*
X65Y2500D02*
X66Y2500D01*
X67Y2500D01*
X68Y2500D01*
X69Y2500D01*
X70Y2500D01*
X71Y2500D01*
X72Y2500D01*
X73Y2500D01*
X74Y2500D01*
X75Y2500D01*
X76Y2500D01*
X77Y2500D01*
X78Y2500D01*
X79Y2500D01*
X80Y2500D01*
X81Y2500D01*
X82Y2500D01*
X83Y2500D01*
X84Y2500D01*
X85Y2500D01*
X86Y2500D01*
X87Y2500D01*
X88Y2500D01*
X89Y2500D01*
X90Y2500D01*
X91Y2500D01*
X92Y2500D01*
X93Y2500D01*
X94Y2500D01*
X95Y2500D01*
X96Y2500D01*
X97Y2500D01*
X98Y2500D01*
X99Y2500D01*
X100Y2500D01*
X101Y2500D01*
X102Y2500D01*
X103Y2500D01*
X104Y2500D01*
X105Y2500D01*
X106Y2500D01*
X107Y2500D01*
X108Y2500D01*
X109Y2500D01*
X110Y2500D01*
X111Y2500D01*
X112Y2500D01*
X113Y2500D01*
X114Y2500D01*
X115Y2500D01*
X116Y2500D01*
X117Y2500D01*
X118Y2500D01*
X119Y2500D01*
X120Y2500D01*
X121Y2500D01*
X122Y2500D01*
X123Y2500D01*
X124Y2500D01*
X125Y2500D01*
X126Y2500D01*
X127Y2500D01*
X128Y2500D01*
X129Y2500D01*
X130Y2500D01*
X131Y2500D01*
X132Y2500D01*
X133Y2500D01*
X134Y2500D01*
X135Y2500D01*
X136Y2500D01*
X137Y2500D01*
X138Y2500D01*
X139Y2500D01*
X140Y2500D01*
X141Y2500D01*
X142Y2500D01*
X143Y2500D01*
X144Y2500D01*
X145Y2500D01*
X146Y2500D01*
X147Y2500D01*
X148Y2500D01*
X149Y2500D01*
X150Y2500D01*
X151Y2500D01*
X152Y2500D01*
X153Y2500D01*
X154Y2500D01*
X155Y2500D01*
X156Y2500D01*
X157Y2500D01*
X158Y2500D01*
X159Y2500D01*
X160Y2500D01*
X161Y2500D01*
X162Y2500D01*
X163Y2500D01*
X164Y2500D01*
X165Y2500D01*
X166Y2500D01*
X167Y2500D01*
X168Y2500D01*
X169Y2500D01*
X170Y2500D01*
X171Y2500D01*
X172Y2500D01*
X173Y2500D01*
X174Y2500D01*
X175Y2500D01*
X176Y2500D01*
X177Y2500D01*
X178Y2500D01*
X179Y2500D01*
X180Y2500D01*
X181Y2500D01*
X182Y2500D01*
X183Y2500D01*
X184Y2500D01*
X185Y2500D01*
X186Y2500D01*
X187Y2500D01*
X188Y2500D01*
X189Y2500D01*
X190Y2500D01*
X191Y2500D01*
X192Y2500D01*
X193Y2500D01*
X194Y2500D01*
X195Y2500D01*
X196Y2500D01*
X197Y2500D01*
X198Y2500D01*
X199Y2500D01*
X200Y2500D01*
X201Y2500D01*
X202Y2500D01*
X203Y2500D01*
X204Y2500D01*
X205Y2500D01*
X206Y2500D01*
X207Y2500D01*
X208Y2500D01*
X209Y2500D01*
X210Y2500D01*
X211Y2500D01*
X212Y2500D01*
X213Y2500D01*
X214Y2500D01*
X215Y2500D01*
X216Y2500D01*
X217Y2500D01*
X218Y2500D01*
X219Y2500D01*
X220Y2500D01*
X221Y2500D01*
X222Y2500D01*
X223Y2500D01*
X224Y2500D01*
X225Y2500D01*
X226Y2500D01*
X227Y2500D01*
X228Y2500D01*
X229Y2500D01*
X230Y2500D01*
X231Y2500D01*
X232Y2500D01*
X233Y2500D01*
X234Y2500D01*
X235Y2500D01*
X236Y2500D01*
X237Y2500D01*
X238Y2500D01*
X239Y2500D01*
X240Y2500D01*
X241Y2500D01*
X242Y2500D01*
X243Y2500D01*
X244Y2500D01*
X245Y2500D01*
X246Y2500D01*
X247Y2500D01*
X248Y2500D01*
X249Y2500D01*
X250Y2500D01*
X251Y2500D01*
X252Y2500D01*
X253Y2500D01*
X254Y2500D01*
X255Y2500D01*
X256Y2500D01*
X257Y2500D01*
X258Y2500D01*
X259Y2500D01*
X260Y2500D01*
X261Y2500D01*
X262Y2500D01*
X263Y2500D01*
X264Y2500D01*
X265Y2500D01*
X266Y2500D01*
X267Y2500D01*
X268Y2500D01*
X269Y2500D01*
X270Y2500D01*
X271Y2500D01*
X272Y2500D01*
X273Y2500D01*
X274Y2500D01*
X275Y2500D01*
X276Y2500D01*
X277Y2500D01*
X278Y2500D01*
X279Y2500D01*
X280Y2500D01*
X281Y2500D01*
X282Y2500D01*
X283Y2500D01*
X284Y2500D01*
X285Y2500D01*
X286Y2500D01*
X287Y2500D01*
X288Y2500D01*
X289Y2500D01*
X290Y2500D01*
X291Y2500D01*
X292Y2500D01*
X293Y2500D01*
X294Y2500D01*
X295Y2500D01*
X296Y2500D01*
X297Y2500D01*
X298Y2500D01*
X299Y2500D01*
X300Y2500D01*
X301Y2500D01*
X302Y2500D01*
X303Y2500D01*
X304Y2500D01*
X305Y2500D01*
X306Y2500D01*
X307Y2500D01*
X308Y2500D01*
X309Y2500D01*
X310Y2500D01*
X311Y2500D01*
X312Y2500D01*
X313Y2500D01*
X314Y2500D01*
X315Y2500D01*
X316Y2500D01*
X317Y2500D01*
X318Y2500D01*
X319Y2500D01*
X320Y2500D01*
X321Y2500D01*
X322Y2500D01*
X323Y2500D01*
X324Y2500D01*
X325Y2500D01*
X326Y2500D01*
X327Y2500D01*
X328Y2500D01*
X329Y2500D01*
X330Y2500D01*
X331Y2500D01*
X332Y2500D01*
X333Y2500D01*
X334Y2500D01*
X335Y2500D01*
X336Y2500D01*
X337Y2500D01*
X338Y2500D01*
X339Y2500D01*
X340Y2500D01*
X341Y2500D01*
X342Y2500D01*
X343Y2500D01*
X344Y2500D01*
X345Y2500D01*
X346Y2500D01*
X347Y2500D01*
X348Y2500D01*
X349Y2500D01*
X350Y2500D01*
X351Y2500D01*
X352Y2500D01*
X353Y2500D01*
X354Y2500D01*
X355Y2500D01*
X356Y2500D01*
X357Y2500D01*
X358Y2500D01*
X359Y2500D01*
X360Y2500D01*
X361Y2500D01*
X362Y2500D01*
X363Y2500D01*
X364Y2500D01*
X365Y2500D01*
X366Y2500D01*
X367Y2500D01*
X368Y2500D01*
X369Y2500D01*
X370Y2500D01*
X371Y2500D01*
X372Y2500D01*
X373Y2500D01*
X374Y2500D01*
X375Y2500D01*
X376Y2500D01*
X377Y2500D01*
X378Y2500D01*
X379Y2500D01*
X380Y2500D01*
X381Y2500D01*
X382Y2500D01*
X383Y2500D01*
X384Y2500D01*
X385Y2500D01*
X386Y2500D01*
X387Y2500D01*
X388Y2500D01*
X389Y2500D01*
X390Y2500D01*
X391Y2500D01*
X392Y2500D01*
X393Y2500D01*
X394Y2500D01*
X395Y2500D01*
X396Y2500D01*
X397Y2500D01*
X398Y2500D01*
X399Y2500D01*
X400Y2500D01*
X401Y2500D01*
X402Y2500D01*
X403Y2500D01*
X404Y2500D01*
X405Y2500D01*
X406Y2500D01*
X407Y2500D01*
X408Y2500D01*
X409Y2500D01*
X410Y2500D01*
X411Y2500D01*
X412Y2500D01*
X413Y2500D01*
X414Y2500D01*
X415Y2500D01*
X416Y2500D01*
X417Y2500D01*
X418Y2500D01*
X419Y2500D01*
X420Y2500D01*
X421Y2500D01*
X422Y2500D01*
X423Y2500D01*
X424Y2500D01*
X425Y2500D01*
X426Y2500D01*
X427Y2500D01*
X428Y2500D01*
X429Y2500D01*
X430Y2500D01*
X431Y2500D01*
X432Y2500D01*
X433Y2500D01*
X434Y2500D01*
X435Y2500D01*
X436Y2500D01*
X437Y2500D01*
X438Y2500D01*
X439Y2500D01*
X440Y2500D01*
X441Y2500D01*
X442Y2500D01*
X443Y2500D01*
X444Y2500D01*
X445Y2500D01*
X446Y2500D01*
X447Y2500D01*
X448Y2500D01*
X449Y2500D01*
X450Y2500D01*
X451Y2500D01*
X452Y2500D01*
X453Y2500D01*
X454Y2500D01*
X455Y2500D01*
X456Y2500D01*
X457Y2500D01*
X458Y2500D01*
X459Y2500D01*
X460Y2500D01*
X461Y2500D01*
X462Y2500D01*
X463Y2500D01*
X464Y2500D01*
X465Y2500D01*
X466Y2500D01*
X467Y2500D01*
X468Y2500D01*
X469Y2500D01*
X470Y2500D01*
X471Y2500D01*
X472Y2500D01*
X473Y2500D01*
X474Y2500D01*
X475Y2500D01*
X476Y2500D01*
X477Y2500D01*
X478Y2500D01*
X479Y2500D01*
X480Y2500D01*
X481Y2500D01*
X482Y2500D01*
X483Y2500D01*
X484Y2500D01*
X485Y2500D01*
X486Y2500D01*
X487Y2500D01*
X488Y2500D01*
X489Y2500D01*
X490Y2500D01*
X491Y2500D01*
X492Y2500D01*
X493Y2500D01*
X494Y2500D01*
X495Y2500D01*
X496Y2500D01*
X497Y2500D01*
X498Y2500D01*
X499Y2500D01*
X500Y2500D01*
X501Y2500D01*
X502Y2500D01*
X503Y2500D01*
X504Y2500D01*
X505Y2500D01*
X506Y2500D01*
X507Y2500D01*
X508Y2500D01*
X509Y2500D01*
X510Y2500D01*
X511Y2500D01*
X512Y2500D01*
X513Y2500D01*
X514Y2500D01*
X515Y2500D01*
X516Y2500D01*
X517Y2500D01*
X518Y2500D01*
X519Y2500D01*
X520Y2500D01*
X521Y2500D01*
X522Y2500D01*
X523Y2500D01*
X524Y2500D01*
X525Y2500D01*
X526Y2500D01*
X527Y2500D01*
X528Y2500D01*
X529Y2500D01*
X530Y2500D01*
X531Y2500D01*
X532Y2500D01*
X533Y2500D01*
X534Y2500D01*
X535Y2500D01*
X536Y2500D01*
X537Y2500D01*
X538Y2500D01*
X539Y2500D01*
X540Y2500D01*
X541Y2500D01*
X542Y2500D01*
X543Y2500D01*
X544Y2500D01*
X545Y2500D01*
X546Y2500D01*
X547Y2500D01*
X548Y2500D01*
X549Y2500D01*
X550Y2500D01*
X551Y2500D01*
X552Y2500D01*
X553Y2500D01*
X554Y2500D01*
X555Y2500D01*
X556Y2500D01*
X557Y2500D01*
X558Y2500D01*
X559Y2500D01*
X560Y2500D01*
X561Y2500D01*
X562Y2500D01*
X563Y2500D01*
X564Y2500D01*
X565Y2500D01*
X566Y2500D01*
X567Y2500D01*
X568Y2500D01*
X569Y2500D01*
X570Y2500D01*
X571Y2500D01*
X572Y2500D01*
X573Y2500D01*
X574Y2500D01*
X575Y2500D01*
X576Y2500D01*
X577Y2500D01*
X578Y2500D01*
X579Y2500D01*
X580Y2500D01*
X581Y2500D01*
X582Y2500D01*
X583Y2500D01*
X584Y2500D01*
X585Y2500D01*
X586Y2500D01*
X587Y2500D01*
X588Y2500D01*
X589Y2500D01*
X590Y2500D01*
X591Y2500D01*
X592Y2500D01*
X593Y2500D01*
X594Y2500D01*
X595Y2500D01*
X596Y2500D01*
X597Y2500D01*
X598Y2500D01*
X599Y2500D01*
X600Y2500D01*
X601Y2500D01*
X602Y2500D01*
X603Y2500D01*
X604Y2500D01*
X605Y2500D01*
X606Y2500D01*
X607Y2500D01*
X608Y2500D01*
X609Y2500D01*
X610Y2500D01*
X611Y2500D01*
X612Y2500D01*
X613Y2500D01*
X614Y2500D01*
X615Y2500D01*
X616Y2500D01*
X617Y2500D01*
X618Y2500D01*
X619Y2500D01*
X620Y2500D01*
X621Y2500D01*
X622Y2500D01*
X623Y2500D01*
X624Y2500D01*
X625Y2500D01*
X626Y2500D01*
X627Y2500D01*
X628Y2500D01*
X629Y2500D01*
X630Y2500D01*
X631Y2500D01*
X632Y2500D01*
X633Y2500D01*
X634Y2500D01*
X635Y2500D01*
X636Y2500D01*
X637Y2500D01*
X638Y2500D01*
X639Y2500D01*
X640Y2500D01*
X641Y2500D01*
X642Y2500D01*
X643Y2500D01*
X644Y2500D01*
X645Y2500D01*
X646Y2500D01*
X647Y2500D01*
X648Y2500D01*
X649Y2500D01*
X650Y2500D01*
X651Y2500D01*
X652Y2500D01*
X653Y2500D01*
X654Y2500D01*
X655Y2500D01*
X656Y2500D01*
X657Y2500D01*
X658Y2500D01*
X659Y2500D01*
X660Y2500D01*
X661Y2500D01*
X662Y2500D01*
X663Y2500D01*
X664Y2500D01*
X665Y2500D01*
X666Y2500D01*
X667Y2500D01*
X668Y2500D01*
X669Y2500D01*
X670Y2500D01*
X671Y2500D01*
X672Y2500D01*
X673Y2500D01*
X674Y2500D01*
X675Y2500D01*
X676Y2500D01*
X677Y2500D01*
X678Y2500D01*
X679Y2500D01*
X680Y2500D01*
X681Y2500D01*
X682Y2500D01*
X683Y2500D01*
X684Y2500D01*
X685Y2500D01*
X686Y2500D01*
X687Y2500D01*
X688Y2500D01*
X689Y2500D01*
X690Y2500D01*
X691Y2500D01*
X692Y2500D01*
X693Y2500D01*
X694Y2500D01*
X695Y2500D01*
X696Y2500D01*
X697Y2500D01*
X698Y2500D01*
X699Y2500D01*
X700Y2500D01*
X701Y2500D01*
X702Y2500D01*
X703Y2500D01*
X704Y2500D01*
X705Y2500D01*
X706Y2500D01*
X707Y2500D01*
X708Y2500D01*
X709Y2500D01*
X710Y2500D01*
X711Y2500D01*
X712Y2500D01*
X713Y2500D01*
X714Y2500D01*
X715Y2500D01*
X716Y2500D01*
X717Y2500D01*
X718Y2500D01*
X719Y2500D01*
X720Y2500D01*
X721Y2500D01*
X722Y2500D01*
X723Y2500D01*
X724Y2500D01*
X725Y2500D01*
X726Y2500D01*
X727Y2500D01*
X728Y2500D01*
X729Y2500D01*
X730Y2500D01*
X731Y2500D01*
X732Y2500D01*
X733Y2500D01*
X734Y2500D01*
X735Y2500D01*
X736Y2500D01*
X737Y2500D01*
X738Y2500D01*
X739Y2500D01*
X740Y2500D01*
X741Y2500D01*
X742Y2500D01*
X743Y2500D01*
X744Y2500D01*
X745Y2500D01*
X746Y2500D01*
X747Y2500D01*
X748Y2500D01*
X749Y2500D01*
X750Y2500D01*
X751Y2500D01*
X752Y2500D01*
X753Y2500D01*
X754Y2500D01*
X755Y2500D01*
X756Y2500D01*
X757Y2500D01*
X758Y2500D01*
X759Y2500D01*
X760Y2500D01*
X761Y2500D01*
X762Y2500D01*
X763Y2500D01*
X764Y2500D01*
X765Y2500D01*
X766Y2500D01*
X767Y2500D01*
X768Y2500D01*
X769Y2500D01*
X770Y2500D01*
X771Y2500D01*
X772Y2500D01*
X773Y2500D01*
X774Y2500D01*
X775Y2500D01*
X776Y2500D01*
X777Y2500D01*
X778Y2500D01*
X779Y2500D01*
X780Y2500D01*
X781Y2500D01*
X782Y2500D01*
X783Y2500D01*
X784Y2500D01*
X785Y2500D01*
X786Y2500D01*
X787Y2500D01*
X788Y2500D01*
X789Y2500D01*
X790Y2500D01*
X791Y2500D01*
X792Y2500D01*
X793Y2500D01*
X794Y2500D01*
X795Y2500D01*
X796Y2500D01*
X797Y2500D01*
X798Y2500D01*
X799Y2500D01*
X800Y2500D01*
X801Y2500D01*
X802Y2500D01*
X803Y2500D01*
X804Y2500D01*
X805Y2500D01*
X806Y2500D01*
X807Y2500D01*
X808Y2500D01*
X809Y2500D01*
X810Y2500D01*
X811Y2500D01*
X812Y2500D01*
X813Y2500D01*
X814Y2500D01*
X815Y2500D01*
X816Y2500D01*
X817Y2500D01*
X818Y2500D01*
X819Y2500D01*
X820Y2500D01*
X821Y2500D01*
X822Y2500D01*
X823Y2500D01*
X824Y2500D01*
X825Y2500D01*
X826Y2500D01*
X827Y2500D01*
X828Y2500D01*
X829Y2500D01*
X830Y2500D01*
X831Y2500D01*
X832Y2500D01*
X833Y2500D01*
X834Y2500D01*
X835Y2500D01*
X836Y2500D01*
X837Y2500D01*
X838Y2500D01*
X839Y2500D01*
X840Y2500D01*
X841Y2500D01*
X842Y2500D01*
X843Y2500D01*
X844Y2500D01*
X845Y2500D01*
X846Y2500D01*
X847Y2500D01*
X848Y2500D01*
X849Y2500D01*
X850Y2500D01*
X851Y2500D01*
X852Y2500D01*
X853Y2500D01*
X854Y2500D01*
X855Y2500D01*
X856Y2500D01*
X857Y2500D01*
X858Y2500D01*
X859Y2500D01*
X860Y2500D01*
X861Y2500D01*
X862Y2500D01*
X863Y2500D01*
X864Y2500D01*
X865Y2500D01*
X866Y2500D01*
X867Y2500D01*
X868Y2500D01*
X869Y2500D01*
X870Y2500D01*
X871Y2500D01*
X872Y2500D01*
X873Y2500D01*
X874Y2500D01*
X875Y2500D01*
X876Y2500D01*
X877Y2500D01*
X878Y2500D01*
X879Y2500D01*
X880Y2500D01*
X881Y2500D01*
X882Y2500D01*
X883Y2500D01*
X884Y2500D01*
X885Y2500D01*
X886Y2500D01*
X887Y2500D01*
X888Y2500D01*
X889Y2500D01*
X890Y2500D01*
X891Y2500D01*
X892Y2500D01*
X893Y2500D01*
X894Y2500D01*
X895Y2500D01*
X896Y2500D01*
X897Y2500D01*
X898Y2500D01*
X899Y2500D01*
X900Y2500D01*
X901Y2500D01*
X902Y2500D01*
X903Y2500D01*
X904Y2500D01*
X905Y2500D01*
X906Y2500D01*
X907Y2500D01*
X908Y2500D01*
X909Y2500D01*
X910Y2500D01*
X911Y2500D01*
X912Y2500D01*
X913Y2500D01*
X914Y2500D01*
X915Y2500D01*
X916Y2500D01*
X917Y2500D01*
X918Y2500D01*
X919Y2500D01*
X920Y2500D01*
X921Y2500D01*
X922Y2500D01*
X923Y2500D01*
X924Y2500D01*
X925Y2500D01*
X926Y2500D01*
X927Y2500D01*
X928Y2500D01*
X929Y2500D01*
X930Y2500D01*
X931Y2500D01*
X932Y2500D01*
X933Y2500D01*
X934Y2500D01*
X935Y2500D01*
X936Y2500D01*
X937Y2500D01*
X938Y2500D01*
X939Y2500D01*
X940Y2500D01*
X941Y2500D01*
X942Y2500D01*
X943Y2500D01*
X944Y2500D01*
X945Y2500D01*
X946Y2500D01*
X947Y2500D01*
X948Y2500D01*
X949Y2500D01*
X950Y2500D01*
X951Y2500D01*
X952Y2500D01*
X953Y2500D01*
X954Y2500D01*
X955Y2500D01*
X956Y2500D01*
X957Y2500D01*
X958Y2500D01*
X959Y2500D01*
X960Y2500D01*
X961Y2500D01*
X962Y2500D01*
X963Y2500D01*
X964Y2500D01*
X965Y2500D01*
X966Y2500D01*
X967Y2500D01*
X968Y2500D01*
X969Y2500D01*
X970Y2500D01*
X971Y2500D01*
X972Y2500D01*
X973Y2500D01*
X974Y2500D01*
X975Y2500D01*
X976Y2500D01*
X977Y2500D01*
X978Y2500D01*
X979Y2500D01*
X980Y2500D01*
X981Y2500D01*
X982Y2500D01*
X983Y2500D01*
X984Y2500D01*
X985Y2500D01*
X986Y2500D01*
X987Y2500D01*
X988Y2500D01*
X989Y2500D01*
X990Y2500D01*
X991Y2500D01*
X992Y2500D01*
X993Y2500D01*
X994Y2500D01*
X995Y2500D01*
X996Y2500D01*
X997Y2500D01*
X998Y2500D01*
X999Y2500D01*
X1000Y2500D01*
X1001Y2500D01*
X1002Y2500D01*
X1003Y2500D01*
X1004Y2500D01*
X1005Y2500D01*
X1006Y2500D01*
X1007Y2500D01*
X1008Y2500D01*
X1009Y2500D01*
X1010Y2500D01*
X1011Y2500D01*
X1012Y2500D01*
X1013Y2500D01*
X1014Y2500D01*
X1015Y2500D01*
X1016Y2500D01*
X1017Y2500D01*
X1018Y2500D01*
X1019Y2500D01*
X1020Y2500D01*
X1021Y2500D01*
X1022Y2500D01*
X1023Y2500D01*
X1024Y2500D01*
X1025Y2500D01*
X1026Y2500D01*
X1027Y2500D01*
X1028Y2500D01*
X1029Y2500D01*
X1030Y2500D01*
X1031Y2500D01*
X1032Y2500D01*
X1033Y2500D01*
X1034Y2500D01*
X1035Y2500D01*
X1036Y2500D01*
X1037Y2500D01*
X1038Y2500D01*
X1039Y2500D01*
X1040Y2500D01*
X1041Y2500D01*
X1042Y2500D01*
X1043Y2500D01*
X1044Y2500D01*
X1045Y2500D01*
X1046Y2500D01*
X1047Y2500D01*
X1048Y2500D01*
X1049Y2500D01*
X1050Y2500D01*
X1051Y2500D01*
X1052Y2500D01*
X1053Y2500D01*
X1054Y2500D01*
X1055Y2500D01*
X1056Y2500D01*
X1057Y2500D01*
X1058Y2500D01*
X1059Y2500D01*
X1060Y2500D01*
X1061Y2500D01*
X1062Y2500D01*
X1063Y2500D01*
X1064Y2500D01*
X1065Y2500D01*
X1066Y2500D01*
X1067Y2500D01*
X1068Y2500D01*
X1069Y2500D01*
X1070Y2500D01*
X1071Y2500D01*
X1072Y2500D01*
X1073Y2500D01*
X1074Y2500D01*
X1075Y2500D01*
X1076Y2500D01*
X1077Y2500D01*
X1078Y2500D01*
X1079Y2500D01*
X1080Y2500D01*
X1081Y2500D01*
X1082Y2500D01*
X1083Y2500D01*
X1084Y2500D01*
X1085Y2500D01*
X1086Y2500D01*
X1087Y2500D01*
X1088Y2500D01*
X1089Y2500D01*
X1090Y2500D01*
X1091Y2500D01*
X1092Y2500D01*
X1093Y2500D01*
X1094Y2500D01*
X1095Y2500D01*
X1096Y2500D01*
X1097Y2500D01*
X1098Y2500D01*
X1099Y2500D01*
X1100Y2500D01*
X1101Y2500D01*
X1102Y2500D01*
X1103Y2500D01*
X1104Y2500D01*
X1105Y2500D01*
X1106Y2500D01*
X1107Y2500D01*
X1108Y2500D01*
X1109Y2500D01*
X1110Y2500D01*
X1111Y2500D01*
X1112Y2500D01*
X1113Y2500D01*
X1114Y2500D01*
X1115Y2500D01*
X1116Y2500D01*
X1117Y2500D01*
X1118Y2500D01*
X1119Y2500D01*
X1120Y2500D01*
X1121Y2500D01*
X1122Y2500D01*
X1123Y2500D01*
X1124Y2500D01*
X1125Y2500D01*
X1126Y2500D01*
X1127Y2500D01*
X1128Y2500D01*
X1129Y2500D01*
X1130Y2500D01*
X1131Y2500D01*
X1132Y2500D01*
X1133Y2500D01*
X1134Y2500D01*
X1135Y2500D01*
X1136Y2500D01*
X1137Y2500D01*
X1138Y2500D01*
X1139Y2500D01*
X1140Y2500D01*
X1141Y2500D01*
X1142Y2500D01*
X1143Y2500D01*
X1144Y2500D01*
X1145Y2500D01*
X1146Y2500D01*
X1147Y2500D01*
X1148Y2500D01*
X1149Y2500D01*
X1150Y2500D01*
X1151Y2500D01*
X1152Y2500D01*
X1153Y2500D01*
X1154Y2500D01*
X1155Y2500D01*
X1156Y2500D01*
X1157Y2500D01*
X1158Y2500D01*
X1159Y2500D01*
X1160Y2500D01*
X1161Y2500D01*
X1162Y2500D01*
X1163Y2500D01*
X1164Y2500D01*
X1165Y2500D01*
X1166Y2500D01*
X1167Y2500D01*
X1168Y2500D01*
X1169Y2500D01*
X1170Y2500D01*
X1171Y2500D01*
X1172Y2500D01*
X1173Y2500D01*
X1174Y2500D01*
X1175Y2500D01*
X1176Y2500D01*
X1177Y2500D01*
X1178Y2500D01*
X1179Y2500D01*
X1180Y2500D01*
X1181Y2500D01*
X1182Y2500D01*
X1183Y2500D01*
X1184Y2500D01*
X1185Y2500D01*
X1186Y2500D01*
X1187Y2500D01*
X1188Y2500D01*
X1189Y2500D01*
X1190Y2500D01*
X1191Y2500D01*
X1192Y2500D01*
X1193Y2500D01*
X1194Y2500D01*
X1195Y2500D01*
X1196Y2500D01*
X1197Y2500D01*
X1198Y2500D01*
X1199Y2500D01*
X1200Y2500D01*
X1201Y2500D01*
X1202Y2500D01*
X1203Y2500D01*
X1204Y2500D01*
X1205Y2500D01*
X1206Y2500D01*
X1207Y2500D01*
X1208Y2500D01*
X1209Y2500D01*
X1210Y2500D01*
X1211Y2500D01*
X1212Y2500D01*
X1213Y2500D01*
X1214Y2500D01*
X1215Y2500D01*
X1216Y2500D01*
X1217Y2500D01*
X1218Y2500D01*
X1219Y2500D01*
X1220Y2500D01*
X1221Y2500D01*
X1222Y2500D01*
X1223Y2500D01*
X1224Y2500D01*
X1225Y2500D01*
X1226Y2500D01*
X1227Y2500D01*
X1228Y2500D01*
X1229Y2500D01*
X1230Y2500D01*
X1231Y2500D01*
X1232Y2500D01*
X1233Y2500D01*
X1234Y2500D01*
X1235Y2500D01*
X1236Y2500D01*
X1237Y2500D01*
X1238Y2500D01*
X1239Y2500D01*
X1240Y2500D01*
X1241Y2500D01*
X1242Y2500D01*
X1243Y2500D01*
X1244Y2500D01*
X1245Y2500D01*
X1246Y2500D01*
X1247Y2500D01*
X1248Y2500D01*
X1249Y2500D01*
X1250Y2500D01*
X1251Y2500D01*
X1252Y2500D01*
X1253Y2500D01*
X1254Y2500D01*
X1255Y2500D01*
X1256Y2500D01*
X1257Y2500D01*
X1258Y2500D01*
X1259Y2500D01*
X1260Y2500D01*
X1261Y2500D01*
X1262Y2500D01*
X1263Y2500D01*
X1264Y2500D01*
X1265Y2500D01*
X1266Y2500D01*
X1267Y2500D01*
X1268Y2500D01*
X1269Y2500D01*
X1270Y2500D01*
X1271Y2500D01*
X1272Y2500D01*
X1273Y2500D01*
X1274Y2500D01*
X1275Y2500D01*
X1276Y2500D01*
X1277Y2500D01*
X1278Y2500D01*
X1279Y2500D01*
X1280Y2500D01*
X1281Y2500D01*
X1282Y2500D01*
X1283Y2500D01*
X1284Y2500D01*
X1285Y2500D01*
X1286Y2500D01*
X1287Y2500D01*
X1288Y2500D01*
X1289Y2500D01*
X1290Y2500D01*
X1291Y2500D01*
X1292Y2500D01*
X1293Y2500D01*
X1294Y2500D01*
X1295Y2500D01*
X1296Y2500D01*
X1297Y2500D01*
X1298Y2500D01*
X1299Y2500D01*
X1300Y2500D01*
X1301Y2500D01*
X1302Y2500D01*
X1303Y2500D01*
X1304Y2500D01*
X1305Y2500D01*
X1306Y2500D01*
X1307Y2500D01*
X1308Y2500D01*
X1309Y2500D01*
X1310Y2500D01*
X1311Y2500D01*
X1312Y2500D01*
X1313Y2500D01*
X1314Y2500D01*
X1315Y2500D01*
X1316Y2500D01*
X1317Y2500D01*
X1318Y2500D01*
X1319Y2500D01*
X1320Y2500D01*
X1321Y2500D01*
X1322Y2500D01*
X1323Y2500D01*
X1324Y2500D01*
X1325Y2500D01*
X1326Y2500D01*
X1327Y2500D01*
X1328Y2500D01*
X1329Y2500D01*
X1330Y2500D01*
X1331Y2500D01*
X1332Y2500D01*
X1333Y2500D01*
X1334Y2500D01*
X1335Y2500D01*
X1336Y2500D01*
X1337Y2500D01*
X1338Y2500D01*
X1339Y2500D01*
X1340Y2500D01*
X1341Y2500D01*
X1342Y2500D01*
X1343Y2500D01*
X1344Y2500D01*
X1345Y2500D01*
X1346Y2500D01*
X1347Y2500D01*
X1348Y2500D01*
X1349Y2500D01*
X1350Y2500D01*
X1351Y2500D01*
X1352Y2500D01*
X1353Y2500D01*
X1354Y2500D01*
X1355Y2500D01*
X1356Y2500D01*
X1357Y2500D01*
X1358Y2500D01*
X1359Y2500D01*
X1360Y2500D01*
X1361Y2500D01*
X1362Y2500D01*
X1363Y2500D01*
X1364Y2500D01*
X1365Y2500D01*
X1366Y2500D01*
X1367Y2500D01*
X1368Y2500D01*
X1369Y2500D01*
X1370Y2500D01*
X1371Y2500D01*
X1372Y2500D01*
X1373Y2500D01*
X1374Y2500D01*
X1375Y2500D01*
X1376Y2500D01*
X1377Y2500D01*
X1378Y2500D01*
X1379Y2500D01*
X1380Y2500D01*
X1381Y2500D01*
X1382Y2500D01*
X1383Y2500D01*
X1384Y2500D01*
X1385Y2500D01*
X1386Y2500D01*
X1387Y2500D01*
X1388Y2500D01*
X1389Y2500D01*
X1390Y2500D01*
X1391Y2500D01*
X1392Y2500D01*
X1393Y2500D01*
X1394Y2500D01*
X1395Y2500D01*
X1396Y2500D01*
X1397Y2500D01*
X1398Y2500D01*
X1399Y2500D01*
X1400Y2500D01*
X1401Y2500D01*
X1402Y2500D01*
X1403Y2500D01*
X1404Y2500D01*
X1405Y2500D01*
X1406Y2500D01*
X1407Y2500D01*
X1408Y2500D01*
X1409Y2500D01*
X1410Y2500D01*
X1411Y2500D01*
X1412Y2500D01*
X1413Y2500D01*
X1414Y2500D01*
X1415Y2500D01*
X1416Y2500D01*
X1417Y2500D01*
X1418Y2500D01*
X1419Y2500D01*
X1420Y2500D01*
X1421Y2500D01*
X1422Y2500D01*
X1423Y2500D01*
X1424Y2500D01*
X1425Y2500D01*
X1426Y2500D01*
X1427Y2500D01*
X1428Y2500D01*
X1429Y2500D01*
X1430Y2500D01*
X1431Y2500D01*
X1432Y2500D01*
X1433Y2500D01*
X1434Y2500D01*
X1435Y2500D01*
X1436Y2500D01*
X1437Y2500D01*
X1438Y2500D01*
X1439Y2500D01*
X1440Y2500D01*
X1441Y2500D01*
X1442Y2500D01*
X1443Y2500D01*
X1444Y2500D01*
X1445Y2500D01*
X1446Y2500D01*
X1447Y2500D01*
X1448Y2500D01*
X1449Y2500D01*
X1450Y2500D01*
X1451Y2500D01*
X1452Y2500D01*
X1453Y2500D01*
X1454Y2500D01*
X1455Y2500D01*
X1456Y2500D01*
X1457Y2500D01*
X1458Y2500D01*
X1459Y2500D01*
X1460Y2500D01*
X1461Y2500D01*
X1462Y2500D01*
X1463Y2500D01*
X1464Y2500D01*
X1465Y2500D01*
X1466Y2500D01*
X1467Y2500D01*
X1468Y2500D01*
X1469Y2500D01*
X1470Y2500D01*
X1471Y2500D01*
X1472Y2500D01*
X1473Y2500D01*
X1474Y2500D01*
X1475Y2500D01*
X1476Y2500D01*
X1477Y2500D01*
X1478Y2500D01*
X1479Y2500D01*
X1480Y2500D01*
X1481Y2500D01*
X1482Y2500D01*
X1483Y2500D01*
X1484Y2500D01*
X1485Y2500D01*
X1486Y2500D01*
X1487Y2500D01*
X1488Y2500D01*
X1489Y2500D01*
X1490Y2500D01*
X1491Y2500D01*
X1492Y2500D01*
X1493Y2500D01*
X1494Y2500D01*
X1495Y2500D01*
X1496Y2500D01*
X1497Y2500D01*
X1498Y2500D01*
X1499Y2500D01*
X1500Y2500D01*
X1501Y2500D01*
X1502Y2500D01*
X1503Y2500D01*
X1504Y2500D01*
X1505Y2500D01*
X1506Y2500D01*
X1507Y2500D01*
X1508Y2500D01*
X1509Y2500D01*
X1510Y2500D01*
X1511Y2500D01*
X1512Y2500D01*
X1513Y2500D01*
X1514Y2500D01*
X1515Y2500D01*
X1516Y2500D01*
X1517Y2500D01*
X1518Y2500D01*
X1519Y2500D01*
X1520Y2500D01*
X1521Y2500D01*
X1522Y2500D01*
X1523Y2500D01*
X1524Y2500D01*
X1525Y2500D01*
X1526Y2500D01*
X1527Y2500D01*
X1528Y2500D01*
X1529Y2500D01*
X1530Y2500D01*
X1531Y2500D01*
X1532Y2500D01*
X1533Y2500D01*
X1534Y2500D01*
X1535Y2500D01*
X1536Y2500D01*
X1537Y2500D01*
X1538Y2500D01*
X1539Y2500D01*
X1540Y2500D01*
X1541Y2500D01*
X1542Y2500D01*
X1543Y2500D01*
X1544Y2500D01*
X1545Y2500D01*
X1546Y2500D01*
X1547Y2500D01*
X1548Y2500D01*
X1549Y2500D01*
X1550Y2500D01*
X1551Y2500D01*
X1552Y2500D01*
X1553Y2500D01*
X1554Y2500D01*
X1555Y2500D01*
X1556Y2500D01*
X1557Y2500D01*
X1558Y2500D01*
X1559Y2500D01*
X1560Y2499D01*
X1561Y2499D01*
X1562Y2499D01*
X1563Y2499D01*
X1564Y2499D01*
X1565Y2499D01*
X1566Y2498D01*
X1567Y2498D01*
X1568Y2498D01*
X1569Y2498D01*
X1570Y2497D01*
X1571Y2497D01*
X1572Y2497D01*
X1573Y2497D01*
X1574Y2496D01*
X1575Y2496D01*
X1576Y2496D01*
X1577Y2495D01*
X1578Y2495D01*
X1579Y2494D01*
X1580Y2494D01*
X1581Y2494D01*
X1582Y2493D01*
X1583Y2493D01*
X1584Y2492D01*
X1585Y2492D01*
X1586Y2491D01*
X1587Y2490D01*
X1588Y2490D01*
X1589Y2489D01*
X1590Y2489D01*
X1591Y2488D01*
X1592Y2487D01*
X1593Y2487D01*
X1594Y2486D01*
X1595Y2485D01*
X1596Y2484D01*
X1597Y2484D01*
X1598Y2483D01*
X1599Y2482D01*
X1600Y2481D01*
X1601Y2480D01*
X1602Y2479D01*
X1603Y2478D01*
X1604Y2477D01*
X1605Y2476D01*
X1606Y2475D01*
X1607Y2474D01*
X1607Y2473D01*
X1608Y2472D01*
X1609Y2471D01*
X1610Y2470D01*
X1610Y2469D01*
X1611Y2468D01*
X1612Y2467D01*
X1612Y2466D01*
X1613Y2465D01*
X1614Y2464D01*
X1614Y2463D01*
X1615Y2462D01*
X1615Y2461D01*
X1616Y2460D01*
X1616Y2459D01*
X1617Y2458D01*
X1617Y2457D01*
X1618Y2456D01*
X1618Y2454D01*
X1619Y2453D01*
X1619Y2452D01*
X1620Y2451D01*
X1620Y2449D01*
X1621Y2448D01*
X1621Y2445D01*
X1622Y2444D01*
X1622Y2441D01*
X1623Y2440D01*
X1623Y2435D01*
X1624Y2434D01*
X1624Y67D01*
X1623Y66D01*
X1623Y61D01*
X1622Y60D01*
X1622Y57D01*
X1621Y56D01*
X1621Y53D01*
X1620Y52D01*
X1620Y50D01*
X1619Y49D01*
X1619Y48D01*
X1618Y47D01*
X1618Y45D01*
X1617Y44D01*
X1617Y43D01*
X1616Y42D01*
X1616Y41D01*
X1615Y40D01*
X1615Y39D01*
X1614Y38D01*
X1614Y37D01*
X1613Y36D01*
X1612Y35D01*
X1612Y34D01*
X1611Y33D01*
X1610Y32D01*
X1610Y31D01*
X1609Y30D01*
X1608Y29D01*
X1607Y28D01*
X1607Y27D01*
X1606Y26D01*
X1605Y25D01*
X1604Y24D01*
X1603Y23D01*
X1602Y22D01*
X1601Y21D01*
X1600Y20D01*
X1599Y19D01*
X1598Y18D01*
X1597Y17D01*
X1596Y17D01*
X1595Y16D01*
X1594Y15D01*
X1593Y14D01*
X1592Y14D01*
X1591Y13D01*
X1590Y12D01*
X1589Y12D01*
X1588Y11D01*
X1587Y11D01*
X1586Y10D01*
X1585Y9D01*
X1584Y9D01*
X1583Y8D01*
X1582Y8D01*
X1581Y7D01*
X1580Y7D01*
X1579Y7D01*
X1578Y6D01*
X1577Y6D01*
X1576Y5D01*
X1575Y5D01*
X1574Y5D01*
X1573Y4D01*
X1572Y4D01*
X1571Y4D01*
X1570Y4D01*
X1569Y3D01*
X1568Y3D01*
X1567Y3D01*
X1566Y3D01*
X1565Y2D01*
X1564Y2D01*
X1563Y2D01*
X1562Y2D01*
X1561Y2D01*
X1560Y2D01*
X1559Y1D01*
X1558Y1D01*
X1557Y1D01*
X1556Y1D01*
X1555Y1D01*
X1554Y1D01*
X1553Y1D01*
X1552Y1D01*
X1551Y1D01*
X1550Y1D01*
X1549Y1D01*
X1548Y1D01*
X1547Y1D01*
X1546Y1D01*
X1545Y1D01*
X1544Y1D01*
X1543Y1D01*
X1542Y1D01*
X1541Y1D01*
X1540Y1D01*
X1539Y1D01*
X1538Y1D01*
X1537Y1D01*
X1536Y1D01*
X1535Y1D01*
X1534Y1D01*
X1533Y1D01*
X1532Y1D01*
X1531Y1D01*
X1530Y1D01*
X1529Y1D01*
X1528Y1D01*
X1527Y1D01*
X1526Y1D01*
X1525Y1D01*
X1524Y1D01*
X1523Y1D01*
X1522Y1D01*
X1521Y1D01*
X1520Y1D01*
X1519Y1D01*
X1518Y1D01*
X1517Y1D01*
X1516Y1D01*
X1515Y1D01*
X1514Y1D01*
X1513Y1D01*
X1512Y1D01*
X1511Y1D01*
X1510Y1D01*
X1509Y1D01*
X1508Y1D01*
X1507Y1D01*
X1506Y1D01*
X1505Y1D01*
X1504Y1D01*
X1503Y1D01*
X1502Y1D01*
X1501Y1D01*
X1500Y1D01*
X1499Y1D01*
X1498Y1D01*
X1497Y1D01*
X1496Y1D01*
X1495Y1D01*
X1494Y1D01*
X1493Y1D01*
X1492Y1D01*
X1491Y1D01*
X1490Y1D01*
X1489Y1D01*
X1488Y1D01*
X1487Y1D01*
X1486Y1D01*
X1485Y1D01*
X1484Y1D01*
X1483Y1D01*
X1482Y1D01*
X1481Y1D01*
X1480Y1D01*
X1479Y1D01*
X1478Y1D01*
X1477Y1D01*
X1476Y1D01*
X1475Y1D01*
X1474Y1D01*
X1473Y1D01*
X1472Y1D01*
X1471Y1D01*
X1470Y1D01*
X1469Y1D01*
X1468Y1D01*
X1467Y1D01*
X1466Y1D01*
X1465Y1D01*
X1464Y1D01*
X1463Y1D01*
X1462Y1D01*
X1461Y1D01*
X1460Y1D01*
X1459Y1D01*
X1458Y1D01*
X1457Y1D01*
X1456Y1D01*
X1455Y1D01*
X1454Y1D01*
X1453Y1D01*
X1452Y1D01*
X1451Y1D01*
X1450Y1D01*
X1449Y1D01*
X1448Y1D01*
X1447Y1D01*
X1446Y1D01*
X1445Y1D01*
X1444Y1D01*
X1443Y1D01*
X1442Y1D01*
X1441Y1D01*
X1440Y1D01*
X1439Y1D01*
X1438Y1D01*
X1437Y1D01*
X1436Y1D01*
X1435Y1D01*
X1434Y1D01*
X1433Y1D01*
X1432Y1D01*
X1431Y1D01*
X1430Y1D01*
X1429Y1D01*
X1428Y1D01*
X1427Y1D01*
X1426Y1D01*
X1425Y1D01*
X1424Y1D01*
X1423Y1D01*
X1422Y1D01*
X1421Y1D01*
X1420Y1D01*
X1419Y1D01*
X1418Y1D01*
X1417Y1D01*
X1416Y1D01*
X1415Y1D01*
X1414Y1D01*
X1413Y1D01*
X1412Y1D01*
X1411Y1D01*
X1410Y1D01*
X1409Y1D01*
X1408Y1D01*
X1407Y1D01*
X1406Y1D01*
X1405Y1D01*
X1404Y1D01*
X1403Y1D01*
X1402Y1D01*
X1401Y1D01*
X1400Y1D01*
X1399Y1D01*
X1398Y1D01*
X1397Y1D01*
X1396Y1D01*
X1395Y1D01*
X1394Y1D01*
X1393Y1D01*
X1392Y1D01*
X1391Y1D01*
X1390Y1D01*
X1389Y1D01*
X1388Y1D01*
X1387Y1D01*
X1386Y1D01*
X1385Y1D01*
X1384Y1D01*
X1383Y1D01*
X1382Y1D01*
X1381Y1D01*
X1380Y1D01*
X1379Y1D01*
X1378Y1D01*
X1377Y1D01*
X1376Y1D01*
X1375Y1D01*
X1374Y1D01*
X1373Y1D01*
X1372Y1D01*
X1371Y1D01*
X1370Y1D01*
X1369Y1D01*
X1368Y1D01*
X1367Y1D01*
X1366Y1D01*
X1365Y1D01*
X1364Y1D01*
X1363Y1D01*
X1362Y1D01*
X1361Y1D01*
X1360Y1D01*
X1359Y1D01*
X1358Y1D01*
X1357Y1D01*
X1356Y1D01*
X1355Y1D01*
X1354Y1D01*
X1353Y1D01*
X1352Y1D01*
X1351Y1D01*
X1350Y1D01*
X1349Y1D01*
X1348Y1D01*
X1347Y1D01*
X1346Y1D01*
X1345Y1D01*
X1344Y1D01*
X1343Y1D01*
X1342Y1D01*
X1341Y1D01*
X1340Y1D01*
X1339Y1D01*
X1338Y1D01*
X1337Y1D01*
X1336Y1D01*
X1335Y1D01*
X1334Y1D01*
X1333Y1D01*
X1332Y1D01*
X1331Y1D01*
X1330Y1D01*
X1329Y1D01*
X1328Y1D01*
X1327Y1D01*
X1326Y1D01*
X1325Y1D01*
X1324Y1D01*
X1323Y1D01*
X1322Y1D01*
X1321Y1D01*
X1320Y1D01*
X1319Y1D01*
X1318Y1D01*
X1317Y1D01*
X1316Y1D01*
X1315Y1D01*
X1314Y1D01*
X1313Y1D01*
X1312Y1D01*
X1311Y1D01*
X1310Y1D01*
X1309Y1D01*
X1308Y1D01*
X1307Y1D01*
X1306Y1D01*
X1305Y1D01*
X1304Y1D01*
X1303Y1D01*
X1302Y1D01*
X1301Y1D01*
X1300Y1D01*
X1299Y1D01*
X1298Y1D01*
X1297Y1D01*
X1296Y1D01*
X1295Y1D01*
X1294Y1D01*
X1293Y1D01*
X1292Y1D01*
X1291Y1D01*
X1290Y1D01*
X1289Y1D01*
X1288Y1D01*
X1287Y1D01*
X1286Y1D01*
X1285Y1D01*
X1284Y1D01*
X1283Y1D01*
X1282Y1D01*
X1281Y1D01*
X1280Y1D01*
X1279Y1D01*
X1278Y1D01*
X1277Y1D01*
X1276Y1D01*
X1275Y1D01*
X1274Y1D01*
X1273Y1D01*
X1272Y1D01*
X1271Y1D01*
X1270Y1D01*
X1269Y1D01*
X1268Y1D01*
X1267Y1D01*
X1266Y1D01*
X1265Y1D01*
X1264Y1D01*
X1263Y1D01*
X1262Y1D01*
X1261Y1D01*
X1260Y1D01*
X1259Y1D01*
X1258Y1D01*
X1257Y1D01*
X1256Y1D01*
X1255Y1D01*
X1254Y1D01*
X1253Y1D01*
X1252Y1D01*
X1251Y1D01*
X1250Y1D01*
X1249Y1D01*
X1248Y1D01*
X1247Y1D01*
X1246Y1D01*
X1245Y1D01*
X1244Y1D01*
X1243Y1D01*
X1242Y1D01*
X1241Y1D01*
X1240Y1D01*
X1239Y1D01*
X1238Y1D01*
X1237Y1D01*
X1236Y1D01*
X1235Y1D01*
X1234Y1D01*
X1233Y1D01*
X1232Y1D01*
X1231Y1D01*
X1230Y1D01*
X1229Y1D01*
X1228Y1D01*
X1227Y1D01*
X1226Y1D01*
X1225Y1D01*
X1224Y1D01*
X1223Y1D01*
X1222Y1D01*
X1221Y1D01*
X1220Y1D01*
X1219Y1D01*
X1218Y1D01*
X1217Y1D01*
X1216Y1D01*
X1215Y1D01*
X1214Y1D01*
X1213Y1D01*
X1212Y1D01*
X1211Y1D01*
X1210Y1D01*
X1209Y1D01*
X1208Y1D01*
X1207Y1D01*
X1206Y1D01*
X1205Y1D01*
X1204Y1D01*
X1203Y1D01*
X1202Y1D01*
X1201Y1D01*
X1200Y1D01*
X1199Y1D01*
X1198Y1D01*
X1197Y1D01*
X1196Y1D01*
X1195Y1D01*
X1194Y1D01*
X1193Y1D01*
X1192Y1D01*
X1191Y1D01*
X1190Y1D01*
X1189Y1D01*
X1188Y1D01*
X1187Y1D01*
X1186Y1D01*
X1185Y1D01*
X1184Y1D01*
X1183Y1D01*
X1182Y1D01*
X1181Y1D01*
X1180Y1D01*
X1179Y1D01*
X1178Y1D01*
X1177Y1D01*
X1176Y1D01*
X1175Y1D01*
X1174Y1D01*
X1173Y1D01*
X1172Y1D01*
X1171Y1D01*
X1170Y1D01*
X1169Y1D01*
X1168Y1D01*
X1167Y1D01*
X1166Y1D01*
X1165Y1D01*
X1164Y1D01*
X1163Y1D01*
X1162Y1D01*
X1161Y1D01*
X1160Y1D01*
X1159Y1D01*
X1158Y1D01*
X1157Y1D01*
X1156Y1D01*
X1155Y1D01*
X1154Y1D01*
X1153Y1D01*
X1152Y1D01*
X1151Y1D01*
X1150Y1D01*
X1149Y1D01*
X1148Y1D01*
X1147Y1D01*
X1146Y1D01*
X1145Y1D01*
X1144Y1D01*
X1143Y1D01*
X1142Y1D01*
X1141Y1D01*
X1140Y1D01*
X1139Y1D01*
X1138Y1D01*
X1137Y1D01*
X1136Y1D01*
X1135Y1D01*
X1134Y1D01*
X1133Y1D01*
X1132Y1D01*
X1131Y1D01*
X1130Y1D01*
X1129Y1D01*
X1128Y1D01*
X1127Y1D01*
X1126Y1D01*
X1125Y1D01*
X1124Y1D01*
X1123Y1D01*
X1122Y1D01*
X1121Y1D01*
X1120Y1D01*
X1119Y1D01*
X1118Y1D01*
X1117Y1D01*
X1116Y1D01*
X1115Y1D01*
X1114Y1D01*
X1113Y1D01*
X1112Y1D01*
X1111Y1D01*
X1110Y1D01*
X1109Y1D01*
X1108Y1D01*
X1107Y1D01*
X1106Y1D01*
X1105Y1D01*
X1104Y1D01*
X1103Y1D01*
X1102Y1D01*
X1101Y1D01*
X1100Y1D01*
X1099Y1D01*
X1098Y1D01*
X1097Y1D01*
X1096Y1D01*
X1095Y1D01*
X1094Y1D01*
X1093Y1D01*
X1092Y1D01*
X1091Y1D01*
X1090Y1D01*
X1089Y1D01*
X1088Y1D01*
X1087Y1D01*
X1086Y1D01*
X1085Y1D01*
X1084Y1D01*
X1083Y1D01*
X1082Y1D01*
X1081Y1D01*
X1080Y1D01*
X1079Y1D01*
X1078Y1D01*
X1077Y1D01*
X1076Y1D01*
X1075Y1D01*
X1074Y1D01*
X1073Y1D01*
X1072Y1D01*
X1071Y1D01*
X1070Y1D01*
X1069Y1D01*
X1068Y1D01*
X1067Y1D01*
X1066Y1D01*
X1065Y1D01*
X1064Y1D01*
X1063Y1D01*
X1062Y1D01*
X1061Y1D01*
X1060Y1D01*
X1059Y1D01*
X1058Y1D01*
X1057Y1D01*
X1056Y1D01*
X1055Y1D01*
X1054Y1D01*
X1053Y1D01*
X1052Y1D01*
X1051Y1D01*
X1050Y1D01*
X1049Y1D01*
X1048Y1D01*
X1047Y1D01*
X1046Y1D01*
X1045Y1D01*
X1044Y1D01*
X1043Y1D01*
X1042Y1D01*
X1041Y1D01*
X1040Y1D01*
X1039Y1D01*
X1038Y1D01*
X1037Y1D01*
X1036Y1D01*
X1035Y1D01*
X1034Y1D01*
X1033Y1D01*
X1032Y1D01*
X1031Y1D01*
X1030Y1D01*
X1029Y1D01*
X1028Y1D01*
X1027Y1D01*
X1026Y1D01*
X1025Y1D01*
X1024Y1D01*
X1023Y1D01*
X1022Y1D01*
X1021Y1D01*
X1020Y1D01*
X1019Y1D01*
X1018Y1D01*
X1017Y1D01*
X1016Y1D01*
X1015Y1D01*
X1014Y1D01*
X1013Y1D01*
X1012Y1D01*
X1011Y1D01*
X1010Y1D01*
X1009Y1D01*
X1008Y1D01*
X1007Y1D01*
X1006Y1D01*
X1005Y1D01*
X1004Y1D01*
X1003Y1D01*
X1002Y1D01*
X1001Y1D01*
X1000Y1D01*
X999Y1D01*
X998Y1D01*
X997Y1D01*
X996Y1D01*
X995Y1D01*
X994Y1D01*
X993Y1D01*
X992Y1D01*
X991Y1D01*
X990Y1D01*
X989Y1D01*
X988Y1D01*
X987Y1D01*
X986Y1D01*
X985Y1D01*
X984Y1D01*
X983Y1D01*
X982Y1D01*
X981Y1D01*
X980Y1D01*
X979Y1D01*
X978Y1D01*
X977Y1D01*
X976Y1D01*
X975Y1D01*
X974Y1D01*
X973Y1D01*
X972Y1D01*
X971Y1D01*
X970Y1D01*
X969Y1D01*
X968Y1D01*
X967Y1D01*
X966Y1D01*
X965Y1D01*
X964Y1D01*
X963Y1D01*
X962Y1D01*
X961Y1D01*
X960Y1D01*
X959Y1D01*
X958Y1D01*
X957Y1D01*
X956Y1D01*
X955Y1D01*
X954Y1D01*
X953Y1D01*
X952Y1D01*
X951Y1D01*
X950Y1D01*
X949Y1D01*
X948Y1D01*
X947Y1D01*
X946Y1D01*
X945Y1D01*
X944Y1D01*
X943Y1D01*
X942Y1D01*
X941Y1D01*
X940Y1D01*
X939Y1D01*
X938Y1D01*
X937Y1D01*
X936Y1D01*
X935Y1D01*
X934Y1D01*
X933Y1D01*
X932Y1D01*
X931Y1D01*
X930Y1D01*
X929Y1D01*
X928Y1D01*
X927Y1D01*
X926Y1D01*
X925Y1D01*
X924Y1D01*
X923Y1D01*
X922Y1D01*
X921Y1D01*
X920Y1D01*
X919Y1D01*
X918Y1D01*
X917Y1D01*
X916Y1D01*
X915Y1D01*
X914Y1D01*
X913Y1D01*
X912Y1D01*
X911Y1D01*
X910Y1D01*
X909Y1D01*
X908Y1D01*
X907Y1D01*
X906Y1D01*
X905Y1D01*
X904Y1D01*
X903Y1D01*
X902Y1D01*
X901Y1D01*
X900Y1D01*
X899Y1D01*
X898Y1D01*
X897Y1D01*
X896Y1D01*
X895Y1D01*
X894Y1D01*
X893Y1D01*
X892Y1D01*
X891Y1D01*
X890Y1D01*
X889Y1D01*
X888Y1D01*
X887Y1D01*
X886Y1D01*
X885Y1D01*
X884Y1D01*
X883Y1D01*
X882Y1D01*
X881Y1D01*
X880Y1D01*
X879Y1D01*
X878Y1D01*
X877Y1D01*
X876Y1D01*
X875Y1D01*
X874Y1D01*
X873Y1D01*
X872Y1D01*
X871Y1D01*
X870Y1D01*
X869Y1D01*
X868Y1D01*
X867Y1D01*
X866Y1D01*
X865Y1D01*
X864Y1D01*
X863Y1D01*
X862Y1D01*
X861Y1D01*
X860Y1D01*
X859Y1D01*
X858Y1D01*
X857Y1D01*
X856Y1D01*
X855Y1D01*
X854Y1D01*
X853Y1D01*
X852Y1D01*
X851Y1D01*
X850Y1D01*
X849Y1D01*
X848Y1D01*
X847Y1D01*
X846Y1D01*
X845Y1D01*
X844Y1D01*
X843Y1D01*
X842Y1D01*
X841Y1D01*
X840Y1D01*
X839Y1D01*
X838Y1D01*
X837Y1D01*
X836Y1D01*
X835Y1D01*
X834Y1D01*
X833Y1D01*
X832Y1D01*
X831Y1D01*
X830Y1D01*
X829Y1D01*
X828Y1D01*
X827Y1D01*
X826Y1D01*
X825Y1D01*
X824Y1D01*
X823Y1D01*
X822Y1D01*
X821Y1D01*
X820Y1D01*
X819Y1D01*
X818Y1D01*
X817Y1D01*
X816Y1D01*
X815Y1D01*
X814Y1D01*
X813Y1D01*
X812Y1D01*
X811Y1D01*
X810Y1D01*
X809Y1D01*
X808Y1D01*
X807Y1D01*
X806Y1D01*
X805Y1D01*
X804Y1D01*
X803Y1D01*
X802Y1D01*
X801Y1D01*
X800Y1D01*
X799Y1D01*
X798Y1D01*
X797Y1D01*
X796Y1D01*
X795Y1D01*
X794Y1D01*
X793Y1D01*
X792Y1D01*
X791Y1D01*
X790Y1D01*
X789Y1D01*
X788Y1D01*
X787Y1D01*
X786Y1D01*
X785Y1D01*
X784Y1D01*
X783Y1D01*
X782Y1D01*
X781Y1D01*
X780Y1D01*
X779Y1D01*
X778Y1D01*
X777Y1D01*
X776Y1D01*
X775Y1D01*
X774Y1D01*
X773Y1D01*
X772Y1D01*
X771Y1D01*
X770Y1D01*
X769Y1D01*
X768Y1D01*
X767Y1D01*
X766Y1D01*
X765Y1D01*
X764Y1D01*
X763Y1D01*
X762Y1D01*
X761Y1D01*
X760Y1D01*
X759Y1D01*
X758Y1D01*
X757Y1D01*
X756Y1D01*
X755Y1D01*
X754Y1D01*
X753Y1D01*
X752Y1D01*
X751Y1D01*
X750Y1D01*
X749Y1D01*
X748Y1D01*
X747Y1D01*
X746Y1D01*
X745Y1D01*
X744Y1D01*
X743Y1D01*
X742Y1D01*
X741Y1D01*
X740Y1D01*
X739Y1D01*
X738Y1D01*
X737Y1D01*
X736Y1D01*
X735Y1D01*
X734Y1D01*
X733Y1D01*
X732Y1D01*
X731Y1D01*
X730Y1D01*
X729Y1D01*
X728Y1D01*
X727Y1D01*
X726Y1D01*
X725Y1D01*
X724Y1D01*
X723Y1D01*
X722Y1D01*
X721Y1D01*
X720Y1D01*
X719Y1D01*
X718Y1D01*
X717Y1D01*
X716Y1D01*
X715Y1D01*
X714Y1D01*
X713Y1D01*
X712Y1D01*
X711Y1D01*
X710Y1D01*
X709Y1D01*
X708Y1D01*
X707Y1D01*
X706Y1D01*
X705Y1D01*
X704Y1D01*
X703Y1D01*
X702Y1D01*
X701Y1D01*
X700Y1D01*
X699Y1D01*
X698Y1D01*
X697Y1D01*
X696Y1D01*
X695Y1D01*
X694Y1D01*
X693Y1D01*
X692Y1D01*
X691Y1D01*
X690Y1D01*
X689Y1D01*
X688Y1D01*
X687Y1D01*
X686Y1D01*
X685Y1D01*
X684Y1D01*
X683Y1D01*
X682Y1D01*
X681Y1D01*
X680Y1D01*
X679Y1D01*
X678Y1D01*
X677Y1D01*
X676Y1D01*
X675Y1D01*
X674Y1D01*
X673Y1D01*
X672Y1D01*
X671Y1D01*
X670Y1D01*
X669Y1D01*
X668Y1D01*
X667Y1D01*
X666Y1D01*
X665Y1D01*
X664Y1D01*
X663Y1D01*
X662Y1D01*
X661Y1D01*
X660Y1D01*
X659Y1D01*
X658Y1D01*
X657Y1D01*
X656Y1D01*
X655Y1D01*
X654Y1D01*
X653Y1D01*
X652Y1D01*
X651Y1D01*
X650Y1D01*
X649Y1D01*
X648Y1D01*
X647Y1D01*
X646Y1D01*
X645Y1D01*
X644Y1D01*
X643Y1D01*
X642Y1D01*
X641Y1D01*
X640Y1D01*
X639Y1D01*
X638Y1D01*
X637Y1D01*
X636Y1D01*
X635Y1D01*
X634Y1D01*
X633Y1D01*
X632Y1D01*
X631Y1D01*
X630Y1D01*
X629Y1D01*
X628Y1D01*
X627Y1D01*
X626Y1D01*
X625Y1D01*
X624Y1D01*
X623Y1D01*
X622Y1D01*
X621Y1D01*
X620Y1D01*
X619Y1D01*
X618Y1D01*
X617Y1D01*
X616Y1D01*
X615Y1D01*
X614Y1D01*
X613Y1D01*
X612Y1D01*
X611Y1D01*
X610Y1D01*
X609Y1D01*
X608Y1D01*
X607Y1D01*
X606Y1D01*
X605Y1D01*
X604Y1D01*
X603Y1D01*
X602Y1D01*
X601Y1D01*
X600Y1D01*
X599Y1D01*
X598Y1D01*
X597Y1D01*
X596Y1D01*
X595Y1D01*
X594Y1D01*
X593Y1D01*
X592Y1D01*
X591Y1D01*
X590Y1D01*
X589Y1D01*
X588Y1D01*
X587Y1D01*
X586Y1D01*
X585Y1D01*
X584Y1D01*
X583Y1D01*
X582Y1D01*
X581Y1D01*
X580Y1D01*
X579Y1D01*
X578Y1D01*
X577Y1D01*
X576Y1D01*
X575Y1D01*
X574Y1D01*
X573Y1D01*
X572Y1D01*
X571Y1D01*
X570Y1D01*
X569Y1D01*
X568Y1D01*
X567Y1D01*
X566Y1D01*
X565Y1D01*
X564Y1D01*
X563Y1D01*
X562Y1D01*
X561Y1D01*
X560Y1D01*
X559Y1D01*
X558Y1D01*
X557Y1D01*
X556Y1D01*
X555Y1D01*
X554Y1D01*
X553Y1D01*
X552Y1D01*
X551Y1D01*
X550Y1D01*
X549Y1D01*
X548Y1D01*
X547Y1D01*
X546Y1D01*
X545Y1D01*
X544Y1D01*
X543Y1D01*
X542Y1D01*
X541Y1D01*
X540Y1D01*
X539Y1D01*
X538Y1D01*
X537Y1D01*
X536Y1D01*
X535Y1D01*
X534Y1D01*
X533Y1D01*
X532Y1D01*
X531Y1D01*
X530Y1D01*
X529Y1D01*
X528Y1D01*
X527Y1D01*
X526Y1D01*
X525Y1D01*
X524Y1D01*
X523Y1D01*
X522Y1D01*
X521Y1D01*
X520Y1D01*
X519Y1D01*
X518Y1D01*
X517Y1D01*
X516Y1D01*
X515Y1D01*
X514Y1D01*
X513Y1D01*
X512Y1D01*
X511Y1D01*
X510Y1D01*
X509Y1D01*
X508Y1D01*
X507Y1D01*
X506Y1D01*
X505Y1D01*
X504Y1D01*
X503Y1D01*
X502Y1D01*
X501Y1D01*
X500Y1D01*
X499Y1D01*
X498Y1D01*
X497Y1D01*
X496Y1D01*
X495Y1D01*
X494Y1D01*
X493Y1D01*
X492Y1D01*
X491Y1D01*
X490Y1D01*
X489Y1D01*
X488Y1D01*
X487Y1D01*
X486Y1D01*
X485Y1D01*
X484Y1D01*
X483Y1D01*
X482Y1D01*
X481Y1D01*
X480Y1D01*
X479Y1D01*
X478Y1D01*
X477Y1D01*
X476Y1D01*
X475Y1D01*
X474Y1D01*
X473Y1D01*
X472Y1D01*
X471Y1D01*
X470Y1D01*
X469Y1D01*
X468Y1D01*
X467Y1D01*
X466Y1D01*
X465Y1D01*
X464Y1D01*
X463Y1D01*
X462Y1D01*
X461Y1D01*
X460Y1D01*
X459Y1D01*
X458Y1D01*
X457Y1D01*
X456Y1D01*
X455Y1D01*
X454Y1D01*
X453Y1D01*
X452Y1D01*
X451Y1D01*
X450Y1D01*
X449Y1D01*
X448Y1D01*
X447Y1D01*
X446Y1D01*
X445Y1D01*
X444Y1D01*
X443Y1D01*
X442Y1D01*
X441Y1D01*
X440Y1D01*
X439Y1D01*
X438Y1D01*
X437Y1D01*
X436Y1D01*
X435Y1D01*
X434Y1D01*
X433Y1D01*
X432Y1D01*
X431Y1D01*
X430Y1D01*
X429Y1D01*
X428Y1D01*
X427Y1D01*
X426Y1D01*
X425Y1D01*
X424Y1D01*
X423Y1D01*
X422Y1D01*
X421Y1D01*
X420Y1D01*
X419Y1D01*
X418Y1D01*
X417Y1D01*
X416Y1D01*
X415Y1D01*
X414Y1D01*
X413Y1D01*
X412Y1D01*
X411Y1D01*
X410Y1D01*
X409Y1D01*
X408Y1D01*
X407Y1D01*
X406Y1D01*
X405Y1D01*
X404Y1D01*
X403Y1D01*
X402Y1D01*
X401Y1D01*
X400Y1D01*
X399Y1D01*
X398Y1D01*
X397Y1D01*
X396Y1D01*
X395Y1D01*
X394Y1D01*
X393Y1D01*
X392Y1D01*
X391Y1D01*
X390Y1D01*
X389Y1D01*
X388Y1D01*
X387Y1D01*
X386Y1D01*
X385Y1D01*
X384Y1D01*
X383Y1D01*
X382Y1D01*
X381Y1D01*
X380Y1D01*
X379Y1D01*
X378Y1D01*
X377Y1D01*
X376Y1D01*
X375Y1D01*
X374Y1D01*
X373Y1D01*
X372Y1D01*
X371Y1D01*
X370Y1D01*
X369Y1D01*
X368Y1D01*
X367Y1D01*
X366Y1D01*
X365Y1D01*
X364Y1D01*
X363Y1D01*
X362Y1D01*
X361Y1D01*
X360Y1D01*
X359Y1D01*
X358Y1D01*
X357Y1D01*
X356Y1D01*
X355Y1D01*
X354Y1D01*
X353Y1D01*
X352Y1D01*
X351Y1D01*
X350Y1D01*
X349Y1D01*
X348Y1D01*
X347Y1D01*
X346Y1D01*
X345Y1D01*
X344Y1D01*
X343Y1D01*
X342Y1D01*
X341Y1D01*
X340Y1D01*
X339Y1D01*
X338Y1D01*
X337Y1D01*
X336Y1D01*
X335Y1D01*
X334Y1D01*
X333Y1D01*
X332Y1D01*
X331Y1D01*
X330Y1D01*
X329Y1D01*
X328Y1D01*
X327Y1D01*
X326Y1D01*
X325Y1D01*
X324Y1D01*
X323Y1D01*
X322Y1D01*
X321Y1D01*
X320Y1D01*
X319Y1D01*
X318Y1D01*
X317Y1D01*
X316Y1D01*
X315Y1D01*
X314Y1D01*
X313Y1D01*
X312Y1D01*
X311Y1D01*
X310Y1D01*
X309Y1D01*
X308Y1D01*
X307Y1D01*
X306Y1D01*
X305Y1D01*
X304Y1D01*
X303Y1D01*
X302Y1D01*
X301Y1D01*
X300Y1D01*
X299Y1D01*
X298Y1D01*
X297Y1D01*
X296Y1D01*
X295Y1D01*
X294Y1D01*
X293Y1D01*
X292Y1D01*
X291Y1D01*
X290Y1D01*
X289Y1D01*
X288Y1D01*
X287Y1D01*
X286Y1D01*
X285Y1D01*
X284Y1D01*
X283Y1D01*
X282Y1D01*
X281Y1D01*
X280Y1D01*
X279Y1D01*
X278Y1D01*
X277Y1D01*
X276Y1D01*
X275Y1D01*
X274Y1D01*
X273Y1D01*
X272Y1D01*
X271Y1D01*
X270Y1D01*
X269Y1D01*
X268Y1D01*
X267Y1D01*
X266Y1D01*
X265Y1D01*
X264Y1D01*
X263Y1D01*
X262Y1D01*
X261Y1D01*
X260Y1D01*
X259Y1D01*
X258Y1D01*
X257Y1D01*
X256Y1D01*
X255Y1D01*
X254Y1D01*
X253Y1D01*
X252Y1D01*
X251Y1D01*
X250Y1D01*
X249Y1D01*
X248Y1D01*
X247Y1D01*
X246Y1D01*
X245Y1D01*
X244Y1D01*
X243Y1D01*
X242Y1D01*
X241Y1D01*
X240Y1D01*
X239Y1D01*
X238Y1D01*
X237Y1D01*
X236Y1D01*
X235Y1D01*
X234Y1D01*
X233Y1D01*
X232Y1D01*
X231Y1D01*
X230Y1D01*
X229Y1D01*
X228Y1D01*
X227Y1D01*
X226Y1D01*
X225Y1D01*
X224Y1D01*
X223Y1D01*
X222Y1D01*
X221Y1D01*
X220Y1D01*
X219Y1D01*
X218Y1D01*
X217Y1D01*
X216Y1D01*
X215Y1D01*
X214Y1D01*
X213Y1D01*
X212Y1D01*
X211Y1D01*
X210Y1D01*
X209Y1D01*
X208Y1D01*
X207Y1D01*
X206Y1D01*
X205Y1D01*
X204Y1D01*
X203Y1D01*
X202Y1D01*
X201Y1D01*
X200Y1D01*
X199Y1D01*
X198Y1D01*
X197Y1D01*
X196Y1D01*
X195Y1D01*
X194Y1D01*
X193Y1D01*
X192Y1D01*
X191Y1D01*
X190Y1D01*
X189Y1D01*
X188Y1D01*
X187Y1D01*
X186Y1D01*
X185Y1D01*
X184Y1D01*
X183Y1D01*
X182Y1D01*
X181Y1D01*
X180Y1D01*
X179Y1D01*
X178Y1D01*
X177Y1D01*
X176Y1D01*
X175Y1D01*
X174Y1D01*
X173Y1D01*
X172Y1D01*
X171Y1D01*
X170Y1D01*
X169Y1D01*
X168Y1D01*
X167Y1D01*
X166Y1D01*
X165Y1D01*
X164Y1D01*
X163Y1D01*
X162Y1D01*
X161Y1D01*
X160Y1D01*
X159Y1D01*
X158Y1D01*
X157Y1D01*
X156Y1D01*
X155Y1D01*
X154Y1D01*
X153Y1D01*
X152Y1D01*
X151Y1D01*
X150Y1D01*
X149Y1D01*
X148Y1D01*
X147Y1D01*
X146Y1D01*
X145Y1D01*
X144Y1D01*
X143Y1D01*
X142Y1D01*
X141Y1D01*
X140Y1D01*
X139Y1D01*
X138Y1D01*
X137Y1D01*
X136Y1D01*
X135Y1D01*
X134Y1D01*
X133Y1D01*
X132Y1D01*
X131Y1D01*
X130Y1D01*
X129Y1D01*
X128Y1D01*
X127Y1D01*
X126Y1D01*
X125Y1D01*
X124Y1D01*
X123Y1D01*
X122Y1D01*
X121Y1D01*
X120Y1D01*
X119Y1D01*
X118Y1D01*
X117Y1D01*
X116Y1D01*
X115Y1D01*
X114Y1D01*
X113Y1D01*
X112Y1D01*
X111Y1D01*
X110Y1D01*
X109Y1D01*
X108Y1D01*
X107Y1D01*
X106Y1D01*
X105Y1D01*
X104Y1D01*
X103Y1D01*
X102Y1D01*
X101Y1D01*
X100Y1D01*
X99Y1D01*
X98Y1D01*
X97Y1D01*
X96Y1D01*
X95Y1D01*
X94Y1D01*
X93Y1D01*
X92Y1D01*
X91Y1D01*
X90Y1D01*
X89Y1D01*
X88Y1D01*
X87Y1D01*
X86Y1D01*
X85Y1D01*
X84Y1D01*
X83Y1D01*
X82Y1D01*
X81Y1D01*
X80Y1D01*
X79Y1D01*
X78Y1D01*
X77Y1D01*
X76Y1D01*
X75Y1D01*
X74Y1D01*
X73Y1D01*
X72Y1D01*
X71Y1D01*
X70Y1D01*
X69Y1D01*
X68Y1D01*
X67Y1D01*
X66Y1D01*
X65Y1D01*
X64Y2D01*
X63Y2D01*
X62Y2D01*
X61Y2D01*
X60Y2D01*
X59Y2D01*
X58Y3D01*
X57Y3D01*
X56Y3D01*
X55Y3D01*
X54Y4D01*
X53Y4D01*
X52Y4D01*
X51Y4D01*
X50Y5D01*
X49Y5D01*
X48Y5D01*
X47Y6D01*
X46Y6D01*
X45Y7D01*
X44Y7D01*
X43Y7D01*
X42Y8D01*
X41Y8D01*
X40Y9D01*
X39Y9D01*
X38Y10D01*
X37Y11D01*
X36Y11D01*
X35Y12D01*
X34Y12D01*
X33Y13D01*
X32Y14D01*
X31Y14D01*
X30Y15D01*
X29Y16D01*
X28Y17D01*
X27Y17D01*
X26Y18D01*
X25Y19D01*
X24Y20D01*
X23Y21D01*
X22Y22D01*
X21Y23D01*
X20Y24D01*
X19Y25D01*
X18Y26D01*
X17Y27D01*
X17Y28D01*
X16Y29D01*
X15Y30D01*
X14Y31D01*
X14Y32D01*
X13Y33D01*
X12Y34D01*
X12Y35D01*
X11Y36D01*
X10Y37D01*
X10Y38D01*
X9Y39D01*
X9Y40D01*
X8Y41D01*
X8Y42D01*
X7Y43D01*
X7Y44D01*
X6Y45D01*
X6Y46D01*
X5Y47D01*
X5Y49D01*
X4Y50D01*
X4Y52D01*
X3Y53D01*
X3Y56D01*
X2Y57D01*
X2Y60D01*
X1Y61D01*
X1Y66D01*
X0Y67D01*
X0Y2434D01*
X1Y2435D01*
X1Y2440D01*
X2Y2441D01*
X2Y2444D01*
X3Y2445D01*
X3Y2448D01*
X4Y2449D01*
X4Y2451D01*
X5Y2452D01*
X5Y2454D01*
X6Y2455D01*
X6Y2456D01*
X7Y2457D01*
X7Y2458D01*
X8Y2459D01*
X8Y2460D01*
X9Y2461D01*
X9Y2462D01*
X10Y2463D01*
X10Y2464D01*
X11Y2465D01*
X12Y2466D01*
X12Y2467D01*
X13Y2468D01*
X14Y2469D01*
X14Y2470D01*
X15Y2471D01*
X16Y2472D01*
X17Y2473D01*
X17Y2474D01*
X18Y2475D01*
X19Y2476D01*
X20Y2477D01*
X21Y2478D01*
X22Y2479D01*
X23Y2480D01*
X24Y2481D01*
X25Y2482D01*
X26Y2483D01*
X27Y2484D01*
X28Y2484D01*
X29Y2485D01*
X30Y2486D01*
X31Y2487D01*
X32Y2487D01*
X33Y2488D01*
X34Y2489D01*
X35Y2489D01*
X36Y2490D01*
X37Y2490D01*
X38Y2491D01*
X39Y2492D01*
X40Y2492D01*
X41Y2493D01*
X42Y2493D01*
X43Y2494D01*
X44Y2494D01*
X45Y2494D01*
X46Y2495D01*
X47Y2495D01*
X48Y2496D01*
X49Y2496D01*
X50Y2496D01*
X51Y2497D01*
X52Y2497D01*
X53Y2497D01*
X54Y2497D01*
X55Y2498D01*
X56Y2498D01*
X57Y2498D01*
X58Y2498D01*
X59Y2499D01*
X60Y2499D01*
X61Y2499D01*
X62Y2499D01*
X63Y2499D01*
X64Y2499D01*
X65Y2500D01*
D02*
G04 End of contour*
M02*