G04 MADE WITH FRITZING*
G04 WWW.FRITZING.ORG*
G04 DOUBLE SIDED*
G04 HOLES PLATED*
G04 CONTOUR ON CENTER OF CONTOUR VECTOR*
%ASAXBY*%
%FSLAX23Y23*%
%MOIN*%
%OFA0B0*%
%SFA1.0B1.0*%
%ADD10C,0.049370*%
%ADD11C,0.096614*%
%ADD12C,0.080000*%
%ADD13C,0.084000*%
%ADD14C,0.093307*%
%ADD15R,0.079972X0.080000*%
%ADD16R,0.084000X0.084000*%
%ADD17R,0.093307X0.093307*%
%LNMASK0*%
G90*
G70*
G54D10*
X875Y1775D03*
X875Y275D03*
X1025Y175D03*
G54D11*
X1550Y2425D03*
X75Y2425D03*
X75Y75D03*
X1550Y75D03*
G54D10*
X650Y1000D03*
X650Y1150D03*
X400Y1350D03*
X400Y1200D03*
X650Y1925D03*
X225Y1850D03*
X225Y1600D03*
X325Y1200D03*
G54D12*
X513Y1676D03*
X513Y1576D03*
X513Y1476D03*
X513Y1376D03*
X513Y1276D03*
X513Y1176D03*
X513Y1076D03*
X513Y976D03*
X513Y876D03*
X513Y776D03*
X513Y676D03*
X513Y576D03*
X513Y476D03*
X513Y376D03*
X513Y276D03*
X1113Y1676D03*
X1113Y1576D03*
X1113Y1476D03*
X1113Y1376D03*
X1113Y1276D03*
X1113Y1176D03*
X1113Y1076D03*
X1113Y976D03*
X1113Y876D03*
X1113Y776D03*
X1113Y676D03*
X1113Y576D03*
X1113Y476D03*
X1113Y376D03*
X1113Y276D03*
G54D13*
X213Y2190D03*
X313Y2190D03*
X413Y2190D03*
X513Y2190D03*
X613Y2190D03*
X713Y2190D03*
X813Y2190D03*
X913Y2190D03*
X1013Y2190D03*
X1113Y2190D03*
X1213Y2190D03*
X1313Y2190D03*
X1413Y2190D03*
X213Y2090D03*
X313Y2090D03*
X413Y2090D03*
X513Y2090D03*
X613Y2090D03*
X713Y2090D03*
X813Y2090D03*
X913Y2090D03*
X1013Y2090D03*
X1113Y2090D03*
X1213Y2090D03*
X1313Y2090D03*
X1413Y2090D03*
G54D12*
X1325Y575D03*
X1325Y475D03*
X1325Y1125D03*
X1325Y1025D03*
X1325Y1675D03*
X1325Y1575D03*
X225Y425D03*
X325Y425D03*
X225Y625D03*
X325Y625D03*
X225Y225D03*
X325Y225D03*
G54D14*
X1500Y1675D03*
X1500Y1537D03*
X1500Y1125D03*
X1500Y987D03*
X1500Y575D03*
X1500Y437D03*
G54D15*
X512Y1676D03*
G54D16*
X213Y2090D03*
G54D17*
X1500Y1675D03*
X1500Y1125D03*
X1500Y575D03*
G04 End of Mask0*
M02*